<svg width="36" height="37" viewBox="0 0 36 37" fill="none" xmlns="http://www.w3.org/2000/svg">
<rect x="0.25" y="0.109375" width="35.5" height="36" rx="17.75" fill="black" fill-opacity="0.58"/>
<g clip-path="url(#clip0_30_5638)">
<path d="M18 10.3594C13.7188 10.3594 10.25 13.8281 10.25 18.1094C10.25 22.3906 13.7188 25.8594 18 25.8594C22.2812 25.8594 25.75 22.3906 25.75 18.1094C25.75 13.8281 22.2812 10.3594 18 10.3594ZM21.8062 15.6687L20.5344 21.6625C20.4406 22.0875 20.1875 22.1906 19.8344 21.9906L17.8969 20.5625L16.9625 21.4625C16.8594 21.5656 16.7719 21.6531 16.5719 21.6531L16.7094 19.6812L20.3 16.4375C20.4563 16.3 20.2656 16.2219 20.0594 16.3594L15.6219 19.1531L13.7094 18.5562C13.2937 18.425 13.2844 18.1406 13.7969 17.9406L21.2688 15.0594C21.6156 14.9344 21.9187 15.1437 21.8062 15.6687Z" fill="white"/>
</g>
<defs>
<clipPath id="clip0_30_5638">
<rect width="15.5" height="16" fill="white" transform="translate(10.25 10.1094)"/>
</clipPath>
</defs>
</svg>
