<svg width="30" height="28" viewBox="0 0 30 28" fill="none" xmlns="http://www.w3.org/2000/svg">
<path d="M30 11.8377C30 13.3172 30 14.7858 30 16.2653C29.7766 17.0435 29.3188 17.6462 28.671 18.1285C28.6152 18.1723 28.604 18.2928 28.604 18.3805C28.6263 18.6983 28.7045 19.0052 28.7045 19.3121C28.7157 20.408 28.6934 21.5149 28.7157 22.6109C28.7269 23.378 28.4477 24.0137 27.9116 24.5397C27.0852 25.3617 26.0466 25.8549 24.9633 26.2494C22.5287 27.1371 19.9935 27.5098 17.4137 27.6851C14.9903 27.8605 12.578 27.8057 10.1658 27.5207C8.13319 27.2796 6.14529 26.907 4.22441 26.1837C3.30864 25.8439 2.43754 25.4055 1.70046 24.7699C0.996877 24.1671 0.605999 23.4328 0.639502 22.4794C0.684174 21.4492 0.728846 20.408 0.661838 19.3778C0.605999 18.4572 0.9187 17.7339 1.57761 17.1531C1.91265 16.8572 2.01316 16.6051 1.96849 16.1338C1.87914 14.9831 1.93498 13.8214 1.93498 12.6597C1.93498 12.3528 2.04666 12.0131 1.93498 11.75C1.83447 11.5089 1.49943 11.3555 1.27607 11.1582C1.25374 11.1363 1.2314 11.1254 1.20907 11.1034C0.427312 10.4678 -0.0417416 9.68967 0.00293011 8.64852C0.0364339 7.79368 0.00293036 6.92788 0.0140983 6.06208C0.0140983 5.66754 -0.00823765 5.273 0.047602 4.88942C0.170449 4.0565 0.695342 3.47565 1.35425 2.99343C2.33703 2.27011 3.44265 1.82077 4.60412 1.45911C6.62551 0.845378 8.70275 0.516594 10.8023 0.352202C14.6441 0.0453373 18.4635 0.231648 22.2159 1.11936C23.8241 1.50295 25.3876 2.00708 26.7278 3.00439C27.409 3.50853 28.0009 4.1113 28.0344 4.98806C28.0903 6.40183 28.0456 7.8156 28.0344 9.24033C28.0344 9.40472 28.0568 9.50336 28.202 9.59103C29.0842 10.15 29.7655 10.8295 30 11.8377ZM14.7446 9.02114C15.4482 8.9773 16.833 8.91154 18.2178 8.78003C20.1834 8.59372 22.1154 8.2211 23.9693 7.53065C24.7846 7.22379 25.5663 6.86212 26.2252 6.29223C26.8506 5.74426 26.9735 5.19629 26.5826 4.62639C26.4709 4.462 26.3257 4.31953 26.1694 4.18802C25.5328 3.62908 24.7734 3.28934 23.9805 2.99343C21.4454 2.05092 18.7986 1.70022 16.1071 1.55774C13.4491 1.41527 10.8023 1.53582 8.17786 1.95228C6.54734 2.21531 4.95032 2.59889 3.44265 3.27838C2.77258 3.57429 2.13601 3.92499 1.64462 4.48392C1.1979 4.99902 1.18673 5.51411 1.65578 6.02921C1.86798 6.25936 2.11367 6.47854 2.3817 6.6539C3.47616 7.38818 4.7158 7.78272 5.98894 8.10054C8.63574 8.78003 11.3384 8.98826 14.7446 9.02114ZM27.4649 10.5774C26.5826 11.5199 25.4993 12.046 24.3602 12.4624C21.6799 13.4488 18.8879 13.7995 16.0513 13.9529C14.1974 14.0515 12.3435 14.0187 10.5008 13.8433C8.52406 13.657 6.58084 13.3501 4.68229 12.7802C4.20207 12.6378 3.73302 12.4624 3.26397 12.298C3.24163 12.3199 3.2193 12.3309 3.20813 12.3528C3.34214 12.561 3.46499 12.8022 3.63251 12.9775C4.30258 13.6899 5.17368 14.0735 6.06712 14.4022C8.35654 15.2461 10.7576 15.6078 13.1811 15.7831C16.0513 15.9804 18.9102 15.8927 21.7581 15.4434C23.4109 15.1804 25.0191 14.8077 26.5491 14.1282C27.2304 13.8214 27.9004 13.4707 28.3918 12.8898C28.8385 12.3638 28.8274 11.8158 28.336 11.3226C28.0791 11.0706 27.7776 10.8404 27.4649 10.5774ZM2.76141 17.701C2.58272 17.9093 2.39287 18.1065 2.22535 18.3148C1.85681 18.7751 1.84564 19.2244 2.19184 19.6847C2.30352 19.8381 2.44871 19.9806 2.59389 20.1012C3.2528 20.6601 4.02339 21.0108 4.83864 21.3067C7.15041 22.1506 9.56268 22.5122 12.0085 22.6766C14.8339 22.8629 17.6371 22.7862 20.4402 22.3369C22.0931 22.0739 23.7236 21.7012 25.2648 21.0218C25.9572 20.7149 26.6273 20.3642 27.1298 19.7614C27.3309 19.5203 27.4984 19.2463 27.409 18.8847C27.1745 18.9833 26.9512 19.0929 26.7278 19.1806C24.215 20.1669 21.5682 20.5834 18.8879 20.7916C17.0005 20.9341 15.1131 20.9341 13.2146 20.8026C11.4501 20.6711 9.70786 20.4738 7.988 20.0573C6.14529 19.597 4.33609 19.0381 2.76141 17.701ZM19.1671 9.94173C18.296 10.0294 17.4584 10.1061 16.632 10.1938C16.632 11.0377 16.632 11.8487 16.632 12.7035C17.4361 12.6268 18.2178 12.5501 18.9996 12.4515C19.0554 12.4405 19.1559 12.3528 19.1559 12.309C19.1671 11.5199 19.1671 10.7418 19.1671 9.94173ZM9.60735 26.2056C10.4449 26.2933 11.2825 26.37 12.1313 26.4576C12.1313 25.5919 12.1313 24.7808 12.1313 23.9589C11.2937 23.8822 10.4561 23.7945 9.60735 23.7178C9.60735 24.5507 9.60735 25.3617 9.60735 26.2056ZM17.2574 26.4576C18.1173 26.37 18.9549 26.2933 19.7925 26.2056C19.7925 25.3617 19.7925 24.5507 19.7925 23.7068C18.9326 23.7945 18.095 23.8712 17.2574 23.9589C17.2574 24.7918 17.2574 25.5919 17.2574 26.4576ZM10.8805 19.323C11.7293 19.4107 12.5557 19.4874 13.4045 19.5751C13.4045 18.7093 13.4045 17.8983 13.4045 17.0763C12.5557 16.9887 11.7293 16.912 10.8805 16.8352C10.8805 17.6572 10.8805 18.4682 10.8805 19.323ZM7.68647 12.2432C7.68647 11.4213 7.68647 10.6431 7.6753 9.87598C7.6753 9.82118 7.55245 9.73351 7.46311 9.71159C6.78187 9.54719 6.10062 9.40472 5.41938 9.25129C5.33003 9.22937 5.24069 9.21841 5.12901 9.19649C5.12901 9.79926 5.12901 10.3582 5.12901 10.9281C5.12901 11.6295 5.12901 11.6405 5.81026 11.8158C6.42449 11.9583 7.03873 12.0898 7.68647 12.2432ZM22.3723 16.627C22.3723 17.438 22.3723 18.26 22.3723 19.1258C23.1987 18.9175 23.9916 18.7312 24.7734 18.534C24.8292 18.523 24.8963 18.4353 24.8963 18.3805C24.9074 17.6243 24.8963 16.8572 24.8963 16.079C24.0363 16.2653 23.2099 16.4407 22.3723 16.627ZM5.77675 22.9506C5.77675 23.7726 5.77675 24.5617 5.77675 25.4055C6.61435 25.6028 7.44077 25.8001 8.31187 26.0083C8.31187 25.1425 8.31187 24.3315 8.31187 23.5205C7.46311 23.3342 6.63668 23.1479 5.77675 22.9506ZM17.2239 19.6299C17.2239 18.786 17.2239 17.9641 17.2239 17.1421C16.3751 17.1421 15.5599 17.1421 14.7223 17.1421C14.7223 17.975 14.7223 18.797 14.7223 19.6299C15.5599 19.6299 16.3863 19.6299 17.2239 19.6299ZM13.4491 24.0246C13.4491 24.8685 13.4491 25.6795 13.4491 26.5124C14.2979 26.5124 15.1131 26.5124 15.9396 26.5124C15.9396 25.6686 15.9396 24.8466 15.9396 24.0246C15.102 24.0246 14.2867 24.0246 13.4491 24.0246ZM15.3142 12.7474C15.3142 11.9035 15.3142 11.0815 15.3142 10.2596C14.4766 10.2596 13.6501 10.2596 12.8125 10.2596C12.8125 11.0925 12.8125 11.9144 12.8125 12.7474C13.6501 12.7474 14.4654 12.7474 15.3142 12.7474ZM8.95961 9.94173C8.95961 10.7418 8.95961 11.498 8.97078 12.2651C8.97078 12.3309 9.07129 12.4405 9.12713 12.4515C9.90889 12.5391 10.6906 12.6158 11.4947 12.7035C11.4947 11.8487 11.4947 11.0267 11.4947 10.1938C10.646 10.1061 9.81954 10.0294 8.95961 9.94173ZM18.5417 19.5751C19.3346 19.4984 20.0829 19.4107 20.8423 19.345C21.0321 19.323 21.088 19.2463 21.0768 19.071C21.0657 18.4572 21.0768 17.8435 21.0768 17.2298C21.0768 17.0983 21.0768 16.9668 21.0768 16.8243C20.1946 16.912 19.3681 16.9887 18.5417 17.0763C18.5417 17.9093 18.5417 18.7203 18.5417 19.5751ZM9.56268 19.1038C9.56268 18.249 9.56268 17.438 9.56268 16.638C8.71392 16.4517 7.89866 16.2653 7.0499 16.079C7.0499 16.8681 7.0499 17.6243 7.06106 18.3915C7.06106 18.4463 7.17274 18.534 7.23975 18.5559C7.58596 18.6655 7.93216 18.7641 8.27837 18.8408C8.70275 18.9285 9.12713 19.0052 9.56268 19.1038ZM23.6119 22.9616C22.8078 23.1369 22.0038 23.3013 21.2108 23.4876C21.155 23.4986 21.0768 23.6191 21.0768 23.6849C21.0657 23.9808 21.0657 24.2767 21.0657 24.5726C21.0657 25.0329 21.0657 25.4823 21.0657 26.0083C21.9479 25.8001 22.7855 25.6028 23.6008 25.4055C23.6119 24.5617 23.6119 23.7616 23.6119 22.9616ZM20.4402 12.2542C21.2778 12.046 22.0596 11.8596 22.8414 11.6514C22.9084 11.6295 22.9754 11.498 22.9754 11.4213C22.9865 11.0267 22.9865 10.6322 22.9865 10.2486C22.9865 9.8979 22.9865 9.54719 22.9865 9.19649C22.1601 9.37184 21.3672 9.53623 20.5854 9.71159C20.5296 9.72254 20.4514 9.82118 20.4514 9.88694C20.4402 10.6541 20.4402 11.4103 20.4402 12.2542ZM26.7613 7.57449C26.0019 7.93615 25.1978 8.31973 24.4049 8.70332C24.3379 8.73619 24.2708 8.85675 24.2708 8.93346C24.2597 9.3828 24.2597 9.83214 24.2597 10.2815C24.2597 10.5555 24.2597 10.8404 24.2597 11.1582C24.9744 10.8623 25.6333 10.5555 26.1582 10.0732C26.4039 9.85406 26.6943 9.56911 26.739 9.27321C26.8283 8.70331 26.7613 8.08958 26.7613 7.57449ZM5.76558 18.0517C5.76558 17.3065 5.75442 16.6051 5.76558 15.9037C5.76558 15.7174 5.70974 15.6297 5.53106 15.553C4.95032 15.3009 4.39193 15.0269 3.82236 14.742C3.62134 14.6433 3.44265 14.5009 3.2193 14.3584C3.2193 14.9283 3.19696 15.4543 3.23046 15.9694C3.24163 16.1777 3.35331 16.4188 3.48733 16.5941C4.07923 17.3065 4.90565 17.6791 5.76558 18.0517ZM4.48127 24.9343C4.48127 24.1452 4.48127 23.4 4.4701 22.6547C4.4701 22.589 4.35842 22.4903 4.28025 22.4574C3.71068 22.1725 3.12995 21.9095 2.56039 21.6245C2.35936 21.5259 2.18068 21.3834 1.94615 21.23C1.94615 21.7232 1.95732 22.1615 1.94615 22.589C1.92381 23.0383 2.1025 23.389 2.4152 23.6849C2.98477 24.2548 3.69952 24.6055 4.48127 24.9343ZM24.9074 24.9343C25.7338 24.5945 26.5044 24.2329 27.0852 23.5863C27.2304 23.4219 27.3979 23.2027 27.409 22.9945C27.4537 22.4246 27.4202 21.8547 27.4202 21.3505C26.6273 21.7232 25.8232 22.1067 25.0191 22.5013C24.9633 22.5232 24.9186 22.6109 24.9074 22.6766C24.9074 23.4 24.9074 24.1452 24.9074 24.9343ZM26.1806 18.0517C27.007 17.701 27.7776 17.3394 28.3583 16.6928C28.5147 16.5174 28.671 16.2873 28.6933 16.0681C28.738 15.5091 28.7045 14.9502 28.7045 14.457C27.9116 14.8297 27.0963 15.2132 26.2922 15.6078C26.2364 15.6297 26.1806 15.7174 26.1806 15.7831C26.1806 16.5174 26.1806 17.2627 26.1806 18.0517ZM1.32075 7.56353C1.32075 8.04575 1.30958 8.58276 1.33191 9.10881C1.34308 9.27321 1.41009 9.44856 1.5106 9.58007C2.08017 10.3801 2.95126 10.7637 3.85587 11.1582C3.85587 10.3692 3.85587 9.63487 3.8447 8.90059C3.8447 8.83483 3.76652 8.72523 3.69952 8.69236C2.90659 8.31973 2.11367 7.94711 1.32075 7.56353Z" fill="#FBFBFB"/>
</svg>
