<svg width="16" height="15" viewBox="0 0 16 15" fill="none" xmlns="http://www.w3.org/2000/svg">
<path d="M12.875 3H3.125C2.50391 3 2 3.50391 2 4.125V10.875C2 11.4961 2.50391 12 3.125 12H12.875C13.4961 12 14 11.4961 14 10.875V4.125C14 3.50391 13.4961 3 12.875 3ZM3.125 3.75H12.875C13.0813 3.75 13.25 3.91875 13.25 4.125V5.09531C12.7367 5.52891 12.0031 6.12656 9.72031 7.93828C9.32422 8.25234 8.54375 9.00938 8 9C7.45625 9.00938 6.67344 8.25234 6.27969 7.93828C3.99688 6.12656 3.26328 5.52891 2.75 5.09531V4.125C2.75 3.91875 2.91875 3.75 3.125 3.75ZM12.875 11.25H3.125C2.91875 11.25 2.75 11.0813 2.75 10.875V6.07031C3.28437 6.50859 4.12812 7.18594 5.81328 8.52422C6.29375 8.90859 7.14219 9.75469 8 9.75C8.85313 9.75703 9.69453 8.91797 10.1867 8.52422C11.8719 7.18594 12.7156 6.50859 13.25 6.07031V10.875C13.25 11.0813 13.0813 11.25 12.875 11.25Z" fill="black" fill-opacity="0.58"/>
</svg>
