<svg width="232" height="11" viewBox="0 0 232 11" fill="none" xmlns="http://www.w3.org/2000/svg">
<path d="M226.789 8.94618C226.972 8.83309 227.055 8.53915 226.707 8.56178L226.227 9.02902L226.789 8.94618Z" fill="#FF6610"/>
<path d="M225.077 7.83789C224.58 8.0339 223.918 8.41068 223.951 8.87799C224.564 8.4484 224.564 8.65188 225.242 8.13183C225.59 8.10927 225.723 8.34285 225.59 8.51623C225.773 8.40313 226.038 8.67444 226.369 8.38058C226.137 7.96608 225.608 7.89825 224.894 8.15446C224.829 8.04145 225.011 7.92835 225.077 7.83789Z" fill="#FF6610"/>
<path d="M193.484 4.25781L193.667 4.33318C193.633 4.29549 193.568 4.27288 193.484 4.25781Z" fill="#FF6610"/>
<path d="M173.603 2.69102C173.752 2.69102 173.835 2.63827 173.851 2.60059C173.702 2.61566 173.57 2.64581 173.603 2.69102Z" fill="#FF6610"/>
<path d="M170.302 1.96038C170.369 1.98299 170.435 1.99052 170.501 2.00559C170.435 1.96038 170.351 1.93023 170.302 1.96038Z" fill="#FF6610"/>
<path d="M193.484 4.25747L193.004 4.06152C192.921 4.21979 193.253 4.19718 193.484 4.25747Z" fill="#FF6610"/>
<path d="M220.119 8.59117C220.236 8.57608 220.352 8.53836 220.467 8.49316C220.368 8.50825 220.268 8.5158 220.169 8.5158C220.169 8.5459 220.153 8.56854 220.119 8.59117Z" fill="#FF6610"/>
<path d="M202.436 4.50802L202.601 4.51556C202.668 4.46281 202.75 4.40251 202.817 4.32715L202.436 4.50802Z" fill="#FF6610"/>
<path d="M209.194 5.02796C209.045 4.99781 208.812 5.40477 208.681 5.58565C208.846 5.41985 208.979 5.35202 209.128 5.32941C209.16 5.24651 209.176 5.15607 209.194 5.02796Z" fill="#FF6610"/>
<path d="M219.437 6.77597L219.653 6.73828C219.603 6.74582 219.52 6.76089 219.437 6.77597Z" fill="#FF6610"/>
<path d="M197.644 4.05503C197.66 3.99473 197.66 3.93445 197.644 3.9043C197.611 3.95706 197.611 4.00981 197.644 4.05503Z" fill="#FF6610"/>
<path d="M9.07539 9.01385C9.05894 8.98375 9.0425 8.96866 9.0425 8.93848C9.00961 8.99129 9.02606 9.02139 9.07539 9.01385Z" fill="#FF6610"/>
<path d="M0.341757 7.86904L0.441128 7.83131C0.391443 7.75594 0.358319 7.67303 0.325195 7.59766L0.341757 7.86904Z" fill="#FF6610"/>
<path d="M164.142 1.09304C164.159 1.10057 164.159 1.10057 164.175 1.10057C164.34 1.06289 164.241 1.06289 164.142 1.09304Z" fill="#FF6610"/>
<path d="M106.011 0.241211C106.674 0.618036 104.951 0.731077 105.962 1.14559C105.862 0.987323 106.84 0.489913 106.011 0.241211Z" fill="#FF6610"/>
<path d="M219.991 8.52353C219.891 8.51607 219.809 8.51607 219.71 8.50098C219.825 8.52353 219.909 8.53108 219.991 8.52353Z" fill="#FF6610"/>
<path d="M105.962 1.1543L106.06 1.19951C106.011 1.1769 105.995 1.16936 105.962 1.1543Z" fill="#FF6610"/>
<path d="M149.533 0.791016C149.551 0.866379 149.6 0.926676 149.65 0.979428C149.65 0.934213 149.633 0.881453 149.533 0.791016Z" fill="#FF6610"/>
<path d="M160.245 1.74849L159.996 1.68066C160.095 1.72588 160.179 1.74095 160.245 1.74849Z" fill="#FF6610"/>
<path d="M143.823 1.19874C143.674 1.16105 143.642 1.10076 143.426 1.15351C143.443 1.17613 143.459 1.1912 143.475 1.20627C143.575 1.15351 143.674 1.13091 143.823 1.19874Z" fill="#FF6610"/>
<path d="M137.969 1.02441C138.002 1.05455 138.035 1.0847 138.068 1.11485C138.134 1.10731 138.201 1.09978 138.251 1.09224L137.969 1.02441Z" fill="#FF6610"/>
<path d="M26.1137 7.19015C25.9481 7.08464 25.8157 6.96405 25.6997 6.83594C25.8984 7.12985 25.1201 7.31074 26.1137 7.19015Z" fill="#FF6610"/>
<path d="M220.232 8.35742C220.149 8.45543 220.065 8.50816 219.983 8.51571C220.049 8.51571 220.115 8.51571 220.182 8.50816C220.214 8.45543 220.248 8.40269 220.232 8.35742Z" fill="#FF6610"/>
<path d="M143.141 4.52989L142.23 4.43945C142.479 4.48468 142.809 4.51482 143.141 4.52989Z" fill="#FF6610"/>
<path d="M67.1842 4.59766L66.9854 4.65795C67.0682 4.65795 67.1345 4.64288 67.1842 4.59766Z" fill="#FF6610"/>
<path d="M139.499 4.4086C139.35 4.25034 139.184 4.1599 139.019 4.09961C138.97 4.12975 138.936 4.1599 138.902 4.20512L139.499 4.4086Z" fill="#FF6610"/>
<path d="M28.3217 9.28905C29.1828 9.22877 28.4873 8.71626 28.537 8.39222C29.4976 8.15103 29.1828 8.75391 29.6632 9.00265C30.2428 8.79917 30.5079 8.25656 31.0047 8.24148C31.071 8.33194 31.1869 8.35449 31.1207 8.47506C31.6175 7.98522 33.1247 8.27912 33.6878 7.66116C33.7705 7.70637 33.8202 7.75159 33.8533 7.78928C33.6214 7.5255 33.489 7.24665 33.4228 7.05071C33.8037 7.00548 34.0024 6.64373 34.3005 6.99042C34.0521 6.99795 34.1018 7.14868 34.0356 7.26926L34.3834 7.08085C34.9465 7.56318 33.903 7.30694 34.0521 7.68377C34.7643 7.45013 35.5261 6.94519 36.1886 7.03563C36.5033 7.5255 34.847 7.32955 35.8243 7.70638L34.814 7.59333C35.8408 8.32439 34.2177 7.58579 35.2115 8.37713C36.4867 8.41477 36.4867 8.0003 37.762 8.05306C37.9276 7.75159 37.5136 7.64608 37.6792 7.34463C39.2526 6.71157 39.5341 8.51278 40.5775 7.74406C40.7928 7.38231 40.6769 6.73417 41.7202 7.00548L41.5877 7.60087C42.7968 7.57072 41.9687 6.72664 43.3599 7.02056C43.2108 7.26173 42.4821 7.2768 42.6974 7.33709C43.6745 7.72898 43.1611 6.9678 43.7739 6.92258L44.0887 7.41999C45.3308 7.24665 46.606 6.77186 47.9972 6.58344C47.9642 6.74171 47.7819 6.91504 48.1628 7.05071C49.8687 6.68895 52.0051 6.87737 53.8105 7.07332L54.3404 6.59098C54.4895 6.58344 54.6882 6.77186 54.5392 6.86983C55.2513 6.99795 54.4895 6.59098 54.7711 6.39503C55.1519 6.34228 55.3507 6.61359 55.1519 6.76432C56.2285 6.31967 58.2987 5.75443 59.6734 6.14633L59.458 6.28952C60.4848 6.41011 60.3192 5.31732 61.3295 5.68661L61.1805 5.76951C63.3501 5.85994 65.6025 5.33993 67.3747 5.92777C67.5403 5.27964 69.5277 6.10864 69.478 5.21934C70.7864 5.59617 70.4717 5.77704 72.2439 5.98807C72.7076 6.00314 72.807 5.40022 73.3534 5.28718L73.4694 5.7469L74.1319 5.22688L74.6453 5.76197L75.1422 5.61878C74.9268 5.60371 74.6619 5.43037 74.6619 5.29471C75.4402 5.04601 76.7487 5.54342 76.7984 5.77704L78.6864 5.31732C78.6699 5.50573 78.3551 5.58109 78.1233 5.70922C79.0839 5.20428 78.4048 6.19155 79.2827 5.72429C79.1336 5.62632 79.2992 5.44544 79.2992 5.355C79.8291 5.61878 80.9058 5.58109 81.7007 5.4379L81.6013 5.76197C83.0588 5.79212 84.6322 5.50573 86.2552 5.45298C85.6424 5.32486 85.6921 4.76716 86.1724 4.69933L86.4374 5.18167C86.7024 4.86513 85.9075 5.01587 86.4871 4.62397C87.0999 4.66165 86.984 5.16659 86.6527 5.33993L87.3649 5.14398C87.4311 5.28718 87.2655 5.37008 87.2489 5.55849C87.5139 5.24196 88.5904 6.01068 88.9548 5.46052L89.021 5.60371C90.6441 5.55095 91.3563 5.355 92.6812 5.30978C92.6482 4.88774 93.1781 4.97064 93.5424 4.62397C94.5361 4.74455 95.6623 5.05354 96.8217 4.99325C97.6332 4.76716 97.0204 4.6315 97.3683 4.37527C97.4676 4.75963 98.6435 4.69933 98.0639 4.99325C99.4716 4.90282 99.8526 4.88021 101.625 4.53353C101.426 4.3828 101.194 4.31498 101.293 4.17932C101.608 4.11149 102.039 4.33004 102.006 4.51092L101.923 4.55614C103.894 3.93815 106.626 5.59617 108.167 4.75963L108.084 4.80484C108.63 4.65412 109.177 4.51846 109.723 4.37527C110.485 4.44309 109.276 4.66919 109.856 4.90282C111.611 4.25468 112.671 4.98572 114.129 4.55614C115.288 5.69414 118.17 4.4657 119.71 5.1892L119.627 4.91789C120.025 4.65412 120.108 5.06862 120.406 5.12891C120.356 4.91789 119.975 4.88774 120.224 4.74455C123.586 4.42048 127.163 5.09123 130.591 5.41529C131.85 5.50573 131.37 4.03613 132.927 4.69933L132.446 5.1892C135.03 4.6315 137.63 5.28718 140.164 4.81238C139.999 4.92543 139.982 5.07615 139.75 5.06862C140.247 5.4379 141.688 5.11384 141.721 4.81992C142.102 4.85759 141.787 5.09123 142.019 5.24196C142.533 5.46052 143.394 4.7973 143.626 5.16659C143.676 5.22688 143.46 5.27964 143.36 5.30978C143.725 5.13644 144.951 5.37762 144.668 4.95557C145.581 5.17413 146.474 4.78977 147.186 5.06108C147.732 4.60889 148.76 5.33993 148.991 4.68426C148.842 5.36254 150.565 5.28718 151.194 4.98572C150.963 5.18167 151.675 5.21934 151.409 5.49066C152.089 5.50573 152.719 5.40022 152.652 5.04601C153.779 5.89763 155.236 4.47324 155.781 5.53588C157.835 5.23442 159.724 5.04601 161.562 4.94803C161.38 5.62632 159.559 4.94803 159.509 5.66399C161.265 5.4379 162.357 4.88774 164.013 5.11384C164.427 5.21934 163.715 5.40022 163.533 5.51327C165.289 5.29471 166.812 5.66399 168.403 5.38515C168.385 5.44544 168.204 5.50573 168.037 5.55095C168.336 5.54342 168.717 5.68661 168.733 5.37762L168.419 5.44544C168.037 4.97064 169.793 4.57875 169.91 4.34512C169.214 5.19674 171.366 4.64658 170.306 5.71675C170.523 5.67153 170.787 5.53588 170.787 5.32486C171.069 5.40022 171.135 5.52834 170.787 5.7469C171.897 5.63385 171.582 5.28718 172.559 5.34747C172.527 5.49819 172.31 5.54342 172.179 5.71675C172.726 5.45298 173.288 5.1892 174.084 5.355C174.016 5.44544 174.084 5.56602 173.835 5.55095C175.243 5.58109 176.418 4.90282 177.892 5.26457C177.279 5.89009 178.357 5.50573 178.307 6.07097L179.184 5.95038L178.919 5.66399C179.647 5.70922 180.393 5.33993 180.973 5.55095L180.377 5.75443L181.767 5.71675L181.055 5.46805C181.867 5.21934 181.172 4.75963 182.099 4.96311C181.884 5.00833 182.827 5.00833 183.109 5.355C183.523 5.19674 183.938 5.03094 184.434 5.19674C184.517 5.38515 184.153 5.80719 184.202 5.93531C184.682 5.49066 185.941 5.89763 186.537 5.42283C186.356 5.52834 186.256 5.82227 186.289 5.89009L186.704 5.52834C187.002 5.66399 187.034 5.73183 186.919 5.95792C187.913 6.0785 186.803 5.23442 187.913 5.60371C187.813 5.62632 187.829 5.68661 187.631 5.73183C188.79 5.94284 190.032 5.61878 191.076 5.89763C191.225 6.48547 190.065 5.96546 190.297 6.46286C191.92 6.47793 193.792 6.03328 195.299 6.27445L195.033 6.19155C195.514 5.41529 196.043 6.66634 196.956 6.34982C196.739 6.39503 196.558 6.77186 196.64 6.68896C197.65 6.89244 198.859 6.65127 200.549 6.52315L200.284 6.71157C200.847 6.93766 201.891 6.93766 202.519 7.08085C202.785 6.89244 203.166 6.95273 203.033 6.64373C204.673 7.94754 207.224 6.31967 208.681 7.41246C208.466 7.39738 208.085 7.54811 208.267 7.56318L209.906 7.48782C209.922 7.13361 209.791 7.26173 209.558 6.97534C209.84 6.78693 210.337 6.65881 210.735 6.68896C209.94 6.86229 210.519 7.23912 210.751 7.45013C210.735 7.34463 210.9 7.23158 210.916 7.12607C211.479 7.79682 211.331 6.44025 212.292 6.94519L212.159 7.11853C212.606 7.06578 213.086 6.86229 213.517 6.96027C213.533 7.37477 213.004 7.10346 212.837 7.42753C213.467 7.46521 214.394 6.79447 214.792 7.24666C214.477 7.32956 214.097 7.29941 213.781 7.38231C214.213 7.90986 214.328 7.79682 214.759 7.90986L214.726 7.89478L215.702 8.20378L215.487 8.05306C216.714 7.09592 217.16 8.01537 218.518 7.4426C217.21 7.98522 218.187 7.79682 217.905 8.23393C218.122 8.38467 218.468 8.56552 218.303 8.67861C218.965 8.36204 219.015 9.0403 219.943 8.58061C219.91 8.73135 220.472 8.64843 220.192 8.99511C220.887 8.94237 220.158 8.73135 220.291 8.55797C221.516 8.1661 222.361 9.37943 224.117 8.84437C225.491 8.68608 225.938 8.22639 227.213 8.09073C227.495 8.35449 226.65 8.58061 226.65 8.58061C227.181 8.85191 227.66 8.85946 228.34 8.75391C228.157 8.867 228.224 8.98756 228.34 9.16094C228.837 9.16848 228.919 8.67107 229.433 8.94237C229.251 9.09311 228.986 9.33424 228.67 9.46989C229.3 9.39452 229.979 9.17595 230.625 9.10058C230.658 9.36442 230.096 9.44733 229.797 9.59045C230.509 9.53772 231.585 9.52263 232 9.14585L231.652 8.96493C231.901 8.97247 231.603 9.31915 231.388 9.37196C230.675 9.62818 230.658 9.16094 230.692 9.0102L231.155 8.95746C231.155 8.07566 229.433 8.93483 228.621 8.80672L229.267 8.22639L228.175 8.65598C228.075 8.4826 228.108 8.12842 228.571 8.07566C228.125 7.71391 227.942 8.24148 227.594 7.85711C227.561 7.79682 227.611 7.77421 227.66 7.75159L226.982 7.87972C227.163 7.75913 227.097 7.43507 227.412 7.56318C226.535 7.11099 225.508 7.85711 225.326 7.3597L225.359 7.29941C223.802 7.36723 225.011 7.73652 223.669 8.15857L223.454 6.97534L223.106 7.41246C222.957 7.38231 222.675 7.32202 222.824 7.14114C222.129 7.39738 222.824 7.34463 222.377 7.6084C221.848 7.12607 220.307 7.6084 220.456 6.87737C220.042 7.19389 221.037 7.20897 220.158 7.37477C220.274 6.58344 219.214 7.41999 218.701 7.00548C219.082 6.62867 219.611 6.89998 219.114 6.47793C218.42 7.11099 217.889 6.20662 217.277 6.28199C217.012 6.81707 215.968 6.38749 214.958 6.47793C215.09 6.30459 213.318 6.01068 212.523 5.73937L212.59 5.64893C212.192 6.18402 211.331 6.01068 210.635 6.0785C210.785 5.75443 210.966 5.63385 211.38 5.51327L210.751 5.46805C210.536 5.63385 210.304 5.70922 209.874 5.73937L210.188 5.34747C209.343 5.30978 208.333 5.70168 207.373 5.355C207.174 5.73183 207.803 6.47793 206.594 6.64373C206.627 6.43272 206.727 6.0785 207.041 6.01821C206.941 6.04082 206.627 6.1614 206.478 6.06343L207.058 5.7469C206.627 5.55849 206.693 6.01821 206.329 5.95792C206.444 5.66399 206.13 5.72429 206.263 5.49819C206.379 5.47559 206.561 5.64139 206.743 5.54342C206.329 5.46052 205.866 5.24949 205.782 5.00833C205.766 5.18167 205.633 5.40022 205.303 5.41529C204.474 5.37762 205.154 5.03847 204.722 4.85759C204.44 5.04601 203.994 4.7973 203.828 5.23442C203.579 5.21181 203.613 5.00833 203.563 4.88021C203.066 5.03847 201.543 4.78977 201.857 5.29471L201.957 5.33239C201.94 5.33993 201.907 5.33993 201.873 5.34747C200.316 5.67907 199.058 4.88774 197.6 4.97064L197.65 4.81992C196.773 4.92543 195.779 4.78223 195.083 5.05354C194.835 5.03847 194.586 4.74455 194.753 4.57122C194.09 4.63904 193.957 4.7973 193.112 4.48831C193.824 4.27729 192.963 4.24714 193.824 4.34512C193.047 4.15671 192.93 3.908 191.92 4.24714C192.335 3.89293 191.44 3.72713 191.026 3.81003L191.522 4.11903C191.059 4.14163 190.695 4.08134 190.313 4.02105L190.678 3.53872C189.154 2.81522 187.316 4.39788 186.306 3.31263C185.759 3.63669 187.167 3.60654 186.637 3.9909C185.875 3.88539 185.262 3.12421 185.014 3.10914C184.02 2.77754 183.805 3.77989 182.745 3.53872C182.844 3.72713 182.844 4.20193 181.966 4.33004C181.204 4.22454 181.204 3.53118 181.735 3.41814C181.934 3.4106 182 3.47089 181.983 3.53118C182.248 3.47843 182.612 3.41814 182.347 3.21465L182.198 3.38799C181.85 3.1845 180.774 3.14683 181.105 2.86798C180.476 3.00363 180.774 3.14683 181.188 3.25987C180.244 2.95088 179.615 3.16943 178.637 2.94334C178.77 3.04885 178.87 3.2674 178.721 3.25987C177.263 2.95841 177.975 3.56133 176.931 3.58394C176.418 3.28248 177.295 2.95088 176.203 3.12421C175.623 2.90565 176.186 2.64188 176.468 2.51376C175.442 2.80768 174.762 2.19723 174.231 2.10679L174.762 1.98621C174.448 2.05404 174.199 2.03896 173.951 2.02389L174.149 2.39318C173.867 2.31781 173.619 2.30274 173.668 2.15201C173.321 2.37057 173.768 2.75493 173.09 3.04131C172.742 2.83783 171.863 3.17697 171.831 2.69464C173.022 2.92073 171.797 2.2123 172.857 2.18969C172.642 2.23491 172.394 2.21984 172.129 2.14448C172.096 2.09172 172.195 2.0465 172.278 2.02389C171.201 1.54156 171.615 2.52883 170.406 2.45347C170.622 2.19723 170.24 1.93345 170.026 1.97868C170.505 2.00882 170.157 2.43839 169.678 2.61927C168.948 2.37057 168.799 2.73232 168.403 2.6871L168.849 2.80768C168.634 3.07146 168.254 3.00363 167.707 3.07146C167.707 2.86044 168.22 2.95088 168.055 2.84537C167.359 3.29002 166.796 2.31781 165.884 2.6042C165.538 2.40825 165.951 2.09925 165.62 1.97114C164.609 2.28767 164.659 1.5717 163.615 1.82794C163.832 2.19723 163.898 2.10679 163.136 2.43839L164.808 2.24245L163.665 2.73232C164.162 2.75493 164.742 2.5439 165.023 2.61174C164.476 2.89058 164.544 2.80014 164.709 3.1016C164.146 2.5439 163.317 3.37292 162.605 2.98102L162.788 2.09172C161.678 1.6546 160.635 2.47608 159.144 2.20477L159.608 2.3781C159.342 2.72478 158.664 2.39318 158.151 2.5213C158.25 2.22738 157.952 2.10679 157.769 1.91838C157.753 2.13694 156.66 1.85809 156.428 2.45347L155.815 2.03896C154.606 1.83548 154.292 2.83783 153.132 2.70218C153.53 2.39318 153.033 2.15955 153.844 1.95606C153.447 1.94099 153.099 1.87316 153.065 2.07665C152.867 1.8807 151.924 2.4384 151.592 2.14448C151.41 2.27259 151.311 2.58159 150.88 2.53637C150.846 2.47608 150.896 2.39318 150.896 2.39318C150.88 2.53637 150.184 2.56652 150.516 2.91319C149.422 1.95606 147.136 2.8529 146.176 2.05404C145.298 2.14448 144.255 2.21984 143.477 2.23491C143.543 2.14448 143.493 2.08418 143.642 2.12187C142.598 1.82794 142.897 2.96595 141.704 2.64188C141.125 2.15201 142.383 2.39318 142.003 2.20477C141.92 1.22503 140.512 2.31781 139.734 1.72997L139.932 1.67721C139.32 1.33808 138.359 2.02389 137.332 1.94099C137.332 1.94099 137.382 1.85809 137.349 1.79026C136.603 2.28013 135.262 2.42333 134.268 2.55144C134.599 2.17462 134.732 2.35549 134.566 1.9636C134.119 2.00882 134.666 2.58913 133.771 2.6871C133.49 2.47608 132.86 2.28013 132.811 1.86563L133.655 1.85809C133.258 1.31546 132.579 1.85809 132.132 1.76012L132.198 1.52649C130.906 1.58678 130.873 2.17462 129.498 2.11433L129.631 2.2952C128.852 2.86798 129.018 1.95606 128.256 2.3781L128.041 1.78273C127.544 1.91084 126.285 2.34043 125.391 2.461C125.904 2.02389 126.948 1.78273 127.61 1.53403C127.113 1.51141 125.938 1.5717 125.673 1.86563C125.871 1.80534 126.12 1.66214 126.318 1.75258C125.706 2.21984 124.911 2.45347 123.933 2.44593C124.149 1.29285 121.416 2.16709 120.704 1.27025C118.965 1.69983 117.259 1.09691 115.222 1.17227C115.967 2.06911 114.626 1.20242 114.775 2.12187C114.311 2.18215 114.129 2.16709 114.079 2.10679L112.638 1.55663C112.291 1.29285 113.085 1.35315 113.036 1.14213C111.992 1.08184 112.589 0.757768 111.893 0.516602C112.042 0.848205 111.545 0.991398 110.949 0.863278L111.794 1.28532C110.386 1.78273 110.518 0.516602 109.078 1.00647L109.525 0.712549C108.779 0.878352 106.759 0.735159 106.08 1.4888C105.947 1.38329 105.749 1.13459 106.08 1.06676C104.274 0.991398 102.171 1.92592 100.747 1.49634L100.863 1.27025C100.532 1.33808 100.316 1.70736 99.8856 1.4888C99.9023 1.39837 100.002 1.26271 99.8526 1.24764C99.6869 1.33054 99.0079 1.66214 98.5441 1.53403L98.892 1.27025C97.1198 1.00647 96.2751 1.94099 94.8509 2.12187C94.7846 1.45865 93.3934 1.27025 92.6812 1.17227L92.6977 1.0743C90.6607 1.02154 89.3191 1.70736 87.4808 2.03143C86.222 1.35315 83.5059 1.86563 81.5681 1.52649C81.8663 1.63953 81.6013 2.0465 81.2866 2.12187C80.8229 2.01635 80.1439 2.63434 80.1108 2.02389L80.2763 2.03143C79.8458 1.45113 78.968 1.63953 78.2557 1.64707L78.2889 2.44593C76.2353 1.34561 73.5523 3.03378 72.3432 2.06158C71.9457 2.28013 71.3991 2.30274 71.0016 2.5213L70.9354 2.09925C69.6768 2.0465 69.064 2.02389 67.5568 2.20477L67.8053 1.88824C66.944 1.9033 67.0102 3.16189 66.2319 3.22973L65.851 2.6042C64.3603 2.6871 62.7042 2.20477 61.3792 2.84537C61.3792 2.75493 61.3792 2.56652 61.611 2.52883C60.899 2.5439 58.779 2.23491 59.2592 3.09407C59.0938 2.52883 57.7025 3.13175 56.9738 3.43321V3.01117C56.4437 3.58394 56.4604 3.73467 55.566 3.93815C55.3342 3.90047 55.2678 3.61408 55.5991 3.70452C54.7876 3.53118 55.1354 4.1341 54.1583 3.96829L54.4232 3.68191C53.6449 3.69698 53.7441 3.83264 53.4129 4.17178C52.9824 4.36773 51.9224 4.15671 51.6905 3.78742C51.6574 4.02105 51.3261 4.35265 50.8459 4.27729C50.7465 4.14163 50.8789 4.04366 50.9453 3.9909C49.5706 3.78742 49.1896 4.59382 48.1793 4.23961C48.1131 4.10395 48.0304 4.03613 47.9475 3.99844C48.9743 3.94569 49.8024 3.91554 49.7362 3.95323C49.6203 3.56887 48.7591 3.55379 49.256 2.98102C48.6762 3.31263 47.7488 4.00598 46.8875 3.87786C46.8378 3.84018 46.7883 3.81003 46.7386 3.74974L46.8048 3.70452C46.606 3.67438 46.457 3.72713 46.3244 3.80249C46.0429 3.75728 45.8772 3.72713 45.6289 3.73467C45.4301 3.42567 44.6186 3.63669 44.2046 3.65177C44.3867 4.06627 43.8236 4.04366 44.4364 4.35265C44.3536 4.33004 44.5027 4.2999 44.7677 4.26222C44.8174 4.24714 44.9001 4.23207 44.9333 4.20947L44.9167 4.24714C45.1817 4.217 45.5295 4.17932 45.9269 4.14163C45.6786 4.37527 45.397 4.58628 44.867 4.3828C44.7345 4.65412 44.6021 4.94803 44.5192 5.09123C43.7574 4.5486 42.5649 4.31497 42.2833 3.96829C41.1075 4.2999 39.385 4.34512 38.8882 5.1892C38.5734 5.31732 38.3913 4.99325 38.2091 4.88021C38.3913 4.78977 38.6398 4.78223 38.706 4.66165C38.0767 4.91789 36.6358 4.89528 36.6689 5.46052C35.6752 5.27964 36.9835 4.91789 35.7746 5.09877L35.8739 4.91789C33.108 4.23961 32.5284 6.65127 29.3817 5.75443C29.597 5.80719 29.6964 5.8298 29.7791 5.92024C26.5164 5.67907 23.734 6.94519 20.372 6.46286C19.4776 6.37996 19.5604 6.74171 19.1795 7.05071L18.7655 6.62867L18.1361 7.23158C17.0927 7.73652 15.4034 6.37996 14.1778 7.26173L14.5422 7.53304C13.946 7.54058 12.8363 7.90986 12.7535 7.55565C12.7204 7.61594 12.7369 7.88725 12.4223 7.75913L12.2732 7.5255L11.0973 8.0832C9.93798 8.05305 10.7495 7.15622 9.12644 7.29941C8.5799 7.45767 7.83461 8.18117 8.16585 8.3093C8.41428 8.28667 8.86145 8.37713 9.02707 8.60324L8.56334 8.79163C8.89457 9.47744 8.97738 10.216 10.4845 10.5326C10.6833 10.3592 10.8986 10.1859 11.1139 10.0125L11.5942 10.3064L10.8654 10.4195C11.4782 10.6758 11.5776 10.3743 11.7763 10.1482C11.942 10.314 12.1407 10.4195 12.356 10.4647L12.8529 9.71109C13.1013 9.96731 12.7535 10.2838 13.4325 10.3592C13.6644 10.0125 12.7038 9.80902 13.2669 9.53017C13.8631 9.78646 13.8797 10.0502 14.2441 9.73365C14.4097 9.89948 14.36 10.0276 14.2109 10.1256C14.5422 9.8693 15.3537 9.90703 15.3868 9.52263C16.0493 9.85429 16.8608 9.25887 17.159 9.90703C17.2252 9.73365 17.6889 9.3116 18.0864 9.24378C17.7221 10.103 19.6598 9.12322 19.8751 9.97485C20.0904 9.22122 21.7466 9.46235 22.5582 8.98002C22.525 9.0403 22.4753 9.16094 22.3759 9.13831C22.9722 9.13831 23.2372 9.33424 23.6512 9.43224C23.4524 8.84437 24.264 8.63334 24.5786 8.22639C25.5227 8.71626 24.4794 8.94992 24.9431 9.46235C24.6947 8.99511 25.9202 8.87455 25.5062 8.51278C26.1852 8.80672 26.0361 8.63334 26.533 9.08557C26.3011 8.35449 26.9636 8.91219 27.212 8.42986C28.1395 8.7238 27.7089 9.09311 28.4541 8.79917C28.951 8.97247 28.3217 9.28905 28.3217 9.28905ZM47.9475 6.44025C47.9475 6.44779 47.9475 6.44779 47.9475 6.44779C47.7819 6.4704 47.6329 6.48547 47.5335 6.50054C47.6329 6.48547 47.7488 6.4704 47.9475 6.44025ZM49.6535 6.32721C49.4381 6.32721 49.1731 6.33474 48.9081 6.35735C48.8088 6.21416 48.8253 6.06343 48.991 6.06343C48.9413 6.1614 49.3719 6.22169 49.6535 6.32721ZM45.0658 3.66684C45.3141 3.58394 45.4301 3.6593 45.4964 3.7422C45.3638 3.75728 45.2314 3.78742 45.0326 3.8251C45.0326 3.84018 45.0161 3.86279 45.0161 3.87786C45.0326 3.80249 45.0326 3.72713 45.0658 3.66684Z" fill="#FF6610"/>
<path d="M36.6307 3.30121C36.5975 3.30874 36.581 3.33135 36.5312 3.33888C36.5975 3.36903 36.6637 3.39917 36.7299 3.42179C36.7466 3.37657 36.7631 3.33135 36.7796 3.28613C36.7299 3.28613 36.6802 3.29367 36.6307 3.30121Z" fill="#FF6610"/>
<path d="M193.717 4.34222L193.685 4.32715C193.701 4.34222 193.734 4.36483 193.734 4.39497C193.717 4.37236 193.717 4.3573 193.717 4.34222Z" fill="#FF6610"/>
<path d="M65.319 4.89067L65.3024 4.78516L65.1699 4.88313L65.319 4.89067Z" fill="#FF6610"/>
<path d="M202.584 6.4668C202.584 6.50447 202.6 6.54216 202.665 6.57985C202.683 6.55723 202.633 6.51201 202.584 6.4668Z" fill="#FF6610"/>
<path d="M206.57 6.91895L207.085 7.12242C206.869 7.01692 206.703 6.95662 206.57 6.91895Z" fill="#FF6610"/>
<path d="M209.572 7.42332C209.638 7.35549 209.672 7.30275 209.704 7.25L209.572 7.42332Z" fill="#FF6610"/>
<path d="M159.879 4.58984C159.831 4.58984 159.798 4.58984 159.748 4.60492C159.466 4.66521 159.665 4.6426 159.879 4.58984Z" fill="#FF6610"/>
<path d="M174.956 4.37891C174.775 4.44673 174.608 4.51456 174.427 4.55224C174.675 4.59746 174.874 4.62007 174.956 4.37891Z" fill="#FF6610"/>
<path d="M173.734 4.50703C173.983 4.605 174.198 4.59747 174.43 4.55225C174.215 4.51457 173.967 4.45428 173.734 4.50703Z" fill="#FF6610"/>
<path d="M222.857 8.89417L222.99 8.92427C223.007 8.89417 223.024 8.87908 223.04 8.85645L222.857 8.89417Z" fill="#FF6610"/>
<path d="M223.047 8.86303L223.23 8.83285C223.162 8.82531 223.097 8.81776 223.047 8.86303Z" fill="#FF6610"/>
<path d="M223.633 8.75781L223.236 8.82564C223.352 8.84065 223.501 8.87083 223.633 8.75781Z" fill="#FF6610"/>
<path d="M218.86 8.31348L218.744 8.45667C218.794 8.43412 218.826 8.3813 218.86 8.31348Z" fill="#FF6610"/>
<path d="M217.6 8.23797C217.882 8.29825 218.196 8.62992 218.643 8.5771L218.743 8.46409C218.445 8.66002 217.997 8.01194 217.6 8.23797Z" fill="#FF6610"/>
<path d="M213.267 5.87826L214.259 6.09681C214.144 5.91593 214.012 5.68231 214.508 5.68985C213.398 5.08692 214.607 6.0742 213.267 5.87826Z" fill="#FF6610"/>
<path d="M210.121 5.33677C210.717 5.31416 210.22 5.10313 210.287 5.0127C209.856 5.12574 209.757 5.15589 210.121 5.33677Z" fill="#FF6610"/>
<path d="M186.417 3.46764L186.598 3.09082C186.151 3.11343 186.549 3.23402 186.417 3.46764Z" fill="#FF6610"/>
<path d="M181.279 5.10326L181.627 5.37457L181.942 5.04297L181.279 5.10326Z" fill="#FF6610"/>
<path d="M179.413 2.23857L179.612 2.19336L178.834 2.29133L179.413 2.23857Z" fill="#FF6610"/>
<path d="M139.051 0.671099L139.133 1.1459C139.448 1.07807 139.564 0.542984 139.051 0.671099Z" fill="#FF6610"/>
<path d="M121.557 0.89677C121.375 0.655598 120.895 0.497334 120.58 0.723424C120.978 0.768647 121.358 0.957059 121.557 0.89677Z" fill="#FF6610"/>
<path d="M69.1574 0.919432L69.4886 0.746094L68.8428 0.904357L69.1574 0.919432Z" fill="#FF6610"/>
</svg>
