<svg width="30" height="20" viewBox="0 0 30 20" fill="none" xmlns="http://www.w3.org/2000/svg">
<path d="M10.3109 7.59071C9.65474 6.69085 8.00969 6.11907 6.81925 7.40793C6.08811 8.19531 6.07405 9.41387 6.70208 10.2809L8.04249 12.1228C8.34713 12.5399 7.73785 13.018 7.40509 12.6243L4.4993 9.1889V2.76334C4.4993 1.54478 3.5057 0.452767 2.28714 0.43402C1.0264 0.410586 0 1.42293 0 2.67898V10.6652C0 11.1761 0.17341 11.6729 0.492111 12.0713L5.50695 18.3375C5.76004 18.6562 5.92407 19.1577 5.98032 19.6029C6.00375 19.7904 6.16779 19.9263 6.35526 19.9263H7.10514C7.33011 19.9263 7.50352 19.7435 7.48008 19.5185C7.40509 18.7687 7.12857 17.9578 6.67864 17.4001L1.6638 11.1339C1.55601 11.0027 1.49977 10.834 1.49977 10.6652V2.67898C1.49977 1.69476 2.99953 1.66664 2.99953 2.71179V9.72788L6.02718 13.3601C7.7566 15.4317 10.564 13.2336 9.34542 11.3729C9.33604 11.3589 9.32667 11.3495 9.32198 11.3354L7.88783 9.35763C7.66755 9.05299 7.69099 8.57493 8.05187 8.31248C8.37994 8.07345 8.8533 8.13438 9.1017 8.47651L11.0889 11.2136C11.6841 12.0056 12.0028 12.9664 12.0028 13.9319V19.556C12.0028 19.7622 12.1715 19.931 12.3778 19.931H13.1276C13.3339 19.931 13.5026 19.7622 13.5026 19.556V13.9319C13.5026 12.6337 13.0808 11.3729 12.3028 10.3325L10.3109 7.59071ZM29.9953 2.67898C29.9953 1.42293 28.9689 0.410586 27.7082 0.429333C26.4896 0.44808 25.496 1.5401 25.496 2.75866V9.18421L22.5902 12.6196C22.2575 13.0133 21.6482 12.5399 21.9528 12.1181L23.2932 10.2762C23.9213 9.40918 23.9072 8.18593 23.1761 7.40324C21.9809 6.11907 20.3359 6.68617 19.6844 7.58603L17.6972 10.3231C16.9192 11.3636 16.4974 12.629 16.4974 13.9272V19.5513C16.4974 19.7576 16.6661 19.9263 16.8724 19.9263H17.6222C17.8285 19.9263 17.9972 19.7576 17.9972 19.5513V13.9272C17.9972 12.9617 18.3159 12.001 18.9111 11.2089L20.8983 8.47183C21.1467 8.12969 21.6154 8.06408 21.9481 8.30779C22.3137 8.57025 22.3371 9.0483 22.1122 9.35294L20.678 11.3308C20.6686 11.3448 20.6593 11.3542 20.6546 11.3682C19.4313 13.2289 22.2434 15.4317 23.9728 13.3554L27.0005 9.72319V2.7071C27.0005 1.66195 28.5002 1.69007 28.5002 2.67429V10.6605C28.5002 10.8293 28.444 10.998 28.3362 11.1292L23.3214 17.3954C22.8761 17.9532 22.5949 18.764 22.5199 19.5138C22.4965 19.7388 22.6699 19.9216 22.8949 19.9216H23.6447C23.8322 19.9216 23.9963 19.7857 24.0197 19.5982C24.0759 19.1483 24.2353 18.6515 24.493 18.3328L29.5079 12.0666C29.8266 11.6682 30 11.1714 30 10.6605L29.9953 2.67898Z" fill="white"/>
</svg>
