<svg width="31" height="31" viewBox="0 0 31 31" fill="none" xmlns="http://www.w3.org/2000/svg">
<path d="M22.2156 16.8813C24.2346 15.0362 25.3443 12.5387 25.3443 9.84605C25.3443 3.74095 19.6032 -0.894149 13.2765 0.395851C9.37715 1.19085 6.3024 4.30345 5.62426 8.14355C5.03859 11.4811 6.20993 14.6462 8.52177 16.8138C10.0014 18.2013 10.8876 20.2414 10.8876 22.2738V24.914C10.4329 24.959 10.0784 25.334 10.0784 25.7915C10.0784 26.2789 10.4791 26.6689 10.98 26.6689C11.4039 28.664 13.2302 30.1791 15.4111 30.1791C17.5919 30.1791 19.4183 28.664 19.8344 26.6614H20.0193C20.5202 26.6614 20.921 26.2715 20.921 25.784C20.921 25.2965 20.5202 24.9065 20.0193 24.9065H19.9269V22.2663C19.9654 22.0788 19.5416 19.3263 22.2156 16.8813ZM9.77787 15.5387C7.79739 13.6937 6.9343 11.1061 7.40438 8.43605C7.95922 5.30095 10.4637 2.75835 13.6464 2.11335C18.8326 1.05585 23.5333 4.84345 23.5333 9.84605C23.5333 12.0436 22.624 14.0912 20.9749 15.5987C19.2487 17.1813 18.2238 19.2738 18.1236 21.3889H16.3127V15.3886L19.7727 10.3335C20.0502 9.92855 19.9346 9.38105 19.5184 9.11105C19.1023 8.84105 18.5398 8.95355 18.2623 9.35855L17.8 10.0336L15.8041 9.05855C15.5498 8.93855 15.2492 8.93855 14.9949 9.05855L12.999 10.0336L12.5367 9.35855C12.2593 8.95355 11.6967 8.84855 11.2806 9.11105C10.8644 9.38105 10.7566 9.92855 11.0263 10.3335L14.4863 15.3886V21.3889H12.6369C12.4365 19.1838 11.3962 17.0463 9.77787 15.5387ZM15.4111 13.5362L14.024 11.5036L15.4111 10.8286L16.7982 11.5036L15.4111 13.5362ZM15.4111 28.424C14.232 28.424 13.2302 27.6889 12.8603 26.6689H17.9695C17.5919 27.6889 16.5901 28.424 15.4111 28.424ZM12.7062 24.9065V23.1514H18.1236V24.9065H12.7062Z" fill="white"/>
<path d="M4.0141 15.2383L2.44975 16.1158C2.01821 16.3558 1.8718 16.8958 2.11839 17.3159C2.3727 17.7359 2.91983 17.8784 3.35137 17.6384L4.91572 16.7608C5.34727 16.5208 5.49368 15.9808 5.24709 15.5608C4.99279 15.1408 4.44565 14.9908 4.0141 15.2383Z" fill="white"/>
<path d="M26.8152 4.4534L28.3796 3.5759C28.8111 3.3359 28.9575 2.7958 28.711 2.3758C28.4644 1.9558 27.9095 1.8133 27.478 2.0533L25.9136 2.9308C25.4821 3.1709 25.3357 3.7109 25.5823 4.1309C25.8289 4.5509 26.3837 4.6934 26.8152 4.4534Z" fill="white"/>
<path d="M4.91572 2.9308L3.35137 2.0533C2.91983 1.8133 2.36499 1.9558 2.11839 2.3758C1.8718 2.7958 2.01821 3.3359 2.44975 3.5759L4.0141 4.4534C4.44565 4.6934 5.00049 4.5509 5.24709 4.1309C5.49368 3.7109 5.34727 3.1709 4.91572 2.9308Z" fill="white"/>
<path d="M25.9053 16.7613L27.4697 17.6389C27.9012 17.8789 28.4561 17.7363 28.7027 17.3163C28.9492 16.8963 28.8028 16.3564 28.3713 16.1164L26.8069 15.2388C26.3754 14.9988 25.8206 15.1414 25.574 15.5614C25.3274 15.9814 25.4738 16.5138 25.9053 16.7613Z" fill="white"/>
<path d="M0 9.84576C0 10.3333 0.40072 10.7233 0.90162 10.7233H2.76651C3.26741 10.7233 3.66813 10.3333 3.66813 9.84576C3.66813 9.35826 3.26741 8.96826 2.76651 8.96826H0.90162C0.40072 8.96826 0 9.35826 0 9.84576Z" fill="white"/>
<path d="M29.9225 8.96826H28.0576C27.5567 8.96826 27.156 9.35826 27.156 9.84576C27.156 10.3333 27.5567 10.7233 28.0576 10.7233H29.9225C30.4234 10.7233 30.8241 10.3333 30.8241 9.84576C30.8241 9.35826 30.4234 8.96826 29.9225 8.96826Z" fill="white"/>
</svg>
