<svg width="209" height="64" viewBox="0 0 209 64" fill="none" xmlns="http://www.w3.org/2000/svg">
<path d="M203.188 12.0268C201.537 12.0268 200.155 11.4522 199.042 10.311C197.928 9.16984 197.375 7.73731 197.375 6.0215C197.375 4.3057 197.928 2.87316 199.042 1.7239C200.155 0.574632 201.529 0 203.188 0C204.838 0 206.22 0.574632 207.334 1.7239C208.439 2.87316 209 4.3057 209 6.0215C209 7.73731 208.447 9.16984 207.334 10.311C206.22 11.4522 204.838 12.0268 203.188 12.0268ZM203.188 9.87397C204.175 9.87397 204.996 9.50977 205.659 8.77326C206.323 8.03676 206.647 7.12221 206.647 6.0215C206.647 4.9208 206.315 3.99815 205.659 3.26165C204.996 2.52515 204.175 2.15285 203.188 2.15285C202.2 2.15285 201.379 2.52515 200.716 3.26165C200.052 3.99815 199.729 4.9208 199.729 6.0215C199.729 7.12221 200.06 8.04486 200.716 8.77326C201.371 9.50977 202.2 9.87397 203.188 9.87397Z" fill="white" fill-opacity="0.8"/>
<path d="M18.4716 56.751C13.2121 56.751 8.8212 54.93 5.29114 51.2961C1.76108 47.6621 0 43.1136 0 37.6506C0 32.1875 1.76108 27.6309 5.29114 23.9808C8.8212 20.3307 13.2121 18.5016 18.4716 18.5016C23.7312 18.5016 28.122 20.3307 31.6521 23.9808C35.1821 27.6309 36.9432 32.1875 36.9432 37.6506C36.9432 43.1136 35.1821 47.6621 31.6521 51.2961C28.122 54.9381 23.7312 56.751 18.4716 56.751ZM18.4716 49.9202C21.6147 49.9202 24.2287 48.7547 26.3293 46.4238C28.43 44.0929 29.4803 41.1712 29.4803 37.6668C29.4803 34.1623 28.43 31.2325 26.3293 28.8773C24.2287 26.5302 21.6068 25.3486 18.4716 25.3486C15.3285 25.3486 12.7145 26.5221 10.6139 28.8773C8.51321 31.2244 7.46288 34.1542 7.46288 37.6668C7.46288 41.1712 8.51321 44.0929 10.6139 46.4238C12.7145 48.7547 15.3364 49.9202 18.4716 49.9202Z" fill="white" fill-opacity="0.8"/>
<path d="M50.1622 49.5114H44.8781V21.8284H53.2775C56.4847 21.8284 59.0084 22.6366 60.8487 24.2532C62.6889 25.8427 63.609 28.0385 63.609 30.8405C63.609 33.6155 62.6758 35.8113 60.8092 37.4278C58.9427 39.0444 56.4321 39.8526 53.2775 39.8526H50.1622V49.5114ZM58.1672 30.8405C58.1672 29.5473 57.7334 28.5504 56.8659 27.8499C56.0246 27.1225 54.8416 26.7588 53.3169 26.7588H50.1622V34.9626H53.3169C54.8679 34.9626 56.0641 34.6124 56.9053 33.9119C57.7466 33.1845 58.1672 32.1607 58.1672 30.8405Z" fill="white" fill-opacity="0.8"/>
<path d="M73.4603 49.5114H68.1762V21.8284H77.0882C80.0325 21.8284 82.3985 22.5962 84.1862 24.1319C86.0001 25.6407 86.9071 27.6479 86.9071 30.1535C86.9071 31.8778 86.4996 33.3731 85.6847 34.6393C84.8697 35.9056 83.6998 36.8755 82.1751 37.5491L88.4844 49.5114H82.7666L77.2853 38.9231H73.4603V49.5114ZM81.4653 30.396C81.4653 29.2913 81.0841 28.4157 80.3217 27.7691C79.5856 27.0956 78.5735 26.7588 77.2853 26.7588H73.4603V34.0331H77.2853C78.5735 34.0331 79.5856 33.7098 80.3217 33.0632C81.0841 32.3897 81.4653 31.5006 81.4653 30.396Z" fill="white" fill-opacity="0.8"/>
<path d="M104.774 49.9155C100.857 49.9155 97.5841 48.5684 94.9552 45.8742C92.3263 43.153 91.0119 39.7583 91.0119 35.6901C91.0119 31.6218 92.3263 28.2271 94.9552 25.506C97.5841 22.7848 100.857 21.4242 104.774 21.4242C108.691 21.4242 111.964 22.7848 114.593 25.506C117.222 28.2271 118.536 31.6218 118.536 35.6901C118.536 39.7583 117.222 43.153 114.593 45.8742C111.964 48.5684 108.691 49.9155 104.774 49.9155ZM104.774 44.8234C107.114 44.8234 109.059 43.9613 110.61 42.237C112.188 40.4858 112.976 38.3035 112.976 35.6901C112.976 33.0767 112.188 30.8944 110.61 29.1431C109.059 27.3919 107.114 26.5163 104.774 26.5163C102.434 26.5163 100.476 27.3919 98.8986 29.1431C97.3475 30.8944 96.572 33.0767 96.572 35.6901C96.572 38.3035 97.3475 40.4858 98.8986 42.237C100.476 43.9613 102.434 44.8234 104.774 44.8234Z" fill="white" fill-opacity="0.8"/>
<path d="M128.839 49.5114H123.437V21.8284H140.314V26.7588H128.839V33.7098H139.25V38.6402H128.839V49.5114Z" fill="white" fill-opacity="0.8"/>
<path d="M157.147 49.9155C153.23 49.9155 149.957 48.5684 147.328 45.8742C144.699 43.153 143.384 39.7583 143.384 35.6901C143.384 31.6218 144.699 28.2271 147.328 25.506C149.957 22.7848 153.23 21.4242 157.147 21.4242C161.064 21.4242 164.337 22.7848 166.966 25.506C169.594 28.2271 170.909 31.6218 170.909 35.6901C170.909 39.7583 169.594 43.153 166.966 45.8742C164.337 48.5684 161.064 49.9155 157.147 49.9155ZM157.147 44.8234C159.486 44.8234 161.432 43.9613 162.983 42.237C164.56 40.4858 165.349 38.3035 165.349 35.6901C165.349 33.0767 164.56 30.8944 162.983 29.1431C161.432 27.3919 159.486 26.5163 157.147 26.5163C154.807 26.5163 152.848 27.3919 151.271 29.1431C149.72 30.8944 148.945 33.0767 148.945 35.6901C148.945 38.3035 149.72 40.4858 151.271 42.237C152.848 43.9613 154.807 44.8234 157.147 44.8234Z" fill="white" fill-opacity="0.8"/>
<path d="M181.094 49.5114H175.809V21.8284H184.721C187.666 21.8284 190.032 22.5962 191.819 24.1319C193.633 25.6407 194.54 27.6479 194.54 30.1535C194.54 31.8778 194.133 33.3731 193.318 34.6393C192.503 35.9056 191.333 36.8755 189.808 37.5491L196.118 49.5114H190.4L184.919 38.9231H181.094V49.5114ZM189.099 30.396C189.099 29.2913 188.717 28.4157 187.955 27.7691C187.219 27.0956 186.207 26.7588 184.919 26.7588H181.094V34.0331H184.919C186.207 34.0331 187.219 33.7098 187.955 33.0632C188.717 32.3897 189.099 31.5006 189.099 30.396Z" fill="white" fill-opacity="0.8"/>
<path d="M205.704 49.5114H200.301V21.8284H205.704V49.5114Z" fill="white" fill-opacity="0.8"/>
<path d="M28.3352 15.9521L0 48.8923L14.6178 46.3915L21.8595 59.3086L28.3352 15.9521Z" fill="#2B2C28"/>
<path d="M14.6178 46.3915L28.3352 15.9521L21.8595 59.3086L14.6178 46.3915Z" fill="white" fill-opacity="0.8"/>
<path d="M45.8591 61.4462H44.6755V52.6993H51.3912V61.4462H50.2075V53.7719H45.8591V61.4462Z" fill="white" fill-opacity="0.8"/>
<path d="M59.2962 58.5731C59.2962 59.4329 59.0345 60.148 58.5112 60.7183C57.9962 61.2887 57.3483 61.5739 56.5675 61.5739C56.1937 61.5739 55.8448 61.4972 55.5209 61.344C55.2052 61.1823 54.9311 60.9524 54.6986 60.6545V64H53.5647V55.7128H54.5366L54.6736 56.5428C54.9062 56.2363 55.1845 56.0022 55.5084 55.8405C55.8324 55.6702 56.1854 55.5851 56.5675 55.5851C57.3483 55.5851 57.9962 55.8703 58.5112 56.4407C59.0345 57.011 59.2962 57.7218 59.2962 58.5731ZM56.3931 56.6194C55.8864 56.6194 55.4628 56.8067 55.1222 57.1813C54.7816 57.5558 54.6113 58.0198 54.6113 58.5731C54.6113 59.1349 54.7816 59.6031 55.1222 59.9777C55.4628 60.3523 55.8864 60.5396 56.3931 60.5396C56.8998 60.5396 57.3192 60.3523 57.6515 59.9777C57.9921 59.6031 58.1623 59.1349 58.1623 58.5731C58.1623 58.0198 57.9921 57.5558 57.6515 57.1813C57.3192 56.8067 56.8998 56.6194 56.3931 56.6194Z" fill="white" fill-opacity="0.8"/>
<path d="M63.3453 55.5851C64.176 55.5851 64.8654 55.8703 65.4136 56.4407C65.9702 57.011 66.2484 57.7261 66.2484 58.5859C66.2484 59.4457 65.9702 60.1607 65.4136 60.7311C64.8654 61.2929 64.176 61.5739 63.3453 61.5739C62.5147 61.5739 61.8211 61.2929 61.2646 60.7311C60.7164 60.1607 60.4423 59.4457 60.4423 58.5859C60.4423 57.7261 60.7164 57.011 61.2646 56.4407C61.8211 55.8703 62.5147 55.5851 63.3453 55.5851ZM63.3453 56.6194C62.8386 56.6194 62.415 56.8067 62.0745 57.1813C61.7422 57.5558 61.5761 58.024 61.5761 58.5859C61.5761 59.1392 61.7422 59.6031 62.0745 59.9777C62.415 60.3523 62.8386 60.5396 63.3453 60.5396C63.852 60.5396 64.2715 60.3565 64.6038 59.9905C64.9443 59.6159 65.1146 59.1477 65.1146 58.5859C65.1146 58.024 64.9443 57.5558 64.6038 57.1813C64.2715 56.8067 63.852 56.6194 63.3453 56.6194Z" fill="white" fill-opacity="0.8"/>
<path d="M74.766 58.5859C74.766 59.4627 74.467 60.182 73.869 60.7439C73.2709 61.2972 72.5109 61.5739 71.5888 61.5739V64H70.5422V61.5739C69.6202 61.5739 68.8602 61.2972 68.2621 60.7439C67.6641 60.182 67.365 59.4627 67.365 58.5859C67.365 57.7091 67.6641 56.9897 68.2621 56.4279C68.8602 55.866 69.6202 55.5851 70.5422 55.5851V53.0696H71.5888V55.5851C72.5192 55.5851 73.2792 55.866 73.869 56.4279C74.467 56.9812 74.766 57.7005 74.766 58.5859ZM73.6821 58.5859C73.6821 57.99 73.4869 57.509 73.0965 57.143C72.7061 56.7684 72.2035 56.5811 71.5888 56.5811V60.5779C72.2035 60.5779 72.7061 60.3948 73.0965 60.0288C73.4869 59.6542 73.6821 59.1733 73.6821 58.5859ZM68.449 58.5859C68.449 59.1733 68.6442 59.6542 69.0346 60.0288C69.4333 60.3948 69.9359 60.5779 70.5422 60.5779V56.5811C69.9359 56.5811 69.4333 56.7684 69.0346 57.143C68.6442 57.5175 68.449 57.9985 68.449 58.5859Z" fill="white" fill-opacity="0.8"/>
<path d="M78.7982 55.5851C79.6288 55.5851 80.3183 55.8703 80.8665 56.4407C81.423 57.011 81.7013 57.7261 81.7013 58.5859C81.7013 59.4457 81.423 60.1607 80.8665 60.7311C80.3183 61.2929 79.6288 61.5739 78.7982 61.5739C77.9675 61.5739 77.274 61.2929 76.7174 60.7311C76.1692 60.1607 75.8951 59.4457 75.8951 58.5859C75.8951 57.7261 76.1692 57.011 76.7174 56.4407C77.274 55.8703 77.9675 55.5851 78.7982 55.5851ZM78.7982 56.6194C78.2915 56.6194 77.8679 56.8067 77.5273 57.1813C77.1951 57.5558 77.0289 58.024 77.0289 58.5859C77.0289 59.1392 77.1951 59.6031 77.5273 59.9777C77.8679 60.3523 78.2915 60.5396 78.7982 60.5396C79.3049 60.5396 79.7244 60.3565 80.0566 59.9905C80.3972 59.6159 80.5675 59.1477 80.5675 58.5859C80.5675 58.024 80.3972 57.5558 80.0566 57.1813C79.7244 56.8067 79.3049 56.6194 78.7982 56.6194Z" fill="white" fill-opacity="0.8"/>
<path d="M88.9729 58.5731C88.9729 59.4329 88.7113 60.148 88.188 60.7183C87.673 61.2887 87.0251 61.5739 86.2443 61.5739C85.8705 61.5739 85.5216 61.4972 85.1977 61.344C84.882 61.1823 84.6079 60.9524 84.3753 60.6545V64H83.2415V55.7128H84.2134L84.3504 56.5428C84.583 56.2363 84.8613 56.0022 85.1852 55.8405C85.5092 55.6702 85.8622 55.5851 86.2443 55.5851C87.0251 55.5851 87.673 55.8703 88.188 56.4407C88.7113 57.011 88.9729 57.7218 88.9729 58.5731ZM86.0698 56.6194C85.5632 56.6194 85.1395 56.8067 84.799 57.1813C84.4584 57.5558 84.2881 58.0198 84.2881 58.5731C84.2881 59.1349 84.4584 59.6031 84.799 59.9777C85.1395 60.3523 85.5632 60.5396 86.0698 60.5396C86.5765 60.5396 86.996 60.3523 87.3283 59.9777C87.6688 59.6031 87.8391 59.1349 87.8391 58.5731C87.8391 58.0198 87.6688 57.5558 87.3283 57.1813C86.996 56.8067 86.5765 56.6194 86.0698 56.6194Z" fill="white" fill-opacity="0.8"/>
<path d="M95.5514 61.4462H94.4924V57.309L91.5768 61.4462H90.5177V55.7128H91.5768V59.85L94.4924 55.7128H95.5514V61.4462Z" fill="white" fill-opacity="0.8"/>
<path d="M101.577 59.9139L102.249 60.68C101.934 60.978 101.589 61.2035 101.215 61.3568C100.841 61.5015 100.434 61.5739 99.9941 61.5739C99.1801 61.5739 98.4907 61.2844 97.9259 60.7056C97.361 60.1267 97.0786 59.4201 97.0786 58.5859C97.0786 57.7431 97.3486 57.0323 97.8885 56.4534C98.4284 55.8745 99.0887 55.5851 99.8695 55.5851C100.65 55.5851 101.311 55.8745 101.851 56.4534C102.391 57.0323 102.661 57.7431 102.661 58.5859C102.661 58.6625 102.656 58.7434 102.648 58.8285C102.64 58.9051 102.631 58.9817 102.623 59.0583H98.2373C98.3287 59.501 98.5364 59.8628 98.8603 60.1437C99.1926 60.4246 99.5664 60.5651 99.9817 60.5651C100.289 60.5651 100.571 60.514 100.829 60.4119C101.095 60.3012 101.344 60.1352 101.577 59.9139ZM99.8695 56.5939C99.4791 56.5939 99.1344 56.7301 98.8354 57.0025C98.5364 57.2749 98.3412 57.6282 98.2498 58.0623H101.514C101.423 57.6282 101.223 57.2749 100.916 57.0025C100.609 56.7301 100.26 56.5939 99.8695 56.5939Z" fill="white" fill-opacity="0.8"/>
<path d="M109.13 61.4462H107.997V58.9945H105.231V61.4462H104.097V55.7128H105.231V57.9985H107.997V55.7128H109.13V61.4462Z" fill="white" fill-opacity="0.8"/>
<path d="M112.489 56.7088H110.421V55.7128H115.691V56.7088H113.623V61.4462H112.489V56.7088Z" fill="white" fill-opacity="0.8"/>
<path d="M122.315 61.4462H121.343L121.206 60.6162C120.973 60.9226 120.695 61.161 120.371 61.3312C120.047 61.493 119.694 61.5739 119.312 61.5739C118.531 61.5739 117.879 61.2887 117.356 60.7183C116.841 60.148 116.584 59.4371 116.584 58.5859C116.584 57.7261 116.841 57.011 117.356 56.4407C117.879 55.8703 118.531 55.5851 119.312 55.5851C119.694 55.5851 120.047 55.6702 120.371 55.8405C120.695 56.0022 120.973 56.2363 121.206 56.5428L121.343 55.7128H122.315V61.4462ZM117.717 58.5859C117.717 59.1392 117.884 59.6031 118.216 59.9777C118.556 60.3523 118.98 60.5396 119.487 60.5396C119.993 60.5396 120.417 60.3523 120.758 59.9777C121.098 59.6031 121.268 59.1392 121.268 58.5859C121.268 58.024 121.098 57.5558 120.758 57.1813C120.417 56.8067 119.993 56.6194 119.487 56.6194C118.98 56.6194 118.556 56.8067 118.216 57.1813C117.884 57.5558 117.717 58.024 117.717 58.5859Z" fill="white" fill-opacity="0.8"/>
<path d="M130.252 63.3105H129.168V61.4462H124.258V55.7128H125.392V60.4502H128.121V55.7128H129.255V60.4502H130.252V63.3105Z" fill="white" fill-opacity="0.8"/>
<path d="M136.435 61.4462H135.376V57.309L132.46 61.4462H131.401V55.7128H132.46V59.85L135.376 55.7128H136.435V61.4462Z" fill="white" fill-opacity="0.8"/>
<path d="M138.149 57.4877C138.149 56.9344 138.356 56.5002 138.772 56.1853C139.187 55.8703 139.735 55.7128 140.416 55.7128H143.07V61.4462H141.949V59.2626H140.753L139.195 61.4462H137.912L139.644 59.1222C139.17 59.02 138.801 58.8285 138.535 58.5476C138.277 58.2666 138.149 57.9134 138.149 57.4877ZM139.307 57.4877C139.307 57.7601 139.407 57.973 139.606 58.1262C139.814 58.2794 140.088 58.356 140.429 58.356H141.949V56.6067H140.429C140.088 56.6067 139.814 56.6875 139.606 56.8493C139.407 57.0025 139.307 57.2153 139.307 57.4877Z" fill="white" fill-opacity="0.8"/>
<path d="M152.776 61.4462H151.717V57.309L148.801 61.4462H147.742V55.7128H148.801V59.85L151.717 55.7128H152.776V61.4462Z" fill="white" fill-opacity="0.8"/>
<path d="M159.034 58.9562H158.586V61.4462H157.452V55.7128H158.586V57.9346H159.034C159.366 57.9346 159.653 57.8538 159.894 57.692C160.143 57.5303 160.392 57.2579 160.641 56.8748L161.401 55.7128H162.622L161.862 56.8748C161.638 57.2409 161.435 57.5431 161.252 57.7814C161.069 58.0198 160.891 58.2156 160.716 58.3688L162.884 61.4462H161.526L159.769 58.8796C159.653 58.9051 159.532 58.9264 159.408 58.9434C159.292 58.9519 159.167 58.9562 159.034 58.9562Z" fill="white" fill-opacity="0.8"/>
<path d="M169.416 61.4462H168.444L168.307 60.6162C168.074 60.9226 167.796 61.161 167.472 61.3312C167.148 61.493 166.795 61.5739 166.413 61.5739C165.632 61.5739 164.98 61.2887 164.457 60.7183C163.942 60.148 163.684 59.4371 163.684 58.5859C163.684 57.7261 163.942 57.011 164.457 56.4407C164.98 55.8703 165.632 55.5851 166.413 55.5851C166.795 55.5851 167.148 55.6702 167.472 55.8405C167.796 56.0022 168.074 56.2363 168.307 56.5428L168.444 55.7128H169.416V61.4462ZM164.818 58.5859C164.818 59.1392 164.984 59.6031 165.317 59.9777C165.657 60.3523 166.081 60.5396 166.587 60.5396C167.094 60.5396 167.518 60.3523 167.858 59.9777C168.199 59.6031 168.369 59.1392 168.369 58.5859C168.369 58.024 168.199 57.5558 167.858 57.1813C167.518 56.8067 167.094 56.6194 166.587 56.6194C166.081 56.6194 165.657 56.8067 165.317 57.1813C164.984 57.5558 164.818 58.024 164.818 58.5859Z" fill="white" fill-opacity="0.8"/>
<path d="M177.091 58.5731C177.091 59.4329 176.829 60.148 176.306 60.7183C175.791 61.2887 175.143 61.5739 174.362 61.5739C173.988 61.5739 173.639 61.4972 173.315 61.344C173 61.1823 172.726 60.9524 172.493 60.6545V64H171.359V55.7128H172.331L172.468 56.5428C172.701 56.2363 172.979 56.0022 173.303 55.8405C173.627 55.6702 173.98 55.5851 174.362 55.5851C175.143 55.5851 175.791 55.8703 176.306 56.4407C176.829 57.011 177.091 57.7218 177.091 58.5731ZM174.188 56.6194C173.681 56.6194 173.257 56.8067 172.917 57.1813C172.576 57.5558 172.406 58.0198 172.406 58.5731C172.406 59.1349 172.576 59.6031 172.917 59.9777C173.257 60.3523 173.681 60.5396 174.188 60.5396C174.694 60.5396 175.114 60.3523 175.446 59.9777C175.787 59.6031 175.957 59.1349 175.957 58.5731C175.957 58.0198 175.787 57.5558 175.446 57.1813C175.114 56.8067 174.694 56.6194 174.188 56.6194Z" fill="white" fill-opacity="0.8"/>
<path d="M183.532 59.6585C183.532 60.2203 183.329 60.6587 182.922 60.9737C182.515 61.2887 181.966 61.4462 181.277 61.4462H178.636V55.7128H179.769V57.8708H181.277C181.966 57.8708 182.515 58.0283 182.922 58.3433C183.329 58.6582 183.532 59.0966 183.532 59.6585ZM182.398 59.6585C182.398 59.4116 182.29 59.2201 182.074 59.0839C181.867 58.9392 181.584 58.8668 181.227 58.8668H179.769V60.4502H181.227C181.584 60.4502 181.867 60.3821 182.074 60.2459C182.29 60.1011 182.398 59.9053 182.398 59.6585Z" fill="white" fill-opacity="0.8"/>
<path d="M188.879 59.9139L189.552 60.68C189.236 60.978 188.891 61.2035 188.518 61.3568C188.144 61.5015 187.737 61.5739 187.297 61.5739C186.483 61.5739 185.793 61.2844 185.228 60.7056C184.664 60.1267 184.381 59.4201 184.381 58.5859C184.381 57.7431 184.651 57.0323 185.191 56.4534C185.731 55.8745 186.391 55.5851 187.172 55.5851C187.953 55.5851 188.613 55.8745 189.153 56.4534C189.693 57.0323 189.963 57.7431 189.963 58.5859C189.963 58.6625 189.959 58.7434 189.951 58.8285C189.942 58.9051 189.934 58.9817 189.926 59.0583H185.54C185.631 59.501 185.839 59.8628 186.163 60.1437C186.495 60.4246 186.869 60.5651 187.284 60.5651C187.592 60.5651 187.874 60.514 188.131 60.4119C188.397 60.3012 188.646 60.1352 188.879 59.9139ZM187.172 56.5939C186.782 56.5939 186.437 56.7301 186.138 57.0025C185.839 57.2749 185.644 57.6282 185.552 58.0623H188.817C188.725 57.6282 188.526 57.2749 188.219 57.0025C187.911 56.7301 187.562 56.5939 187.172 56.5939Z" fill="white" fill-opacity="0.8"/>
<path d="M197.131 58.5731C197.131 59.4329 196.869 60.148 196.346 60.7183C195.831 61.2887 195.183 61.5739 194.402 61.5739C194.028 61.5739 193.679 61.4972 193.355 61.344C193.04 61.1823 192.766 60.9524 192.533 60.6545V64H191.399V55.7128H192.371L192.508 56.5428C192.741 56.2363 193.019 56.0022 193.343 55.8405C193.667 55.6702 194.02 55.5851 194.402 55.5851C195.183 55.5851 195.831 55.8703 196.346 56.4407C196.869 57.011 197.131 57.7218 197.131 58.5731ZM194.228 56.6194C193.721 56.6194 193.297 56.8067 192.957 57.1813C192.616 57.5558 192.446 58.0198 192.446 58.5731C192.446 59.1349 192.616 59.6031 192.957 59.9777C193.297 60.3523 193.721 60.5396 194.228 60.5396C194.734 60.5396 195.154 60.3523 195.486 59.9777C195.827 59.6031 195.997 59.1349 195.997 58.5731C195.997 58.0198 195.827 57.5558 195.486 57.1813C195.154 56.8067 194.734 56.6194 194.228 56.6194Z" fill="white" fill-opacity="0.8"/>
<path d="M204.008 61.4462H203.036L202.899 60.6162C202.667 60.9226 202.388 61.161 202.065 61.3312C201.741 61.493 201.388 61.5739 201.005 61.5739C200.225 61.5739 199.573 61.2887 199.049 60.7183C198.534 60.148 198.277 59.4371 198.277 58.5859C198.277 57.7261 198.534 57.011 199.049 56.4407C199.573 55.8703 200.225 55.5851 201.005 55.5851C201.388 55.5851 201.741 55.6702 202.065 55.8405C202.388 56.0022 202.667 56.2363 202.899 56.5428L203.036 55.7128H204.008V61.4462ZM199.411 58.5859C199.411 59.1392 199.577 59.6031 199.909 59.9777C200.25 60.3523 200.673 60.5396 201.18 60.5396C201.687 60.5396 202.11 60.3523 202.451 59.9777C202.791 59.6031 202.962 59.1392 202.962 58.5859C202.962 58.024 202.791 57.5558 202.451 57.1813C202.11 56.8067 201.687 56.6194 201.18 56.6194C200.673 56.6194 200.25 56.8067 199.909 57.1813C199.577 57.5558 199.411 58.024 199.411 58.5859Z" fill="white" fill-opacity="0.8"/>
</svg>
