<svg width="244" height="22" viewBox="0 0 244 22" fill="none" xmlns="http://www.w3.org/2000/svg">
<path d="M243.331 16.6788C243.526 16.4721 243.615 15.9349 243.243 15.9763L242.728 16.8302L243.331 16.6788Z" fill="#FF6610"/>
<path d="M241.498 14.652C240.966 15.0102 240.257 15.6988 240.293 16.5529C240.948 15.7678 240.948 16.1396 241.674 15.1892C242.047 15.148 242.189 15.5749 242.047 15.8917C242.242 15.685 242.526 16.1809 242.881 15.6438C242.632 14.8862 242.066 14.7623 241.302 15.2305C241.232 15.024 241.427 14.8173 241.498 14.652Z" fill="#FF6610"/>
<path d="M207.678 8.10889L207.874 8.24662C207.838 8.17775 207.767 8.13642 207.678 8.10889Z" fill="#FF6610"/>
<path d="M186.395 5.24585C186.555 5.24585 186.644 5.14944 186.661 5.08057C186.501 5.10812 186.36 5.16322 186.395 5.24585Z" fill="#FF6610"/>
<path d="M182.862 3.90987C182.934 3.9512 183.004 3.96496 183.075 3.99251C183.004 3.90987 182.915 3.85478 182.862 3.90987Z" fill="#FF6610"/>
<path d="M207.678 8.10971L207.165 7.75159C207.076 8.04083 207.431 7.99952 207.678 8.10971Z" fill="#FF6610"/>
<path d="M236.19 16.0295C236.315 16.0019 236.438 15.9329 236.562 15.8503C236.456 15.8779 236.349 15.8917 236.243 15.8917C236.243 15.9467 236.226 15.9881 236.19 16.0295Z" fill="#FF6610"/>
<path d="M217.261 8.56592L217.438 8.5797C217.51 8.48329 217.597 8.37309 217.669 8.23535L217.261 8.56592Z" fill="#FF6610"/>
<path d="M224.495 9.51609C224.335 9.46099 224.087 10.2048 223.946 10.5353C224.123 10.2323 224.265 10.1083 224.425 10.067C224.459 9.91551 224.476 9.75023 224.495 9.51609Z" fill="#FF6610"/>
<path d="M235.459 12.7121L235.691 12.6432C235.638 12.657 235.549 12.6845 235.459 12.7121Z" fill="#FF6610"/>
<path d="M212.131 7.7385C212.148 7.6283 212.148 7.51811 212.131 7.46301C212.096 7.55944 212.096 7.65585 212.131 7.7385Z" fill="#FF6610"/>
<path d="M10.2711 16.8016C10.2534 16.7466 10.2358 16.719 10.2358 16.6638C10.2006 16.7603 10.2182 16.8154 10.2711 16.8016Z" fill="#FF6610"/>
<path d="M0.92227 14.7084L1.02865 14.6394C0.975458 14.5017 0.94 14.3502 0.904541 14.2124L0.92227 14.7084Z" fill="#FF6610"/>
<path d="M176.268 2.32539C176.286 2.33917 176.286 2.33917 176.304 2.33917C176.48 2.27029 176.374 2.27029 176.268 2.32539Z" fill="#FF6610"/>
<path d="M114.04 0.768677C114.749 1.45737 112.905 1.66396 113.987 2.42152C113.881 2.13228 114.927 1.22321 114.04 0.768677Z" fill="#FF6610"/>
<path d="M236.053 15.9054C235.947 15.8917 235.859 15.8917 235.753 15.8641C235.877 15.9054 235.966 15.9192 236.053 15.9054Z" fill="#FF6610"/>
<path d="M113.987 2.43689L114.092 2.51964C114.039 2.47826 114.022 2.46446 113.987 2.43689Z" fill="#FF6610"/>
<path d="M160.63 1.77454C160.649 1.91227 160.702 2.02247 160.755 2.11888C160.755 2.03624 160.736 1.93982 160.63 1.77454Z" fill="#FF6610"/>
<path d="M172.096 3.52264L171.83 3.39868C171.936 3.48132 172.026 3.50887 172.096 3.52264Z" fill="#FF6610"/>
<path d="M154.517 2.5188C154.357 2.44993 154.323 2.33974 154.091 2.43615C154.11 2.47748 154.127 2.50503 154.144 2.53258C154.251 2.43615 154.357 2.39484 154.517 2.5188Z" fill="#FF6610"/>
<path d="M148.25 2.20044C148.286 2.25552 148.32 2.31062 148.356 2.36572C148.427 2.35195 148.499 2.33817 148.552 2.3244L148.25 2.20044Z" fill="#FF6610"/>
<path d="M28.5106 13.4693C28.3333 13.2764 28.1915 13.056 28.0674 12.8219C28.2801 13.3591 27.447 13.6897 28.5106 13.4693Z" fill="#FF6610"/>
<path d="M236.311 15.6029C236.222 15.782 236.132 15.8784 236.045 15.8922C236.115 15.8922 236.186 15.8922 236.258 15.8784C236.292 15.782 236.328 15.6856 236.311 15.6029Z" fill="#FF6610"/>
<path d="M153.786 8.60669L152.812 8.44141C153.078 8.52406 153.431 8.57915 153.786 8.60669Z" fill="#FF6610"/>
<path d="M72.476 8.72986L72.2632 8.84006C72.3519 8.84006 72.4228 8.81251 72.476 8.72986Z" fill="#FF6610"/>
<path d="M149.888 8.38503C149.728 8.09578 149.551 7.9305 149.375 7.82031C149.321 7.8754 149.285 7.9305 149.25 8.01315L149.888 8.38503Z" fill="#FF6610"/>
<path d="M22.1641 19.0459C23.086 18.9357 22.3414 17.9991 22.3946 17.4068C23.4229 16.9661 23.086 18.0679 23.6002 18.5225C24.2207 18.1506 24.5044 17.1589 25.0363 17.1313C25.1072 17.2967 25.2313 17.3379 25.1604 17.5582C25.6923 16.663 27.3057 17.2002 27.9085 16.0708C27.9971 16.1534 28.0503 16.236 28.0856 16.3049C27.8375 15.8228 27.6957 15.3132 27.6248 14.9551C28.0326 14.8724 28.2453 14.2113 28.5643 14.8449C28.2985 14.8587 28.3517 15.1341 28.2808 15.3545L28.6531 15.0102C29.2559 15.8917 28.1389 15.4234 28.2985 16.1121C29.0609 15.6851 29.8763 14.7623 30.5855 14.9275C30.9225 15.8228 29.1494 15.4647 30.1956 16.1534L29.1141 15.9468C30.2132 17.2829 28.4758 15.933 29.5396 17.3793C30.9046 17.4481 30.9046 16.6906 32.2698 16.787C32.4471 16.236 32.0039 16.0432 32.1812 15.4923C33.8655 14.3353 34.1669 17.6272 35.2838 16.2223C35.5143 15.5611 35.3902 14.3766 36.507 14.8724L36.3653 15.9606C37.6596 15.9055 36.7731 14.3628 38.2624 14.9C38.1028 15.3408 37.3227 15.3683 37.5532 15.4785C38.5991 16.1947 38.0495 14.8036 38.7055 14.7209L39.0425 15.63C40.3721 15.3132 41.7372 14.4455 43.2265 14.1011C43.1911 14.3904 42.996 14.7072 43.4038 14.9551C45.2298 14.294 47.5169 14.6383 49.4495 14.9964L50.0168 14.1149C50.1764 14.1011 50.3891 14.4455 50.2296 14.6245C50.9919 14.8587 50.1764 14.1149 50.4778 13.7568C50.8855 13.6604 51.0983 14.1562 50.8855 14.4317C52.038 13.619 54.254 12.586 55.7257 13.3022L55.4951 13.5639C56.5943 13.7843 56.417 11.7871 57.4985 12.462L57.339 12.6136C59.6615 12.7788 62.0727 11.8285 63.9698 12.9028C64.1471 11.7183 66.2745 13.2334 66.2213 11.6081C67.622 12.2968 67.2851 12.6273 69.1822 13.013C69.6786 13.0406 69.785 11.9386 70.37 11.7321L70.4941 12.5722L71.2033 11.6219L71.7528 12.5998L72.2847 12.3381C72.0542 12.3105 71.7707 11.9937 71.7707 11.7458C72.6038 11.2913 74.0045 12.2004 74.0577 12.6273L76.0788 11.7871C76.0611 12.1315 75.7242 12.2692 75.476 12.5034C76.5043 11.5805 75.7774 13.3849 76.7171 12.5309C76.5575 12.3519 76.7348 12.0213 76.7348 11.856C77.3021 12.3381 78.4546 12.2692 79.3056 12.0075L79.1992 12.5998C80.7594 12.6549 82.4436 12.1315 84.1811 12.0351C83.5251 11.8009 83.5783 10.7817 84.0924 10.6577L84.3761 11.5392C84.6598 10.9607 83.8088 11.2362 84.4293 10.52C85.0853 10.5888 84.9612 11.5117 84.6066 11.8285L85.369 11.4703C85.4399 11.7321 85.2626 11.8836 85.2448 12.2279C85.5285 11.6494 86.6809 13.0543 87.071 12.0488L87.1419 12.3105C88.8794 12.2141 89.6418 11.856 91.06 11.7734C91.0246 11.002 91.5919 11.1535 91.9819 10.52C93.0457 10.7403 94.2513 11.3051 95.4924 11.1949C96.3611 10.7817 95.7051 10.5337 96.0775 10.0654C96.1838 10.7679 97.4425 10.6577 96.8221 11.1949C98.329 11.0296 98.7369 10.9883 100.634 10.3547C100.421 10.0792 100.173 9.95525 100.279 9.70731C100.616 9.58336 101.077 9.98278 101.042 10.3134L100.953 10.396C103.063 9.26656 105.988 12.2968 107.637 10.7679L107.548 10.8505C108.133 10.5751 108.718 10.3271 109.303 10.0654C110.119 10.1894 108.825 10.6026 109.445 11.0296C111.325 9.84505 112.459 11.1811 114.019 10.396C115.26 12.4758 118.345 10.2307 119.994 11.553L119.905 11.0571C120.331 10.5751 120.42 11.3326 120.739 11.4428C120.686 11.0571 120.278 11.002 120.544 10.7403C124.143 10.1481 127.972 11.3739 131.642 11.9662C132.99 12.1315 132.476 9.44562 134.142 10.6577L133.628 11.553C136.394 10.5337 139.177 11.7321 141.89 10.8643C141.713 11.0709 141.695 11.3464 141.447 11.3326C141.978 12.0075 143.521 11.4153 143.556 10.8781C143.964 10.9469 143.627 11.3739 143.876 11.6494C144.425 12.0488 145.347 10.8368 145.596 11.5117C145.649 11.6219 145.417 11.7183 145.311 11.7734C145.702 11.4566 147.014 11.8973 146.712 11.126C147.688 11.5254 148.644 10.823 149.406 11.3188C149.992 10.4924 151.092 11.8285 151.339 10.6301C151.179 11.8698 153.024 11.7321 153.697 11.1811C153.45 11.5392 154.212 11.6081 153.927 12.1039C154.655 12.1315 155.329 11.9386 155.257 11.2913C156.464 12.8477 158.024 10.2445 158.608 12.1866C160.806 11.6356 162.828 11.2913 164.795 11.1122C164.601 12.3519 162.651 11.1122 162.598 12.4207C164.478 12.0075 165.647 11.002 167.42 11.4153C167.863 11.6081 167.1 11.9386 166.906 12.1453C168.786 11.7458 170.416 12.4207 172.119 11.9111C172.1 12.0213 171.906 12.1315 171.728 12.2141C172.047 12.2004 172.455 12.462 172.473 11.8973L172.136 12.0213C171.728 11.1535 173.607 10.4373 173.732 10.0103C172.987 11.5668 175.291 10.5613 174.156 12.5171C174.388 12.4345 174.671 12.1866 174.671 11.8009C174.973 11.9386 175.044 12.1728 174.671 12.5722C175.859 12.3656 175.523 11.7321 176.568 11.8422C176.533 12.1177 176.302 12.2004 176.161 12.5171C176.746 12.0351 177.349 11.553 178.2 11.856C178.128 12.0213 178.2 12.2417 177.934 12.2141C179.441 12.2692 180.699 11.0296 182.277 11.6907C181.621 12.8339 182.774 12.1315 182.721 13.1645L183.66 12.9441L183.377 12.4207C184.156 12.5034 184.954 11.8285 185.575 12.2141L184.937 12.586L186.425 12.5171L185.663 12.0626C186.532 11.6081 185.788 10.7679 186.78 11.1398C186.55 11.2224 187.56 11.2224 187.862 11.856C188.305 11.5668 188.749 11.2637 189.279 11.5668C189.369 11.9111 188.979 12.6824 189.032 12.9166C189.545 12.1039 190.893 12.8477 191.531 11.98C191.337 12.1728 191.231 12.71 191.265 12.8339L191.71 12.1728C192.029 12.4207 192.063 12.5447 191.94 12.9579C193.004 13.1783 191.816 11.6356 193.004 12.3105C192.897 12.3519 192.915 12.462 192.702 12.5447C193.943 12.9304 195.273 12.3381 196.39 12.8477C196.55 13.9221 195.307 12.9717 195.556 13.8807C197.293 13.9083 199.298 13.0956 200.911 13.5364L200.626 13.3849C201.141 11.9662 201.708 14.2526 202.684 13.6741C202.453 13.7568 202.258 14.4455 202.346 14.294C203.428 14.6658 204.722 14.2251 206.531 13.9909L206.247 14.3353C206.85 14.7485 207.967 14.7485 208.64 15.0102C208.925 14.6658 209.332 14.776 209.189 14.2113C210.945 16.5942 213.676 13.619 215.236 15.6162C215.006 15.5887 214.598 15.8641 214.793 15.8917L216.547 15.754C216.565 15.1066 216.424 15.3408 216.175 14.8174C216.477 14.473 217.009 14.2389 217.435 14.294C216.583 14.6107 217.203 15.2994 217.452 15.6851C217.435 15.4923 217.612 15.2857 217.629 15.0928C218.231 16.3187 218.073 13.8394 219.101 14.7623L218.959 15.079C219.438 14.9826 219.951 14.6107 220.413 14.7898C220.43 15.5474 219.863 15.0515 219.685 15.6438C220.359 15.7126 221.352 14.4868 221.777 15.3132C221.441 15.4647 221.034 15.4096 220.696 15.5611C221.158 16.5253 221.281 16.3187 221.743 16.5253L221.707 16.4977L222.752 17.0625L222.522 16.787C223.835 15.0377 224.312 16.7181 225.766 15.6713C224.366 16.663 225.412 16.3187 225.111 17.1176C225.342 17.3931 225.713 17.7236 225.536 17.9303C226.245 17.3517 226.298 18.5913 227.292 17.7511C227.256 18.0266 227.858 17.8751 227.558 18.5087C228.303 18.4123 227.522 18.0266 227.664 17.7098C228.976 16.9936 229.88 19.2111 231.76 18.2332C233.231 17.9439 233.71 17.1038 235.074 16.8559C235.376 17.3379 234.472 17.7511 234.472 17.7511C235.04 18.247 235.553 18.2608 236.281 18.0679C236.085 18.2746 236.157 18.4949 236.281 18.8118C236.813 18.8256 236.9 17.9165 237.451 18.4123C237.256 18.6878 236.972 19.1285 236.634 19.3764C237.309 19.2387 238.035 18.8392 238.727 18.7015C238.762 19.1837 238.16 19.3352 237.841 19.5968C238.603 19.5004 239.755 19.4728 240.199 18.7842L239.827 18.4535C240.093 18.4673 239.773 19.1009 239.543 19.1974C238.78 19.6657 238.762 18.8118 238.798 18.5363L239.295 18.4399C239.295 16.8283 237.451 18.3985 236.581 18.1644L237.273 17.1038L236.104 17.8889C235.997 17.572 236.032 16.9247 236.528 16.8283C236.051 16.1672 235.855 17.1313 235.483 16.4289C235.447 16.3187 235.5 16.2774 235.553 16.236L234.827 16.4702C235.021 16.2498 234.95 15.6576 235.287 15.8917C234.348 15.0653 233.249 16.4289 233.054 15.5198L233.09 15.4096C231.423 15.5336 232.717 16.2085 231.281 16.9798L231.051 14.8174L230.678 15.6162C230.519 15.5611 230.217 15.4509 230.376 15.1204C229.631 15.5887 230.376 15.4923 229.897 15.9743C229.331 15.0928 227.682 15.9743 227.841 14.6383C227.398 15.2168 228.462 15.2443 227.522 15.5474C227.646 14.1011 226.511 15.63 225.962 14.8724C226.37 14.1838 226.937 14.6796 226.405 13.9083C225.661 15.0653 225.093 13.4124 224.438 13.5502C224.154 14.5281 223.037 13.743 221.956 13.9083C222.097 13.5915 220.2 13.0543 219.349 12.5585L219.421 12.3932C218.995 13.3711 218.073 13.0543 217.328 13.1783C217.488 12.586 217.682 12.3656 218.125 12.1453L217.452 12.0626C217.222 12.3656 216.973 12.5034 216.513 12.5585L216.849 11.8422C215.945 11.7734 214.864 12.4896 213.835 11.856C213.623 12.5447 214.296 13.9083 213.001 14.2113C213.037 13.8256 213.144 13.1783 213.48 13.0681C213.374 13.1094 213.037 13.3298 212.878 13.1507L213.499 12.5722C213.037 12.2279 213.108 13.0681 212.718 12.9579C212.842 12.4207 212.505 12.5309 212.648 12.1177C212.771 12.0764 212.967 12.3794 213.161 12.2004C212.718 12.0488 212.222 11.6632 212.133 11.2224C212.116 11.5392 211.973 11.9386 211.62 11.9662C210.732 11.8973 211.46 11.2775 210.998 10.9469C210.696 11.2913 210.219 10.8368 210.041 11.6356C209.775 11.5943 209.811 11.2224 209.757 10.9883C209.225 11.2775 207.595 10.823 207.931 11.7458L208.038 11.8147C208.02 11.8285 207.984 11.8285 207.948 11.8422C206.282 12.4483 204.935 11.002 203.374 11.1535L203.428 10.8781C202.489 11.0709 201.424 10.8092 200.68 11.3051C200.414 11.2775 200.148 10.7403 200.326 10.4236C199.617 10.5475 199.475 10.8368 198.57 10.272C199.332 9.88637 198.411 9.83127 199.332 10.0103C198.5 9.66599 198.375 9.21146 197.293 9.83127C197.738 9.18391 196.78 8.88089 196.337 9.0324L196.868 9.59713C196.371 9.63844 195.982 9.52826 195.573 9.41807L195.965 8.53655C194.332 7.21427 192.365 10.1068 191.284 8.12335C190.699 8.71561 192.206 8.66051 191.638 9.36297C190.822 9.17014 190.167 7.779 189.901 7.75145C188.837 7.14541 188.607 8.97732 187.472 8.53655C187.578 8.88089 187.578 9.74864 186.638 9.98278C185.823 9.78996 185.823 8.52277 186.391 8.31618C186.603 8.3024 186.674 8.41259 186.657 8.52277C186.94 8.42636 187.33 8.31618 187.046 7.94429L186.887 8.26108C186.514 7.88919 185.362 7.82033 185.716 7.3107C185.043 7.55862 185.362 7.82033 185.805 8.02692C184.794 7.46221 184.122 7.86164 183.075 7.44843C183.217 7.64127 183.323 8.0407 183.164 8.02692C181.604 7.47598 182.366 8.57787 181.248 8.6192C180.699 8.06825 181.638 7.46221 180.469 7.779C179.848 7.37956 180.45 6.89748 180.752 6.66334C179.654 7.2005 178.926 6.08483 178.358 5.91955L178.926 5.69918C178.59 5.82314 178.324 5.79559 178.058 5.76804L178.27 6.44295C177.968 6.30522 177.702 6.27767 177.756 6.0022C177.383 6.40163 177.862 7.10409 177.136 7.62749C176.763 7.2556 175.823 7.87541 175.789 6.9939C177.064 7.40711 175.753 6.11238 176.887 6.07106C176.657 6.15371 176.391 6.12616 176.108 5.98842C176.072 5.892 176.178 5.80936 176.267 5.76804C175.114 4.88653 175.557 6.69087 174.263 6.55314C174.494 6.08483 174.086 5.60276 173.856 5.6854C174.369 5.74049 173.997 6.52559 173.483 6.85616C172.703 6.40163 172.543 7.06276 172.119 6.98013L172.596 7.2005C172.366 7.68258 171.959 7.55862 171.374 7.68258C171.374 7.29692 171.923 7.46221 171.746 7.26937C171.002 8.08202 170.399 6.30522 169.423 6.82862C169.052 6.4705 169.495 5.90577 169.139 5.67163C168.058 6.25012 168.111 4.94162 166.994 5.40992C167.226 6.08483 167.296 5.91955 166.481 6.52559L168.271 6.16748L167.047 7.06277C167.579 7.10409 168.2 6.71842 168.501 6.8424C167.916 7.35201 167.988 7.18672 168.164 7.73768C167.562 6.71842 166.675 8.23353 165.913 7.51729L166.108 5.892C164.92 5.09313 163.803 6.59446 162.207 6.09861L162.705 6.4154C162.42 7.04899 161.694 6.44295 161.144 6.67711C161.251 6.13993 160.932 5.91955 160.736 5.57521C160.719 5.97465 159.548 5.46502 159.299 6.55314L158.644 5.79559C157.35 5.4237 157.013 7.2556 155.772 7.00768C156.198 6.44295 155.666 6.01597 156.534 5.64408C156.109 5.61653 155.736 5.49257 155.7 5.86446C155.487 5.50635 154.478 6.5256 154.123 5.98842C153.929 6.22257 153.822 6.7873 153.361 6.70465C153.325 6.59446 153.378 6.44295 153.378 6.44295C153.361 6.70465 152.616 6.75975 152.971 7.39333C151.801 5.64408 149.353 7.28315 148.325 5.82314C147.386 5.98842 146.269 6.12616 145.436 6.15371C145.507 5.98842 145.453 5.87822 145.613 5.9471C144.496 5.40992 144.815 7.48976 143.539 6.89748C142.918 6.0022 144.265 6.44295 143.858 6.09861C143.769 4.30803 142.262 6.30522 141.429 5.23086L141.642 5.13445C140.986 4.51464 139.957 5.76804 138.858 5.61653C138.858 5.61653 138.911 5.46502 138.876 5.34106C138.078 6.23634 136.642 6.49805 135.578 6.7322C135.933 6.04351 136.075 6.37408 135.897 5.65786C135.419 5.74049 136.004 6.80107 135.046 6.98013C134.745 6.59446 134.071 6.23634 134.018 5.4788L134.922 5.46502C134.497 4.47332 133.77 5.46502 133.291 5.28596L133.362 4.85898C131.979 4.96917 131.944 6.04351 130.472 5.93332L130.614 6.26389C129.781 7.3107 129.958 5.64408 129.142 6.4154L128.912 5.32729C128.38 5.56143 127.033 6.34654 126.075 6.56691C126.625 5.76804 127.742 5.32729 128.451 4.87276C127.919 4.83143 126.66 4.94162 126.377 5.4788C126.59 5.36861 126.855 5.1069 127.068 5.27219C126.412 6.12616 125.561 6.55314 124.515 6.53936C124.746 4.43199 121.82 6.02975 121.058 4.39067C119.196 5.17578 117.37 4.07388 115.19 4.21162C115.987 5.85069 114.551 4.26671 114.711 5.9471C114.214 6.05728 114.019 6.02975 113.966 5.91955L112.424 4.91407C112.051 4.43199 112.902 4.54219 112.849 4.15652C111.732 4.04633 112.371 3.45406 111.626 3.01331C111.786 3.61935 111.254 3.88105 110.615 3.64689L111.52 4.41822C110.013 5.32729 110.154 3.01331 108.612 3.90859L109.091 3.37142C108.293 3.67444 106.13 3.41274 105.403 4.79011C105.261 4.59727 105.048 4.14275 105.403 4.01878C103.47 3.88105 101.219 5.58898 99.6942 4.80388L99.8183 4.39067C99.4637 4.51464 99.2332 5.18955 98.7722 4.79011C98.7901 4.62482 98.8963 4.3769 98.7369 4.34935C98.5596 4.50086 97.8327 5.1069 97.3361 4.87276L97.7086 4.39067C95.8115 3.90859 94.9073 5.61653 93.3826 5.9471C93.3117 4.73501 91.8224 4.39067 91.06 4.21162L91.0777 4.03256C88.897 3.93614 87.461 5.18955 85.4931 5.78181C84.1456 4.54219 81.238 5.4788 79.1637 4.85898C79.4829 5.06558 79.1992 5.80936 78.8623 5.9471C78.3659 5.75427 77.639 6.88371 77.6036 5.76804L77.7808 5.78181C77.3199 4.72125 76.3802 5.06558 75.6178 5.07935L75.6533 6.53936C73.455 4.52841 70.5828 7.61372 69.2885 5.83691C68.863 6.23634 68.2779 6.27767 67.8524 6.67711L67.7815 5.90577C66.4341 5.80936 65.7781 5.76804 64.1647 6.09861L64.4308 5.52012C63.5087 5.54766 63.5796 7.84786 62.7465 7.97184L62.3387 6.82862C60.743 6.98013 58.9701 6.09861 57.5517 7.26937C57.5517 7.10409 57.5517 6.75975 57.7999 6.69087C57.0376 6.71842 54.7683 6.15371 55.2823 7.7239C55.1052 6.69087 53.6159 7.79278 52.8358 8.34372V7.57239C52.2684 8.6192 52.2862 8.89467 51.3288 9.26656C51.0806 9.19769 51.0096 8.67428 51.3642 8.83957C50.4955 8.52277 50.8678 9.62468 49.8218 9.32165L50.1054 8.79826C49.2722 8.82579 49.3785 9.07373 49.0239 9.69354C48.563 10.0517 47.4283 9.66599 47.1801 8.99108C47.1446 9.41807 46.79 10.0241 46.276 9.88637C46.1696 9.63844 46.3113 9.4594 46.3824 9.36297C44.9108 8.99108 44.503 10.4649 43.4215 9.8175C43.3506 9.56958 43.262 9.44562 43.1733 9.37675C44.2725 9.28034 45.159 9.22524 45.0881 9.29411C44.964 8.59165 44.0421 8.5641 44.574 7.51729C43.9534 8.12335 42.9606 9.39052 42.0386 9.15636C41.9854 9.0875 41.9323 9.0324 41.8791 8.92222L41.95 8.83957C41.7372 8.78448 41.5777 8.88089 41.4358 9.01863C41.1344 8.93599 40.9571 8.88089 40.6912 8.89467C40.4784 8.32994 39.6097 8.71561 39.1666 8.74316C39.3615 9.50071 38.7587 9.45939 39.4147 10.0241C39.326 9.98278 39.4856 9.9277 39.7693 9.85882C39.8225 9.83127 39.9111 9.80372 39.9466 9.76241L39.9288 9.83127C40.2125 9.77619 40.5848 9.70731 41.0103 9.63844C40.7444 10.0654 40.443 10.4511 39.8756 10.0792C39.7338 10.5751 39.592 11.1122 39.5033 11.3739C38.6879 10.3822 37.4112 9.95523 37.1098 9.32165C35.8512 9.9277 34.0073 10.0103 33.4754 11.553C33.1385 11.7871 32.9435 11.1949 32.7485 10.9883C32.9435 10.823 33.2095 10.8092 33.2804 10.5888C32.6067 11.0571 31.0642 11.0158 31.0998 12.0488C30.036 11.7183 31.4365 11.0571 30.1424 11.3877L30.2486 11.0571C27.2879 9.8175 26.6674 14.2251 23.2988 12.586C23.5293 12.6824 23.6357 12.7238 23.7243 12.889C20.2317 12.4483 17.2531 14.7623 13.6541 13.8807C12.6967 13.7292 12.7854 14.3904 12.3776 14.9551L11.9344 14.1838L11.2606 15.2857C10.1437 16.2085 8.33532 13.7292 7.02336 15.3408L7.4134 15.8366C6.77515 15.8504 5.58728 16.5253 5.49864 15.8779C5.46318 15.9881 5.48091 16.484 5.14406 16.2498L4.98449 15.8228L3.72571 16.8421C2.48467 16.787 3.3534 15.1479 1.61593 15.4096C1.03087 15.6989 0.233051 17.0211 0.587636 17.2553C0.853575 17.2139 1.33226 17.3793 1.50956 17.7925L1.01314 18.1368C1.36772 19.3902 1.45637 20.74 3.06973 21.3185C3.28248 21.0017 3.51297 20.685 3.74344 20.3681L4.25759 20.9053L3.47751 21.112C4.13349 21.5803 4.23986 21.0293 4.45262 20.616C4.6299 20.9191 4.84266 21.112 5.07314 21.1946L5.60501 19.8172C5.87096 20.2855 5.49864 20.8639 6.22555 21.0017C6.47375 20.3681 5.44545 19.9962 6.04825 19.4866C6.6865 19.955 6.70423 20.437 7.09427 19.8585C7.27156 20.1615 7.21839 20.3957 7.05882 20.5748C7.4134 20.1064 8.28213 20.1753 8.31759 19.4728C9.02676 20.0789 9.89549 18.9907 10.2146 20.1753C10.2855 19.8585 10.782 19.0871 11.2075 18.9632C10.8174 20.5334 12.8917 18.7428 13.1222 20.2993C13.3527 18.9219 15.1256 19.3626 15.9944 18.4811C15.9589 18.5913 15.9057 18.8118 15.7993 18.7704C16.4376 18.7704 16.7213 19.1285 17.1645 19.3076C16.9517 18.2332 17.8205 17.8475 18.1573 17.1038C19.1679 17.9991 18.051 18.4261 18.5474 19.3626C18.2815 18.5087 19.5934 18.2884 19.1502 17.6272C19.8771 18.1644 19.7174 17.8475 20.2493 18.674C20.0012 17.3379 20.7104 18.3572 20.9762 17.4757C21.9691 18.0129 21.5081 18.6878 22.3059 18.1506C22.8378 18.4673 22.1641 19.0459 22.1641 19.0459ZM43.1733 13.8394C43.1733 13.8532 43.1733 13.8532 43.1733 13.8532C42.996 13.8945 42.8365 13.9221 42.7301 13.9496C42.8365 13.9221 42.9606 13.8945 43.1733 13.8394ZM44.9995 13.6328C44.769 13.6328 44.4853 13.6466 44.2016 13.6879C44.0953 13.4262 44.113 13.1507 44.2903 13.1507C44.2371 13.3298 44.6981 13.44 44.9995 13.6328ZM40.0884 8.77071C40.3543 8.6192 40.4784 8.75693 40.5494 8.90844C40.4075 8.93599 40.2657 8.99108 40.0529 9.05995C40.0529 9.0875 40.0352 9.12883 40.0352 9.15636C40.0529 9.01863 40.0529 8.88089 40.0884 8.77071Z" fill="#FF6610"/>
<path d="M39.7683 6.36117C39.7328 6.37493 39.7151 6.41625 39.6619 6.43003C39.7328 6.48513 39.8036 6.54021 39.8745 6.58154C39.8924 6.4989 39.9101 6.41625 39.9277 6.33362C39.8745 6.33362 39.8213 6.34739 39.7683 6.36117Z" fill="#FF6610"/>
<path d="M207.927 8.2629L207.892 8.23535C207.909 8.2629 207.945 8.30423 207.945 8.35931C207.927 8.31799 207.927 8.29045 207.927 8.2629Z" fill="#FF6610"/>
<path d="M70.4792 9.26632L70.4614 9.07349L70.3196 9.25255L70.4792 9.26632Z" fill="#FF6610"/>
<path d="M217.419 12.1458C217.419 12.2146 217.436 12.2835 217.506 12.3524C217.525 12.311 217.472 12.2284 217.419 12.1458Z" fill="#FF6610"/>
<path d="M221.687 12.973L222.237 13.3449C222.006 13.1521 221.829 13.0419 221.687 12.973Z" fill="#FF6610"/>
<path d="M224.901 13.8944C224.971 13.7704 225.007 13.674 225.042 13.5776L224.901 13.8944Z" fill="#FF6610"/>
<path d="M171.705 8.71619C171.653 8.71619 171.617 8.71619 171.564 8.74374C171.262 8.85392 171.475 8.8126 171.705 8.71619Z" fill="#FF6610"/>
<path d="M187.845 8.33154C187.651 8.4555 187.472 8.57946 187.278 8.64834C187.544 8.73097 187.757 8.7723 187.845 8.33154Z" fill="#FF6610"/>
<path d="M186.536 8.56445C186.802 8.74351 187.032 8.72973 187.281 8.6471C187.05 8.57822 186.784 8.46804 186.536 8.56445Z" fill="#FF6610"/>
<path d="M239.122 16.5815L239.264 16.6365C239.281 16.5815 239.3 16.5539 239.317 16.5126L239.122 16.5815Z" fill="#FF6610"/>
<path d="M239.325 16.5259L239.52 16.4708C239.448 16.457 239.378 16.4432 239.325 16.5259Z" fill="#FF6610"/>
<path d="M239.952 16.334L239.528 16.4579C239.651 16.4854 239.811 16.5405 239.952 16.334Z" fill="#FF6610"/>
<path d="M234.843 15.5205L234.719 15.7822C234.772 15.741 234.807 15.6445 234.843 15.5205Z" fill="#FF6610"/>
<path d="M233.494 15.384C233.796 15.4941 234.132 16.1003 234.611 16.0038L234.718 15.7972C234.398 16.1553 233.92 14.9709 233.494 15.384Z" fill="#FF6610"/>
<path d="M228.855 11.0707L229.918 11.4701C229.794 11.1396 229.653 10.7126 230.184 10.7264C228.996 9.62445 230.29 11.4288 228.855 11.0707Z" fill="#FF6610"/>
<path d="M225.487 10.0808C226.126 10.0395 225.594 9.65381 225.666 9.48853C225.204 9.69513 225.098 9.75023 225.487 10.0808Z" fill="#FF6610"/>
<path d="M200.113 6.66501L200.307 5.97632C199.828 6.01764 200.254 6.23803 200.113 6.66501Z" fill="#FF6610"/>
<path d="M194.613 9.65364L194.985 10.1495L195.322 9.54346L194.613 9.65364Z" fill="#FF6610"/>
<path d="M192.615 4.41833L192.828 4.33569L191.996 4.51474L192.615 4.41833Z" fill="#FF6610"/>
<path d="M149.408 1.55498L149.495 2.42273C149.833 2.29877 149.957 1.32084 149.408 1.55498Z" fill="#FF6610"/>
<path d="M130.681 1.96664C130.486 1.52587 129.972 1.23663 129.635 1.64983C130.061 1.73248 130.469 2.07682 130.681 1.96664Z" fill="#FF6610"/>
<path d="M74.5885 2.00881L74.9431 1.69202L74.2517 1.98126L74.5885 2.00881Z" fill="#FF6610"/>
</svg>
