<svg width="265" height="24" viewBox="0 0 265 24" fill="none" xmlns="http://www.w3.org/2000/svg">
<path d="M264.815 18.1193C265.029 17.8939 265.126 17.3081 264.72 17.3532L264.158 18.2844L264.815 18.1193Z" fill="#FF6610"/>
<path d="M262.816 15.9091C262.236 16.2997 261.463 17.0507 261.502 17.9821C262.217 17.1259 262.217 17.5314 263.009 16.4949C263.415 16.4499 263.57 16.9155 263.415 17.261C263.628 17.0356 263.937 17.5764 264.325 16.9907C264.053 16.1645 263.435 16.0294 262.603 16.54C262.526 16.3148 262.739 16.0894 262.816 15.9091Z" fill="#FF6610"/>
<path d="M225.935 8.77344L226.149 8.92425C226.11 8.84884 226.033 8.80359 225.935 8.77344Z" fill="#FF6610"/>
<path d="M202.725 5.6512C202.899 5.6512 202.996 5.54606 203.015 5.47095C202.841 5.50099 202.687 5.56108 202.725 5.6512Z" fill="#FF6610"/>
<path d="M198.872 4.19457C198.951 4.23982 199.028 4.25489 199.105 4.28505C199.028 4.19457 198.93 4.13424 198.872 4.19457Z" fill="#FF6610"/>
<path d="M225.935 8.77433L225.375 8.38379C225.278 8.69922 225.665 8.65417 225.935 8.77433Z" fill="#FF6610"/>
<path d="M257.028 17.4113C257.165 17.3812 257.299 17.306 257.434 17.2159C257.318 17.246 257.202 17.2611 257.086 17.2611C257.086 17.321 257.067 17.3662 257.028 17.4113Z" fill="#FF6610"/>
<path d="M236.385 9.27187L236.578 9.2869C236.656 9.18176 236.752 9.06158 236.83 8.91138L236.385 9.27187Z" fill="#FF6610"/>
<path d="M244.274 10.3081C244.1 10.248 243.829 11.0591 243.675 11.4196C243.868 11.0892 244.023 10.954 244.197 10.9089C244.235 10.7437 244.254 10.5634 244.274 10.3081Z" fill="#FF6610"/>
<path d="M256.231 13.7938L256.485 13.7184C256.427 13.7335 256.329 13.7636 256.231 13.7938Z" fill="#FF6610"/>
<path d="M230.791 8.36964C230.81 8.24946 230.81 8.1293 230.791 8.06921C230.752 8.17437 230.752 8.27951 230.791 8.36964Z" fill="#FF6610"/>
<path d="M10.6558 18.2537C10.6365 18.1935 10.6172 18.1633 10.6172 18.1029C10.5787 18.2086 10.5979 18.2688 10.6558 18.2537Z" fill="#FF6610"/>
<path d="M0.460496 15.9706L0.576502 15.8954C0.5185 15.7452 0.479831 15.5799 0.441162 15.4297L0.460496 15.9706Z" fill="#FF6610"/>
<path d="M191.681 2.46649C191.701 2.48158 191.701 2.48158 191.72 2.48158C191.914 2.40616 191.797 2.40616 191.681 2.46649Z" fill="#FF6610"/>
<path d="M123.82 0.768677C124.593 1.51972 122.582 1.74501 123.762 2.57116C123.646 2.25573 124.786 1.26436 123.82 0.768677Z" fill="#FF6610"/>
<path d="M256.879 17.2758C256.763 17.2609 256.668 17.2609 256.552 17.2308C256.686 17.2758 256.784 17.2908 256.879 17.2758Z" fill="#FF6610"/>
<path d="M123.761 2.58789L123.876 2.67837C123.819 2.63312 123.799 2.61804 123.761 2.58789Z" fill="#FF6610"/>
<path d="M174.627 1.8656C174.648 2.0158 174.706 2.13598 174.764 2.24112C174.764 2.151 174.743 2.04585 174.627 1.8656Z" fill="#FF6610"/>
<path d="M187.131 3.77202L186.841 3.63684C186.957 3.72696 187.054 3.757 187.131 3.77202Z" fill="#FF6610"/>
<path d="M167.961 2.67729C167.786 2.60218 167.749 2.48202 167.496 2.58716C167.517 2.63223 167.536 2.66227 167.554 2.69231C167.67 2.58716 167.786 2.54211 167.961 2.67729Z" fill="#FF6610"/>
<path d="M161.127 2.3302C161.166 2.39027 161.204 2.45036 161.243 2.51045C161.32 2.49543 161.398 2.4804 161.456 2.46538L161.127 2.3302Z" fill="#FF6610"/>
<path d="M30.5464 14.6192C30.3531 14.4089 30.1984 14.1686 30.0631 13.9132C30.295 14.499 29.3865 14.8595 30.5464 14.6192Z" fill="#FF6610"/>
<path d="M257.16 16.946C257.063 17.1414 256.965 17.2465 256.87 17.2615C256.946 17.2615 257.023 17.2615 257.102 17.2465C257.139 17.1414 257.179 17.0363 257.16 16.946Z" fill="#FF6610"/>
<path d="M167.164 9.31623L166.101 9.13599C166.391 9.22612 166.777 9.28621 167.164 9.31623Z" fill="#FF6610"/>
<path d="M78.4933 9.45081L78.2603 9.57147C78.3574 9.57147 78.435 9.5413 78.4933 9.45081Z" fill="#FF6610"/>
<path d="M162.913 9.07458C162.739 8.75915 162.546 8.5789 162.353 8.45874C162.295 8.51881 162.256 8.5789 162.217 8.66903L162.913 9.07458Z" fill="#FF6610"/>
<path d="M23.6255 20.7007C24.6308 20.5805 23.8188 19.559 23.8769 18.9132C24.9982 18.4325 24.6308 19.6341 25.1916 20.1298C25.8682 19.7243 26.1776 18.6428 26.7577 18.6128C26.835 18.7931 26.9703 18.838 26.893 19.0783C27.4731 18.102 29.2325 18.6878 29.8899 17.4562C29.9865 17.5463 30.0445 17.6364 30.0831 17.7115C29.8124 17.1858 29.6578 16.63 29.5805 16.2395C30.0252 16.1493 30.2572 15.4284 30.6051 16.1193C30.3152 16.1343 30.3732 16.4348 30.2959 16.6751L30.7019 16.2996C31.3593 17.2609 30.1411 16.7502 30.3152 17.5012C31.1466 17.0356 32.0359 16.0292 32.8093 16.2094C33.1767 17.1858 31.2432 16.7952 32.384 17.5463L31.2046 17.321C32.4033 18.778 30.5085 17.3059 31.6687 18.8831C33.1573 18.9582 33.1573 18.1321 34.6461 18.2372C34.8394 17.6364 34.3561 17.4261 34.5495 16.8253C36.3863 15.5636 36.7149 19.1535 37.9329 17.6214C38.1843 16.9004 38.049 15.6086 39.2669 16.1493L39.1123 17.336C40.5238 17.2759 39.557 15.5936 41.1812 16.1794C41.0071 16.6601 40.1564 16.6901 40.4078 16.8103C41.5484 17.5913 40.9491 16.0743 41.6645 15.9841L42.0319 16.9755C43.482 16.63 44.9706 15.6837 46.5947 15.3082C46.5561 15.6236 46.3433 15.9691 46.7881 16.2395C48.7795 15.5185 51.2736 15.894 53.3812 16.2845L53.9998 15.3232C54.1739 15.3082 54.4058 15.6837 54.2319 15.879C55.0632 16.1343 54.1739 15.3232 54.5025 14.9327C54.9471 14.8275 55.1792 15.3683 54.9471 15.6687C56.204 14.7825 58.6207 13.6559 60.2255 14.437L59.9741 14.7224C61.1728 14.9627 60.9795 12.7847 62.1589 13.5207L61.9849 13.686C64.5177 13.8662 67.1471 12.8298 69.216 14.0014C69.4093 12.7096 71.7294 14.3619 71.6714 12.5894C73.1989 13.3405 72.8315 13.701 74.9003 14.1216C75.4417 14.1516 75.5577 12.9499 76.1956 12.7246L76.3309 13.6409L77.1044 12.6045L77.7037 13.6709L78.2838 13.3856C78.0324 13.3555 77.7231 13.01 77.7231 12.7397C78.6317 12.244 80.1593 13.2353 80.2173 13.701L82.4213 12.7847C82.402 13.1602 82.0346 13.3104 81.7639 13.5658C82.8853 12.5594 82.0926 14.5271 83.1174 13.5958C82.9433 13.4006 83.1367 13.0401 83.1367 12.8598C83.7553 13.3856 85.0122 13.3104 85.9402 13.0251L85.8242 13.6709C87.5256 13.731 89.3624 13.1602 91.2572 13.0551C90.5418 12.7997 90.5998 11.6882 91.1604 11.553L91.4698 12.5144C91.7792 11.8835 90.8512 12.1839 91.5278 11.4028C92.2432 11.4779 92.1079 12.4843 91.7212 12.8298L92.5526 12.4392C92.6299 12.7246 92.4366 12.8899 92.4171 13.2654C92.7265 12.6345 93.9832 14.1666 94.4087 13.0701L94.486 13.3555C96.3808 13.2504 97.2122 12.8598 98.7588 12.7697C98.7203 11.9285 99.3389 12.0938 99.7642 11.4028C100.924 11.6432 102.239 12.259 103.592 12.1388C104.54 11.6882 103.824 11.4178 104.231 10.9071C104.346 11.6732 105.719 11.553 105.043 12.1388C106.686 11.9586 107.131 11.9135 109.199 11.2226C108.967 10.9222 108.697 10.787 108.813 10.5166C109.18 10.3814 109.683 10.817 109.644 11.1775L109.548 11.2676C111.848 10.0359 115.038 13.3405 116.837 11.6732L116.74 11.7633C117.378 11.4629 118.016 11.1925 118.654 10.9071C119.543 11.0423 118.132 11.493 118.809 11.9586C120.858 10.6668 122.095 12.1238 123.797 11.2676C125.15 13.5358 128.515 11.0874 130.313 12.5294L130.216 11.9886C130.68 11.4629 130.777 12.289 131.125 12.4092C131.067 11.9886 130.622 11.9285 130.912 11.6432C134.837 10.9973 139.013 12.3341 143.015 12.98C144.485 13.1602 143.924 10.2312 145.741 11.553L145.181 12.5294C148.197 11.4178 151.232 12.7246 154.191 11.7783C153.997 12.0037 153.978 12.3041 153.707 12.289C154.287 13.0251 155.969 12.3792 156.008 11.7934C156.453 11.8685 156.085 12.3341 156.356 12.6345C156.955 13.0701 157.961 11.7483 158.232 12.4843C158.29 12.6045 158.037 12.7096 157.921 12.7697C158.348 12.4242 159.778 12.9049 159.449 12.0637C160.514 12.4993 161.556 11.7333 162.388 12.274C163.026 11.3728 164.225 12.8298 164.495 11.523C164.321 12.8749 166.333 12.7246 167.067 12.1238C166.797 12.5144 167.628 12.5894 167.318 13.1302C168.111 13.1602 168.847 12.9499 168.768 12.244C170.084 13.9413 171.785 11.1024 172.422 13.2203C174.82 12.6195 177.025 12.244 179.17 12.0487C178.958 13.4006 176.832 12.0487 176.774 13.4757C178.823 13.0251 180.098 11.9285 182.032 12.3792C182.515 12.5894 181.684 12.9499 181.472 13.1753C183.521 12.7397 185.3 13.4757 187.156 12.9199C187.136 13.0401 186.924 13.1602 186.73 13.2504C187.078 13.2353 187.523 13.5207 187.542 12.9049L187.175 13.0401C186.73 12.0938 188.779 11.3127 188.916 10.8471C188.104 12.5444 190.616 11.4479 189.378 13.5808C189.631 13.4907 189.94 13.2203 189.94 12.7997C190.269 12.9499 190.346 13.2053 189.94 13.6409C191.235 13.4156 190.868 12.7246 192.008 12.8448C191.971 13.1452 191.718 13.2353 191.564 13.5808C192.203 13.0551 192.86 12.5294 193.788 12.8598C193.71 13.0401 193.788 13.2804 193.498 13.2504C195.141 13.3104 196.513 11.9586 198.234 12.6796C197.519 13.9263 198.776 13.1602 198.718 14.2868L199.742 14.0465L199.433 13.4757C200.283 13.5658 201.154 12.8298 201.831 13.2504L201.135 13.6559L202.758 13.5808L201.927 13.0851C202.874 12.5894 202.063 11.6732 203.145 12.0787C202.894 12.1689 203.995 12.1689 204.324 12.8598C204.807 12.5444 205.292 12.2139 205.871 12.5444C205.968 12.9199 205.543 13.7611 205.601 14.0164C206.161 13.1302 207.63 13.9413 208.326 12.995C208.115 13.2053 207.999 13.7911 208.036 13.9263L208.521 13.2053C208.869 13.4757 208.906 13.6109 208.772 14.0615C209.932 14.3018 208.637 12.6195 209.932 13.3555C209.816 13.4006 209.835 13.5207 209.603 13.6109C210.956 14.0314 212.407 13.3856 213.625 13.9413C213.799 15.1129 212.444 14.0765 212.716 15.0679C214.61 15.0979 216.796 14.2117 218.555 14.6924L218.245 14.5271C218.806 12.98 219.424 15.4734 220.489 14.8426C220.236 14.9327 220.025 15.6837 220.12 15.5185C221.3 15.9241 222.711 15.4434 224.684 15.188L224.375 15.5636C225.032 16.0142 226.25 16.0142 226.984 16.2996C227.295 15.924 227.738 16.0442 227.583 15.4284C229.498 18.0269 232.476 14.7825 234.177 16.9605C233.926 16.9304 233.481 17.2308 233.694 17.2609L235.607 17.1107C235.626 16.4047 235.472 16.6601 235.201 16.0893C235.53 15.7138 236.111 15.4584 236.575 15.5185C235.646 15.864 236.322 16.615 236.594 17.0356C236.575 16.8253 236.768 16.6 236.787 16.3897C237.444 17.7265 237.271 15.0228 238.392 16.0292L238.237 16.3747C238.759 16.2695 239.319 15.864 239.822 16.0592C239.841 16.8854 239.223 16.3446 239.029 16.9905C239.764 17.0656 240.846 15.7288 241.311 16.63C240.944 16.7952 240.5 16.7352 240.131 16.9004C240.635 17.9518 240.77 17.7265 241.273 17.9518L241.234 17.9218L242.374 18.5376L242.123 18.2372C243.555 16.3296 244.075 18.1621 245.661 17.0205C244.133 18.102 245.275 17.7265 244.946 18.5977C245.198 18.8982 245.603 19.2586 245.41 19.484C246.183 18.8531 246.241 20.2049 247.324 19.2887C247.285 19.5891 247.942 19.4239 247.615 20.1148C248.427 20.0097 247.575 19.5891 247.731 19.2436C249.161 18.4625 250.147 20.8808 252.197 19.8144C253.801 19.4989 254.323 18.5827 255.811 18.3123C256.141 18.838 255.154 19.2887 255.154 19.2887C255.774 19.8294 256.333 19.8444 257.127 19.6341C256.914 19.8595 256.992 20.0998 257.127 20.4453C257.707 20.4604 257.803 19.469 258.403 20.0097C258.19 20.3101 257.881 20.7907 257.513 21.0611C258.248 20.9109 259.04 20.4752 259.794 20.325C259.834 20.8509 259.176 21.0161 258.828 21.3014C259.659 21.1963 260.916 21.1662 261.4 20.4153L260.994 20.0547C261.284 20.0697 260.936 20.7606 260.685 20.8659C259.852 21.3766 259.834 20.4453 259.873 20.1449L260.414 20.0398C260.414 18.2823 258.403 19.9947 257.455 19.7393L258.209 18.5827L256.934 19.4389C256.818 19.0933 256.856 18.3874 257.397 18.2823C256.876 17.5613 256.663 18.6128 256.257 17.8467C256.217 17.7265 256.275 17.6815 256.333 17.6364L255.541 17.8918C255.753 17.6514 255.676 17.0055 256.043 17.2609C255.019 16.3596 253.821 17.8467 253.608 16.8553L253.647 16.7352C251.83 16.8703 253.241 17.6064 251.674 18.4475L251.424 16.0893L251.017 16.9605C250.843 16.9004 250.514 16.7802 250.688 16.4197C249.876 16.9304 250.688 16.8253 250.166 17.351C249.548 16.3897 247.749 17.351 247.923 15.894C247.44 16.5249 248.601 16.5549 247.575 16.8854C247.71 15.3082 246.473 16.9755 245.874 16.1493C246.319 15.3983 246.937 15.9391 246.357 15.0979C245.546 16.3596 244.927 14.5572 244.212 14.7074C243.903 15.7738 242.684 14.9177 241.505 15.0979C241.659 14.7524 239.59 14.1666 238.662 13.6259L238.74 13.4456C238.276 14.5121 237.271 14.1666 236.459 14.3018C236.633 13.6559 236.845 13.4156 237.328 13.1753L236.594 13.0851C236.343 13.4156 236.071 13.5658 235.57 13.6259L235.937 12.8448C234.95 12.7697 233.771 13.5508 232.65 12.8598C232.418 13.6109 233.152 15.0979 231.74 15.4284C231.779 15.0078 231.895 14.3018 232.262 14.1816C232.146 14.2267 231.779 14.467 231.605 14.2718L232.283 13.6409C231.779 13.2654 231.856 14.1816 231.431 14.0615C231.566 13.4757 231.199 13.5958 231.354 13.1452C231.489 13.1002 231.703 13.4306 231.914 13.2353C231.431 13.0701 230.89 12.6495 230.793 12.1689C230.774 12.5144 230.619 12.9499 230.233 12.98C229.266 12.9049 230.059 12.229 229.556 11.8685C229.226 12.244 228.706 11.7483 228.511 12.6195C228.221 12.5744 228.261 12.1689 228.202 11.9135C227.622 12.229 225.844 11.7333 226.211 12.7397L226.327 12.8148C226.308 12.8298 226.269 12.8298 226.23 12.8448C224.412 13.5057 222.943 11.9285 221.242 12.0938L221.3 11.7934C220.276 12.0037 219.115 11.7183 218.303 12.259C218.013 12.229 217.723 11.6432 217.917 11.2977C217.144 11.4329 216.989 11.7483 216.002 11.1325C216.833 10.7119 215.828 10.6518 216.833 10.8471C215.926 10.4715 215.789 9.97586 214.61 10.6518C215.094 9.94581 214.05 9.61536 213.567 9.78059L214.146 10.3964C213.605 10.4415 213.18 10.3213 212.734 10.2012L213.161 9.23984C211.381 7.79785 209.236 10.9522 208.057 8.78923C207.418 9.43511 209.062 9.37502 208.442 10.1411C207.553 9.93079 206.838 8.41371 206.548 8.38367C205.388 7.72276 205.137 9.72051 203.899 9.23984C204.015 9.61536 204.015 10.5617 202.99 10.817C202.101 10.6067 202.101 9.22482 202.72 8.99952C202.952 8.9845 203.029 9.10466 203.01 9.22482C203.319 9.11968 203.744 8.99952 203.435 8.59396L203.261 8.93943C202.855 8.53387 201.599 8.45878 201.985 7.90301C201.251 8.17337 201.599 8.45878 202.082 8.68407C200.98 8.06824 200.246 8.50383 199.104 8.05321C199.259 8.26351 199.375 8.6991 199.201 8.68407C197.5 8.08326 198.331 9.28491 197.112 9.32997C196.513 8.72914 197.537 8.06823 196.263 8.41371C195.585 7.9781 196.242 7.45238 196.571 7.19704C195.373 7.78283 194.58 6.56616 193.961 6.38591L194.58 6.14559C194.213 6.28077 193.923 6.25073 193.633 6.22069L193.865 6.9567C193.536 6.8065 193.245 6.77645 193.303 6.47604C192.897 6.91164 193.42 7.67769 192.628 8.24848C192.221 7.84292 191.196 8.51885 191.158 7.55753C192.549 8.00815 191.119 6.5962 192.356 6.55114C192.105 6.64127 191.815 6.61123 191.506 6.46102C191.467 6.35587 191.583 6.26575 191.68 6.22069C190.423 5.25937 190.906 7.22707 189.494 7.07686C189.747 6.56616 189.302 6.04044 189.051 6.13057C189.61 6.19064 189.204 7.04682 188.645 7.40731C187.793 6.91164 187.619 7.63263 187.156 7.54251L187.677 7.78283C187.426 8.30856 186.982 8.17337 186.344 8.30856C186.344 7.88799 186.943 8.06823 186.75 7.85794C185.938 8.74416 185.281 6.8065 184.216 7.37729C183.811 6.98675 184.294 6.37089 183.907 6.11555C182.728 6.74641 182.786 5.31944 181.567 5.83015C181.82 6.56616 181.897 6.38591 181.008 7.04682L182.96 6.65629L181.625 7.63263C182.206 7.67769 182.883 7.25711 183.211 7.39231C182.573 7.94806 182.651 7.76781 182.844 8.36864C182.187 7.25711 181.219 8.90939 180.388 8.12831L180.602 6.35587C179.306 5.48467 178.088 7.12193 176.347 6.58118L176.89 6.92666C176.579 7.61761 175.787 6.9567 175.188 7.21206C175.304 6.62625 174.956 6.38591 174.743 6.01039C174.724 6.446 173.448 5.89023 173.176 7.07686L172.461 6.25073C171.05 5.84517 170.683 7.84292 169.33 7.57256C169.794 6.9567 169.214 6.49107 170.161 6.0855C169.697 6.05546 169.29 5.92028 169.251 6.32584C169.019 5.9353 167.918 7.04683 167.531 6.46102C167.319 6.71637 167.203 7.33222 166.7 7.24209C166.661 7.12193 166.719 6.9567 166.719 6.9567C166.7 7.24209 165.888 7.30218 166.275 7.99313C164.998 6.0855 162.33 7.87296 161.208 6.28077C160.184 6.46102 158.966 6.61123 158.058 6.64127C158.135 6.46102 158.077 6.34085 158.251 6.41596C157.032 5.83015 157.38 8.09828 155.989 7.45238C155.312 6.47604 156.781 6.9567 156.337 6.58118C156.24 4.6285 154.597 6.8065 153.688 5.63488L153.92 5.52974C153.204 4.85381 152.083 6.22069 150.884 6.05546C150.884 6.05546 150.942 5.89023 150.904 5.75505C150.034 6.73139 148.468 7.01679 147.307 7.27213C147.694 6.52109 147.849 6.88159 147.655 6.10053C147.133 6.19064 147.771 7.34724 146.727 7.54251C146.399 7.12193 145.664 6.73139 145.606 5.90526L146.592 5.89023C146.128 4.80874 145.335 5.89023 144.813 5.69496L144.891 5.22933C143.383 5.34949 143.344 6.52109 141.739 6.40093L141.894 6.76143C140.985 7.90301 141.179 6.0855 140.289 6.92666L140.038 5.74003C139.458 5.99537 137.988 6.85156 136.944 7.09188C137.544 6.22069 138.762 5.74003 139.535 5.24435C138.955 5.19928 137.582 5.31944 137.273 5.90526C137.505 5.78509 137.795 5.49969 138.027 5.67994C137.312 6.61123 136.383 7.07686 135.243 7.06184C135.494 4.76368 132.304 6.50609 131.473 4.71862C129.443 5.5748 127.451 4.37314 125.073 4.52335C125.943 6.31082 124.377 4.58343 124.551 6.41596C124.01 6.53612 123.797 6.50609 123.739 6.38591L122.057 5.2894C121.651 4.76368 122.579 4.88385 122.521 4.46327C121.303 4.3431 121.999 3.69721 121.187 3.21655C121.361 3.87746 120.781 4.16286 120.085 3.9075L121.071 4.74866C119.427 5.74003 119.582 3.21655 117.9 4.1929L118.422 3.60709C117.552 3.93755 115.193 3.65215 114.4 5.15422C114.246 4.94393 114.014 4.44825 114.4 4.31306C112.293 4.16286 109.837 6.02542 108.175 5.16924L108.31 4.71862C107.923 4.85381 107.672 5.58982 107.169 5.15422C107.189 4.97397 107.305 4.7036 107.131 4.67356C106.937 4.83879 106.145 5.49969 105.603 5.24435L106.009 4.71862C103.94 4.1929 102.954 6.05546 101.292 6.41596C101.214 5.09413 99.5903 4.71862 98.7588 4.52335L98.7781 4.32808C96.4 4.22294 94.8339 5.58982 92.6879 6.23571C91.2184 4.88385 88.0476 5.90526 85.7854 5.22933C86.1336 5.45463 85.8242 6.26575 85.4568 6.41596C84.9154 6.20566 84.1227 7.43736 84.0842 6.22069L84.2774 6.23571C83.7748 5.07912 82.75 5.45463 81.9186 5.46965L81.9573 7.06184C79.5599 4.86883 76.4277 8.23346 75.0162 6.2958C74.5522 6.73139 73.9141 6.77645 73.4501 7.21206L73.3728 6.37089C71.9035 6.26575 71.1881 6.22069 69.4286 6.58118L69.7187 5.95032C68.7132 5.98035 68.7905 8.4888 67.8819 8.624L67.4372 7.37729C65.6971 7.54251 63.7637 6.58118 62.2169 7.85794C62.2169 7.67769 62.2169 7.30218 62.4875 7.22707C61.6563 7.25711 59.1814 6.64127 59.742 8.35362C59.5488 7.22707 57.9247 8.42873 57.074 9.02955V8.1884C56.4552 9.32997 56.4746 9.63038 55.4306 10.0359C55.1599 9.96083 55.0824 9.39005 55.4692 9.57029C54.5218 9.22482 54.9278 10.4265 53.7872 10.096L54.0964 9.52524C53.1878 9.55527 53.3037 9.82565 52.917 10.5016C52.4144 10.8921 51.177 10.4715 50.9063 9.73552C50.8676 10.2012 50.4809 10.8621 49.9203 10.7119C49.8042 10.4415 49.9589 10.2462 50.0363 10.1411C48.4315 9.73552 47.9868 11.3427 46.8074 10.6368C46.73 10.3664 46.6334 10.2312 46.5367 10.1561C47.7354 10.051 48.7021 9.99088 48.6248 10.066C48.4895 9.29993 47.4842 9.26989 48.0642 8.12831C47.3874 8.78923 46.3048 10.1711 45.2993 9.91577C45.2412 9.84067 45.1834 9.78059 45.1254 9.66043L45.2027 9.57029C44.9706 9.51022 44.7967 9.61536 44.6419 9.76556C44.3132 9.67545 44.1199 9.61536 43.8299 9.63038C43.5978 9.01453 42.6505 9.43511 42.1672 9.46516C42.3799 10.2913 41.7225 10.2462 42.4379 10.8621C42.3411 10.817 42.5152 10.7569 42.8246 10.6818C42.8826 10.6518 42.9792 10.6217 43.0179 10.5767L42.9985 10.6518C43.3079 10.5917 43.7139 10.5166 44.1779 10.4415C43.8879 10.9071 43.5593 11.3277 42.9405 10.9222C42.7858 11.4629 42.6312 12.0487 42.5345 12.3341C41.6452 11.2526 40.253 10.787 39.9243 10.096C38.5517 10.7569 36.5409 10.8471 35.9608 12.5294C35.5934 12.7847 35.3808 12.1388 35.1681 11.9135C35.3808 11.7333 35.6709 11.7183 35.7482 11.4779C35.0135 11.9886 33.3314 11.9436 33.3701 13.0701C32.21 12.7096 33.7374 11.9886 32.326 12.3491L32.4419 11.9886C29.2131 10.6368 28.5364 15.4434 24.8629 13.6559C25.1143 13.7611 25.2303 13.8061 25.3269 13.9864C21.5181 13.5057 18.2698 16.0292 14.345 15.0679C13.3009 14.9026 13.3976 15.6236 12.9529 16.2395L12.4696 15.3983L11.7349 16.6C10.5168 17.6064 8.54469 14.9026 7.11395 16.6601L7.5393 17.2008C6.84327 17.2158 5.54786 17.9518 5.4512 17.2459C5.41253 17.366 5.43186 17.9068 5.06451 17.6514L4.89049 17.1858L3.51775 18.2973C2.16435 18.2372 3.11173 16.4498 1.21696 16.7352C0.57893 17.0506 -0.291117 18.4926 0.09557 18.748C0.385586 18.7028 0.907613 18.8831 1.10096 19.3338L0.559595 19.7093C0.946282 21.0761 1.04295 22.5481 2.80238 23.179C3.03439 22.8335 3.28575 22.4881 3.53709 22.1425L4.09778 22.7284L3.24708 22.9538C3.96245 23.4645 4.07844 22.8636 4.31047 22.4129C4.5038 22.7434 4.73582 22.9538 4.98717 23.0439L5.56719 21.5418C5.85722 22.0525 5.4512 22.6833 6.24391 22.8335C6.51458 22.1425 5.39319 21.737 6.05056 21.1812C6.74659 21.692 6.76593 22.2177 7.19129 21.5868C7.38462 21.9173 7.32663 22.1726 7.15262 22.368C7.5393 21.8571 8.48668 21.9323 8.52535 21.1662C9.29873 21.8272 10.2461 20.6405 10.5941 21.9323C10.6715 21.5868 11.2128 20.7456 11.6769 20.6104C11.2515 22.3228 13.5136 20.3701 13.765 22.0675C14.0163 20.5655 15.9497 21.0461 16.8972 20.0847C16.8585 20.2049 16.8005 20.4453 16.6844 20.4002C17.3805 20.4002 17.6899 20.7907 18.1732 20.9861C17.9411 19.8144 18.8886 19.3938 19.2559 18.5827C20.358 19.559 19.14 20.0247 19.6813 21.0461C19.3913 20.1148 20.822 19.8745 20.3387 19.1535C21.1314 19.7393 20.9573 19.3938 21.5374 20.2951C21.2667 18.838 22.0401 19.9496 22.33 18.9882C23.4129 19.5741 22.9101 20.3101 23.7801 19.7243C24.3602 20.0697 23.6255 20.7007 23.6255 20.7007ZM46.5367 15.0228C46.5367 15.0378 46.5367 15.0378 46.5367 15.0378C46.3433 15.0829 46.1694 15.1129 46.0534 15.143C46.1694 15.1129 46.3048 15.0829 46.5367 15.0228ZM48.5282 14.7975C48.2769 14.7975 47.9675 14.8125 47.6581 14.8576C47.5422 14.5722 47.5615 14.2718 47.7548 14.2718C47.6968 14.467 48.1996 14.5872 48.5282 14.7975ZM43.1726 9.4952C43.4625 9.32997 43.5978 9.48018 43.6753 9.6454C43.5205 9.67545 43.3659 9.73552 43.1338 9.81063C43.1338 9.84067 43.1145 9.88574 43.1145 9.91577C43.1338 9.76556 43.1338 9.61536 43.1726 9.4952Z" fill="#FF6610"/>
<path d="M42.8233 6.86757C42.7846 6.88257 42.7653 6.92764 42.7073 6.94266C42.7846 7.00275 42.8619 7.06282 42.9392 7.10789C42.9586 7.01777 42.9779 6.92764 42.9972 6.83752C42.9392 6.83752 42.8812 6.85255 42.8233 6.86757Z" fill="#FF6610"/>
<path d="M226.206 8.94154L226.168 8.91138C226.187 8.94154 226.226 8.98679 226.226 9.04711C226.206 9.00186 226.206 8.97171 226.206 8.94154Z" fill="#FF6610"/>
<path d="M76.3156 10.0365L76.2961 9.82532L76.1409 10.0214L76.3156 10.0365Z" fill="#FF6610"/>
<path d="M236.558 13.176C236.558 13.2514 236.576 13.3268 236.653 13.4023C236.673 13.357 236.615 13.2665 236.558 13.176Z" fill="#FF6610"/>
<path d="M241.212 14.0781L241.812 14.4837C241.56 14.2734 241.367 14.1532 241.212 14.0781Z" fill="#FF6610"/>
<path d="M244.716 15.0827C244.793 14.9476 244.832 14.8424 244.87 14.7373L244.716 15.0827Z" fill="#FF6610"/>
<path d="M186.705 9.43579C186.648 9.43579 186.609 9.43579 186.551 9.46583C186.222 9.586 186.454 9.54093 186.705 9.43579Z" fill="#FF6610"/>
<path d="M204.306 9.01636C204.094 9.15154 203.9 9.28672 203.688 9.36183C203.978 9.45195 204.21 9.49701 204.306 9.01636Z" fill="#FF6610"/>
<path d="M202.878 9.27026C203.169 9.46553 203.419 9.45051 203.691 9.3604C203.44 9.28529 203.15 9.16513 202.878 9.27026Z" fill="#FF6610"/>
<path d="M260.225 18.0135L260.381 18.0737C260.4 18.0135 260.421 17.9833 260.439 17.938L260.225 18.0135Z" fill="#FF6610"/>
<path d="M260.447 17.9529L260.661 17.8925C260.582 17.8774 260.505 17.8623 260.447 17.9529Z" fill="#FF6610"/>
<path d="M261.131 17.7433L260.668 17.8785C260.803 17.9084 260.977 17.9685 261.131 17.7433Z" fill="#FF6610"/>
<path d="M255.559 16.8561L255.424 17.1415C255.482 17.0965 255.519 16.9913 255.559 16.8561Z" fill="#FF6610"/>
<path d="M254.088 16.7071C254.417 16.8272 254.784 17.4882 255.306 17.383L255.422 17.1577C255.074 17.5482 254.552 16.2565 254.088 16.7071Z" fill="#FF6610"/>
<path d="M249.029 12.0035L250.188 12.4391C250.053 12.0786 249.899 11.6129 250.478 11.628C249.183 10.4263 250.594 12.394 249.029 12.0035Z" fill="#FF6610"/>
<path d="M245.356 10.9239C246.053 10.8788 245.473 10.4582 245.551 10.278C245.048 10.5033 244.932 10.5634 245.356 10.9239Z" fill="#FF6610"/>
<path d="M217.685 7.19891L217.896 6.44788C217.374 6.49294 217.838 6.73328 217.685 7.19891Z" fill="#FF6610"/>
<path d="M211.687 10.4581L212.093 10.9988L212.46 10.3379L211.687 10.4581Z" fill="#FF6610"/>
<path d="M209.509 4.74881L209.741 4.65869L208.833 4.85395L209.509 4.74881Z" fill="#FF6610"/>
<path d="M162.389 1.62624L162.485 2.57255C162.853 2.43737 162.988 1.3709 162.389 1.62624Z" fill="#FF6610"/>
<path d="M141.967 2.07503C141.755 1.59436 141.194 1.27893 140.827 1.72954C141.291 1.81967 141.735 2.19519 141.967 2.07503Z" fill="#FF6610"/>
<path d="M80.796 2.12111L81.1827 1.77563L80.4287 2.09107L80.796 2.12111Z" fill="#FF6610"/>
</svg>
