<svg width="232" height="17" viewBox="0 0 232 17" fill="none" xmlns="http://www.w3.org/2000/svg">
<path d="M231.338 15.0226C231.524 14.8353 231.609 14.3483 231.255 14.3858L230.766 15.1599L231.338 15.0226Z" fill="#FF6610"/>
<path d="M229.596 13.1851C229.09 13.5098 228.416 14.1339 228.45 14.9081C229.074 14.1964 229.074 14.5335 229.764 13.672C230.118 13.6346 230.253 14.0216 230.118 14.3088C230.304 14.1214 230.573 14.5709 230.911 14.0841C230.674 13.3974 230.136 13.285 229.41 13.7095C229.343 13.5223 229.529 13.3349 229.596 13.1851Z" fill="#FF6610"/>
<path d="M197.447 7.25537L197.634 7.3805C197.599 7.31793 197.532 7.28039 197.447 7.25537Z" fill="#FF6610"/>
<path d="M177.214 4.65812C177.366 4.65812 177.45 4.57073 177.467 4.5083C177.315 4.53327 177.181 4.58322 177.214 4.65812Z" fill="#FF6610"/>
<path d="M173.857 3.44788C173.926 3.48542 173.993 3.49793 174.06 3.52295C173.993 3.44788 173.908 3.39783 173.857 3.44788Z" fill="#FF6610"/>
<path d="M197.447 7.25527L196.959 6.93066C196.874 7.19284 197.212 7.1554 197.447 7.25527Z" fill="#FF6610"/>
<path d="M224.551 14.4334C224.67 14.4084 224.787 14.3459 224.905 14.271C224.804 14.296 224.702 14.3085 224.601 14.3085C224.601 14.3584 224.585 14.3959 224.551 14.4334Z" fill="#FF6610"/>
<path d="M206.557 7.66927L206.725 7.68175C206.793 7.59436 206.877 7.49448 206.945 7.36963L206.557 7.66927Z" fill="#FF6610"/>
<path d="M213.434 8.529C213.283 8.47905 213.046 9.15323 212.912 9.45287C213.08 9.17821 213.216 9.06584 213.367 9.02839C213.4 8.89105 213.416 8.74123 213.434 8.529Z" fill="#FF6610"/>
<path d="M223.857 11.4259L224.078 11.3633C224.027 11.3758 223.942 11.4008 223.857 11.4259Z" fill="#FF6610"/>
<path d="M201.682 6.91816C201.698 6.81828 201.698 6.7184 201.682 6.66846C201.648 6.75586 201.648 6.84325 201.682 6.91816Z" fill="#FF6610"/>
<path d="M9.78927 15.1325C9.7725 15.0825 9.75573 15.0574 9.75573 15.0073C9.72219 15.095 9.73896 15.145 9.78927 15.1325Z" fill="#FF6610"/>
<path d="M0.901619 13.2357L1.00274 13.1732C0.952181 13.0484 0.918473 12.911 0.884766 12.7861L0.901619 13.2357Z" fill="#FF6610"/>
<path d="M167.588 2.01267C167.606 2.02518 167.606 2.02518 167.622 2.02518C167.791 1.96262 167.689 1.96262 167.588 2.01267Z" fill="#FF6610"/>
<path d="M108.433 0.601562C109.107 1.22581 107.354 1.41308 108.382 2.09976C108.281 1.83758 109.276 1.01356 108.433 0.601562Z" fill="#FF6610"/>
<path d="M224.42 14.3215C224.319 14.3092 224.236 14.3092 224.135 14.2842C224.252 14.3215 224.337 14.334 224.42 14.3215Z" fill="#FF6610"/>
<path d="M108.383 2.1123L108.483 2.18686C108.433 2.14958 108.416 2.13715 108.383 2.1123Z" fill="#FF6610"/>
<path d="M152.723 1.51221C152.74 1.63705 152.791 1.73694 152.842 1.82433C152.842 1.74943 152.824 1.66203 152.723 1.51221Z" fill="#FF6610"/>
<path d="M163.622 3.09674L163.369 2.98438C163.47 3.05928 163.555 3.08425 163.622 3.09674Z" fill="#FF6610"/>
<path d="M146.91 2.18636C146.759 2.12393 146.726 2.02405 146.506 2.11144C146.524 2.1489 146.54 2.17387 146.556 2.19885C146.658 2.11144 146.759 2.074 146.91 2.18636Z" fill="#FF6610"/>
<path d="M140.953 1.89893C140.987 1.94886 141.02 1.9988 141.054 2.04874C141.121 2.03626 141.19 2.02377 141.24 2.01129L140.953 1.89893Z" fill="#FF6610"/>
<path d="M27.1268 12.1117C26.9582 11.9369 26.8235 11.7371 26.7055 11.5249C26.9077 12.0118 26.1156 12.3115 27.1268 12.1117Z" fill="#FF6610"/>
<path d="M224.665 14.0469C224.58 14.2092 224.495 14.2966 224.412 14.3091C224.479 14.3091 224.546 14.3091 224.614 14.2966C224.647 14.2092 224.681 14.1219 224.665 14.0469Z" fill="#FF6610"/>
<path d="M146.216 7.70451L145.289 7.55469C145.542 7.6296 145.878 7.67955 146.216 7.70451Z" fill="#FF6610"/>
<path d="M68.9235 7.81592L68.7207 7.91603C68.8052 7.91603 68.8728 7.891 68.9235 7.81592Z" fill="#FF6610"/>
<path d="M142.511 7.50357C142.359 7.24139 142.191 7.09157 142.023 6.9917C141.973 7.04163 141.938 7.09157 141.904 7.16649L142.511 7.50357Z" fill="#FF6610"/>
<path d="M21.0943 14.7996C21.9707 14.6997 21.2629 13.8507 21.3135 13.3139C22.291 12.9143 21.9707 13.9131 22.4595 14.3251C23.0493 13.988 23.319 13.0892 23.8247 13.0642C23.8921 13.214 24.01 13.2514 23.9426 13.4511C24.4483 12.6397 25.982 13.1265 26.555 12.1028C26.6392 12.1777 26.6898 12.2526 26.7234 12.3151C26.4875 11.8781 26.3527 11.4161 26.2853 11.0915C26.673 11.0166 26.8752 10.4173 27.1785 10.9916C26.9257 11.0041 26.9763 11.2538 26.9089 11.4536L27.2628 11.1415C27.8359 11.9405 26.774 11.516 26.9257 12.1403C27.6505 11.7532 28.4257 10.9167 29.0999 11.0666C29.4201 11.8781 27.7347 11.5535 28.7292 12.1777L27.7011 11.9904C28.746 13.2015 27.0943 11.978 28.1056 13.2889C29.4032 13.3513 29.4032 12.6646 30.701 12.752C30.8695 12.2526 30.4482 12.0778 30.6168 11.5784C32.2179 10.5297 32.5044 13.5136 33.5661 12.2401C33.7852 11.6409 33.6673 10.5672 34.729 11.0166L34.5942 12.0029C35.8246 11.953 34.9819 10.5547 36.3976 11.0416C36.2459 11.4411 35.5043 11.4661 35.7234 11.566C36.7177 12.2152 36.1953 10.9542 36.8189 10.8793L37.1392 11.7033C38.4032 11.4161 39.7008 10.6296 41.1166 10.3175C41.083 10.5796 40.8975 10.8668 41.2851 11.0915C43.021 10.4922 45.1952 10.8044 47.0323 11.129L47.5716 10.3299C47.7233 10.3175 47.9255 10.6296 47.7739 10.7919C48.4985 11.0041 47.7233 10.3299 48.0098 10.0053C48.3974 9.91794 48.5997 10.3674 48.3974 10.6171C49.493 9.88048 51.5996 8.94411 52.9985 9.59333L52.7794 9.83054C53.8243 10.0303 53.6558 8.21999 54.6838 8.83175L54.5322 8.96908C56.74 9.1189 59.0321 8.25744 60.8355 9.23126C61.0041 8.15757 63.0265 9.5309 62.9759 8.05768C64.3074 8.68193 63.9872 8.98157 65.7906 9.33115C66.2625 9.35612 66.3636 8.35732 66.9197 8.17005L67.0376 8.93163L67.7118 8.07017L68.2343 8.9566L68.7399 8.71939C68.5208 8.69442 68.2512 8.40726 68.2512 8.18254C69.0432 7.77053 70.3748 8.59454 70.4254 8.98157L72.3466 8.21999C72.3298 8.53211 72.0095 8.65696 71.7736 8.86921C72.7511 8.03272 72.0601 9.66824 72.9534 8.89418C72.8017 8.73187 72.9702 8.43224 72.9702 8.28242C73.5095 8.71939 74.6051 8.65696 75.414 8.41975L75.3129 8.9566C76.796 9.00654 78.3971 8.53211 80.0488 8.44472C79.4252 8.23247 79.4758 7.30858 79.9645 7.19622L80.2342 7.99526C80.5039 7.47089 79.6949 7.7206 80.2848 7.07138C80.9084 7.13381 80.7904 7.97029 80.4533 8.25744L81.1781 7.93283C81.2455 8.17006 81.0769 8.30739 81.06 8.61951C81.3297 8.09514 82.4251 9.36861 82.796 8.45721L82.8634 8.69442C84.5151 8.60703 85.2398 8.28242 86.588 8.2075C86.5544 7.50835 87.0937 7.64568 87.4644 7.07138C88.4757 7.27114 89.6217 7.78301 90.8015 7.68314C91.6273 7.30859 91.0037 7.08386 91.3577 6.65938C91.4587 7.29611 92.6554 7.19622 92.0655 7.68314C93.4981 7.53332 93.8858 7.49586 95.6891 6.92156C95.4869 6.67186 95.251 6.5595 95.352 6.33477C95.6722 6.2224 96.1105 6.58446 96.0767 6.8841L95.9925 6.95901C97.9981 5.93525 100.779 8.68193 102.346 7.29611L102.262 7.37102C102.818 7.12132 103.374 6.89658 103.931 6.65938C104.706 6.77174 103.475 7.14629 104.065 7.53332C105.852 6.45961 106.931 7.67065 108.414 6.95901C109.593 8.84424 112.526 6.8092 114.093 8.00775L114.009 7.55829C114.414 7.12132 114.498 7.80799 114.801 7.90786C114.751 7.55829 114.363 7.50835 114.616 7.27114C118.037 6.73428 121.678 7.84544 125.166 8.38229C126.447 8.53211 125.958 6.09756 127.543 7.19622L127.054 8.00775C129.683 7.08386 132.329 8.17006 134.908 7.3835C134.739 7.57078 134.722 7.82047 134.487 7.80799C134.992 8.41975 136.458 7.8829 136.492 7.39599C136.88 7.4584 136.559 7.84545 136.795 8.09514C137.318 8.45721 138.194 7.35853 138.431 7.97029C138.481 8.07017 138.261 8.15757 138.16 8.2075C138.532 7.92035 139.779 8.31987 139.491 7.62071C140.42 7.98278 141.329 7.34604 142.053 7.7955C142.609 7.0464 143.655 8.25744 143.89 7.17125C143.739 8.2949 145.492 8.17005 146.132 7.67065C145.897 7.99526 146.621 8.05768 146.351 8.50714C147.042 8.53211 147.684 8.35732 147.615 7.77053C148.762 9.18133 150.245 6.82168 150.8 8.58206C152.89 8.08265 154.812 7.77053 156.682 7.60822C156.498 8.73187 154.644 7.60822 154.594 8.79429C156.38 8.41975 157.491 7.50835 159.177 7.8829C159.598 8.05768 158.873 8.35732 158.689 8.5446C160.475 8.18254 162.026 8.79429 163.644 8.33236C163.626 8.43224 163.442 8.53211 163.272 8.60703C163.576 8.59454 163.964 8.83175 163.98 8.31987L163.66 8.43224C163.272 7.64568 165.059 6.99647 165.178 6.60943C164.47 8.02024 166.66 7.10883 165.581 8.88169C165.801 8.80678 166.07 8.58206 166.07 8.23247C166.357 8.35732 166.424 8.56957 166.07 8.93163C167.2 8.74436 166.88 8.17005 167.873 8.26993C167.841 8.51962 167.621 8.59454 167.487 8.88169C168.043 8.44472 168.616 8.00775 169.425 8.28242C169.357 8.43224 169.425 8.63199 169.172 8.60703C170.605 8.65696 171.801 7.53332 173.3 8.1326C172.677 9.16885 173.773 8.53211 173.723 9.46848L174.615 9.26872L174.346 8.79429C175.087 8.86921 175.845 8.25744 176.436 8.60703L175.829 8.94411L177.244 8.88169L176.519 8.46969C177.345 8.05768 176.638 7.29611 177.582 7.6332C177.363 7.70811 178.322 7.70811 178.609 8.28242C179.03 8.02024 179.453 7.74557 179.957 8.02024C180.042 8.33236 179.672 9.03151 179.722 9.24375C180.21 8.50714 181.491 9.18133 182.098 8.39478C181.913 8.56957 181.812 9.05649 181.845 9.16885L182.267 8.56957C182.571 8.79429 182.604 8.90667 182.486 9.28121C183.498 9.48097 182.369 8.08265 183.498 8.69442C183.397 8.73187 183.413 8.83175 183.211 8.90667C184.39 9.25624 185.655 8.71939 186.717 9.18133C186.869 10.1552 185.688 9.29369 185.924 10.1177C187.575 10.1427 189.481 9.40606 191.015 9.80558L190.744 9.66825C191.233 8.38229 191.772 10.4548 192.7 9.93043C192.48 10.0053 192.295 10.6296 192.379 10.4922C193.407 10.8293 194.637 10.4298 196.357 10.2176L196.087 10.5297C196.66 10.9042 197.722 10.9042 198.362 11.1415C198.633 10.8293 199.019 10.9292 198.884 10.4173C200.553 12.5772 203.149 9.88048 204.632 11.6908C204.413 11.6658 204.025 11.9155 204.211 11.9405L205.879 11.8156C205.895 11.2289 205.761 11.4411 205.525 10.9667C205.812 10.6546 206.318 10.4423 206.722 10.4922C205.913 10.7794 206.502 11.4036 206.739 11.7532C206.722 11.5784 206.89 11.3912 206.907 11.2164C207.479 12.3275 207.329 10.0802 208.306 10.9167L208.171 11.2039C208.626 11.1165 209.114 10.7794 209.553 10.9417C209.57 11.6284 209.031 11.1789 208.861 11.7158C209.503 11.7782 210.446 10.667 210.85 11.4161C210.53 11.5535 210.144 11.5035 209.822 11.6409C210.261 12.5148 210.379 12.3275 210.818 12.5148L210.783 12.4898L211.777 13.0017L211.558 12.752C212.806 11.1664 213.26 12.6896 214.642 11.7407C213.311 12.6397 214.306 12.3275 214.019 13.0517C214.239 13.3014 214.592 13.601 214.424 13.7883C215.097 13.2639 215.148 14.3875 216.093 13.626C216.058 13.8757 216.631 13.7383 216.345 14.3126C217.054 14.2253 216.311 13.8757 216.447 13.5885C217.693 12.9393 218.553 14.9493 220.34 14.0629C221.738 13.8007 222.193 13.0392 223.491 12.8144C223.778 13.2514 222.918 13.626 222.918 13.626C223.458 14.0754 223.946 14.0879 224.637 13.9131C224.451 14.1004 224.52 14.3001 224.637 14.5874C225.143 14.5999 225.227 13.7758 225.75 14.2253C225.564 14.475 225.295 14.8744 224.974 15.0992C225.615 14.9743 226.305 14.6122 226.963 14.4874C226.997 14.9244 226.424 15.0618 226.121 15.2989C226.845 15.2115 227.94 15.1865 228.362 14.5624L228.008 14.2626C228.261 14.2751 227.958 14.8494 227.739 14.9369C227.013 15.3614 226.997 14.5874 227.031 14.3376L227.503 14.2503C227.503 12.7895 225.75 14.2128 224.923 14.0005L225.581 13.0392L224.469 13.7508C224.368 13.4636 224.401 12.8769 224.873 12.7895C224.419 12.1902 224.233 13.0642 223.879 12.4274C223.845 12.3275 223.895 12.2901 223.946 12.2526L223.255 12.4649C223.44 12.2651 223.373 11.7283 223.693 11.9405C222.8 11.1914 221.756 12.4274 221.57 11.6034L221.604 11.5035C220.02 11.6159 221.25 12.2277 219.885 12.9268L219.666 10.9667L219.312 11.6908C219.16 11.6409 218.873 11.541 219.025 11.2413C218.317 11.6658 219.025 11.5784 218.57 12.0154C218.031 11.2164 216.463 12.0154 216.615 10.8044C216.194 11.3287 217.205 11.3537 216.311 11.6284C216.429 10.3175 215.35 11.7033 214.828 11.0166C215.216 10.3924 215.755 10.8418 215.249 10.1427C214.542 11.1914 214.003 9.69321 213.379 9.81807C213.11 10.7045 212.048 9.99285 211.02 10.1427C211.154 9.85551 209.351 9.36861 208.542 8.91915L208.61 8.76933C208.205 9.65576 207.329 9.36861 206.621 9.48097C206.773 8.94411 206.957 8.74436 207.378 8.5446L206.739 8.46969C206.52 8.74436 206.283 8.86921 205.846 8.91915L206.166 8.26993C205.306 8.2075 204.278 8.85672 203.301 8.28242C203.098 8.90667 203.738 10.1427 202.508 10.4173C202.542 10.0678 202.643 9.48097 202.963 9.38108C202.862 9.41854 202.542 9.6183 202.39 9.456L202.981 8.93163C202.542 8.61951 202.609 9.38108 202.239 9.28121C202.356 8.79429 202.036 8.89418 202.172 8.51963C202.289 8.48218 202.475 8.75685 202.66 8.59454C202.239 8.45721 201.767 8.10763 201.682 7.70811C201.666 7.99526 201.53 8.35732 201.194 8.38229C200.351 8.31987 201.042 7.75804 200.604 7.4584C200.317 7.77053 199.863 7.35853 199.693 8.08265C199.44 8.04521 199.475 7.70811 199.424 7.49586C198.918 7.75804 197.368 7.34604 197.688 8.18254L197.789 8.24496C197.773 8.25744 197.739 8.25744 197.704 8.26993C196.12 8.81926 194.839 7.50835 193.356 7.64568L193.407 7.39599C192.514 7.57078 191.503 7.33356 190.794 7.78301C190.542 7.75804 190.289 7.27114 190.458 6.98399C189.784 7.09635 189.649 7.35853 188.789 6.84665C189.514 6.49707 188.637 6.44713 189.514 6.60943C188.722 6.29731 188.603 5.88531 187.575 6.44713C187.998 5.86034 187.087 5.58567 186.666 5.723L187.171 6.23489C186.699 6.27234 186.329 6.17246 185.94 6.07259L186.312 5.27354C184.761 4.07499 182.891 6.69683 181.863 4.899C181.306 5.43585 182.739 5.38591 182.199 6.02264C181.424 5.84785 180.801 4.58688 180.548 4.56191C179.536 4.01257 179.318 5.67307 178.239 5.27354C178.34 5.58567 178.34 6.37222 177.446 6.58446C176.671 6.40968 176.671 5.26106 177.211 5.07379C177.413 5.06131 177.48 5.16118 177.464 5.26106C177.733 5.17367 178.104 5.07379 177.834 4.7367L177.683 5.02385C177.329 4.68675 176.234 4.62434 176.57 4.16239C175.93 4.38711 176.234 4.62434 176.655 4.8116C175.694 4.29973 175.054 4.66178 174.059 4.28724C174.194 4.46203 174.295 4.82409 174.144 4.8116C172.66 4.31221 173.385 5.311 172.323 5.34846C171.801 4.84906 172.693 4.29973 171.582 4.58688C170.991 4.22481 171.564 3.78784 171.851 3.5756C170.807 4.0625 170.115 3.05123 169.575 2.90141L170.115 2.70166C169.795 2.81402 169.542 2.78905 169.29 2.76407L169.492 3.37584C169.205 3.25099 168.952 3.22602 169.003 2.97632C168.648 3.33838 169.104 3.97511 168.413 4.44954C168.059 4.11245 167.165 4.67427 167.133 3.87524C168.345 4.24978 167.098 3.0762 168.177 3.03874C167.958 3.11366 167.705 3.08868 167.436 2.96384C167.402 2.87644 167.503 2.80153 167.588 2.76407C166.491 1.96505 166.912 3.60056 165.682 3.47571C165.902 3.05123 165.514 2.61425 165.295 2.68917C165.783 2.7391 165.429 3.45074 164.941 3.75038C164.199 3.33838 164.047 3.93766 163.644 3.86275L164.098 4.0625C163.879 4.49948 163.492 4.38711 162.936 4.49948C162.936 4.14991 163.458 4.29973 163.29 4.12493C162.582 4.86154 162.009 3.25099 161.081 3.72542C160.728 3.40081 161.149 2.88892 160.812 2.67668C159.784 3.20105 159.834 2.01498 158.772 2.43946C158.992 3.05123 159.059 2.90141 158.284 3.45074L159.986 3.12614L158.823 3.93766C159.329 3.97511 159.919 3.62553 160.205 3.73791C159.648 4.19984 159.717 4.05002 159.885 4.54942C159.312 3.62553 158.469 4.99888 157.744 4.34966L157.93 2.87644C156.801 2.15231 155.739 3.51317 154.222 3.06371L154.695 3.35087C154.424 3.92517 153.734 3.37584 153.212 3.58809C153.313 3.10117 153.009 2.90141 152.823 2.58928C152.807 2.95135 151.694 2.48941 151.458 3.47571L150.834 2.78905C149.604 2.45195 149.284 4.11245 148.105 3.88773C148.509 3.37584 148.003 2.98881 148.829 2.65171C148.424 2.62674 148.07 2.51438 148.036 2.85148C147.834 2.52687 146.874 3.45075 146.537 2.96384C146.352 3.17607 146.251 3.68796 145.812 3.61305C145.778 3.51317 145.829 3.37584 145.829 3.37584C145.812 3.61305 145.104 3.66299 145.442 4.2373C144.329 2.65171 142.003 4.13742 141.025 2.81402C140.133 2.96384 139.07 3.08868 138.279 3.11366C138.346 2.96384 138.295 2.86395 138.447 2.92638C137.385 2.43946 137.688 4.3247 136.475 3.78784C135.885 2.97632 137.166 3.37584 136.779 3.06371C136.694 1.44067 135.262 3.25099 134.47 2.27716L134.672 2.18977C134.048 1.62795 133.071 2.76407 132.026 2.62674C132.026 2.62674 132.076 2.48941 132.043 2.37705C131.284 3.18856 129.919 3.42578 128.908 3.63802C129.245 3.01377 129.38 3.31341 129.211 2.6642C128.756 2.7391 129.312 3.70045 128.402 3.86275C128.116 3.51317 127.475 3.18856 127.425 2.50189L128.284 2.48941C127.88 1.59049 127.189 2.48941 126.734 2.3271L126.801 1.94007C125.487 2.03995 125.453 3.01377 124.054 2.91389L124.189 3.21353C123.397 4.16239 123.565 2.65171 122.79 3.35087L122.571 2.36456C122.065 2.5768 120.784 3.28845 119.874 3.4882C120.397 2.76407 121.459 2.36456 122.133 1.95256C121.627 1.9151 120.43 2.01498 120.161 2.50189C120.363 2.40202 120.616 2.1648 120.818 2.31462C120.195 3.08868 119.385 3.47571 118.391 3.46323C118.61 1.55303 115.829 3.0013 115.105 1.51558C113.335 2.22723 111.599 1.22843 109.526 1.35328C110.284 2.83899 108.919 1.40322 109.071 2.92638C108.599 3.02625 108.414 3.0013 108.363 2.90141L106.897 1.99001C106.543 1.55303 107.352 1.65292 107.301 1.30334C106.24 1.20346 106.846 0.666608 106.138 0.26709C106.29 0.816427 105.785 1.05364 105.178 0.841396L106.037 1.54055C104.605 2.36456 104.739 0.26709 103.273 1.07861L103.728 0.591698C102.97 0.866367 100.914 0.629153 100.223 1.87764C100.088 1.70285 99.8857 1.29085 100.223 1.17849C98.3856 1.05364 96.2453 2.60177 94.7959 1.89013L94.9139 1.51558C94.5768 1.62795 94.3576 2.23971 93.9194 1.87764C93.9363 1.72782 94.0374 1.5031 93.8858 1.47813C93.7172 1.61546 93.0262 2.1648 92.5542 1.95256L92.9083 1.51558C91.1049 1.07861 90.2453 2.62674 88.7959 2.92638C88.7285 1.8277 87.3128 1.51558 86.588 1.35328L86.6049 1.19098C84.5319 1.10358 83.1667 2.23971 81.296 2.77656C80.0151 1.65292 77.2511 2.50189 75.2791 1.94007C75.5826 2.12734 75.3129 2.80153 74.9926 2.92638C74.5207 2.75159 73.8298 3.77535 73.7961 2.76407L73.9645 2.77656C73.5264 1.81523 72.6331 2.12734 71.9084 2.13982L71.9421 3.46323C69.8523 1.64044 67.122 4.43706 65.8916 2.8265C65.4871 3.18856 64.9309 3.22602 64.5264 3.58809L64.459 2.88892C63.1782 2.80153 62.5546 2.76407 61.0209 3.06371L61.2738 2.53935C60.3973 2.56431 60.4647 4.6493 59.6727 4.76167L59.285 3.72542C57.7681 3.86275 56.0828 3.06371 54.7344 4.12493C54.7344 3.97511 54.7344 3.66299 54.9704 3.60056C54.2457 3.62553 52.0884 3.11366 52.5771 4.53693C52.4087 3.60056 50.9929 4.59936 50.2514 5.09875V4.3996C49.712 5.34846 49.7289 5.59816 48.8188 5.93525C48.5829 5.87282 48.5153 5.39839 48.8524 5.54821C48.0267 5.26106 48.3806 6.25986 47.3862 5.98518L47.6558 5.51077C46.8638 5.53573 46.9648 5.76046 46.6277 6.32228C46.1896 6.64689 45.111 6.29731 44.875 5.68554C44.8413 6.07258 44.5042 6.62192 44.0155 6.49707C43.9143 6.27234 44.0491 6.11004 44.1166 6.02264C42.7177 5.68554 42.33 7.02143 41.3019 6.43464C41.2346 6.20992 41.1504 6.09756 41.066 6.03513C42.1109 5.94774 42.9536 5.89779 42.8862 5.96022C42.7683 5.32349 41.8919 5.29852 42.3976 4.34966C41.8076 4.899 40.8638 6.04761 39.9874 5.83536C39.9368 5.77295 39.8863 5.723 39.8358 5.62313L39.9031 5.54821C39.7008 5.49828 39.5492 5.58567 39.4143 5.71052C39.1278 5.63561 38.9593 5.58567 38.7065 5.59815C38.5042 5.08627 37.6784 5.43585 37.2571 5.46082C37.4425 6.14749 36.8695 6.11004 37.4931 6.62192C37.4087 6.58446 37.5605 6.53453 37.8302 6.4721C37.8807 6.44713 37.965 6.42215 37.9987 6.38471L37.9818 6.44713C38.2515 6.3972 38.6054 6.33477 39.0098 6.27234C38.7571 6.65938 38.4706 7.00895 37.9312 6.67186C37.7964 7.12132 37.6616 7.60822 37.5773 7.84544C36.8021 6.94653 35.5885 6.55949 35.302 5.98518C34.1055 6.53453 32.3527 6.60943 31.847 8.00775C31.5268 8.21999 31.3414 7.68314 31.156 7.49586C31.3414 7.34604 31.5943 7.33356 31.6617 7.13381C31.0213 7.55829 29.5549 7.52083 29.5887 8.45721C28.5774 8.15757 29.9088 7.55829 28.6786 7.85793L28.7796 7.55829C25.965 6.43464 25.3752 10.4298 22.173 8.94411C22.3921 9.03151 22.4933 9.06897 22.5775 9.21879C19.2573 8.81926 16.4258 10.9167 13.0045 10.1177C12.0944 9.98036 12.1787 10.5796 11.7911 11.0915L11.3697 10.3924L10.7293 11.3912C9.66749 12.2277 7.9484 9.98036 6.70122 11.4411L7.07201 11.8906C6.46527 11.9031 5.33606 12.5148 5.2518 11.928C5.2181 12.0279 5.23495 12.4774 4.91473 12.2651L4.76304 11.8781L3.56642 12.802C2.38666 12.752 3.21249 11.2663 1.56083 11.5035C1.00465 11.7657 0.246234 12.9643 0.583308 13.1765C0.836115 13.139 1.29117 13.2889 1.4597 13.6635L0.987799 13.9756C1.32487 15.1117 1.40914 16.3351 2.94283 16.8596C3.14507 16.5724 3.36418 16.2853 3.58328 15.9981L4.07203 16.485L3.33047 16.6723C3.95406 17.0968 4.05518 16.5974 4.25743 16.2228C4.42596 16.4975 4.62822 16.6723 4.84731 16.7472L5.35292 15.4987C5.60573 15.9232 5.2518 16.4475 5.94281 16.5724C6.17876 15.9981 5.20124 15.661 5.77427 15.199C6.381 15.6236 6.39785 16.0605 6.76864 15.5361C6.93717 15.8108 6.88662 16.0231 6.73493 16.1854C7.07201 15.7608 7.89784 15.8233 7.93155 15.1865C8.6057 15.736 9.43153 14.7496 9.73491 15.8233C9.80231 15.5361 10.2742 14.8369 10.6787 14.7246C10.3079 16.1479 12.2798 14.5249 12.4989 15.9357C12.718 14.6872 14.4034 15.0867 15.2293 14.2876C15.1955 14.3875 15.145 14.5874 15.0438 14.5499C15.6506 14.5499 15.9203 14.8744 16.3416 15.0368C16.1393 14.0629 16.9652 13.7133 17.2853 13.0392C18.246 13.8507 17.1843 14.2378 17.6562 15.0867C17.4034 14.3126 18.6505 14.1129 18.2292 13.5136C18.9202 14.0005 18.7685 13.7133 19.2741 14.4625C19.0382 13.2514 19.7123 14.1753 19.9651 13.3762C20.909 13.8632 20.4707 14.475 21.2291 13.988C21.7347 14.2751 21.0943 14.7996 21.0943 14.7996ZM41.066 10.0802C41.066 10.0927 41.066 10.0927 41.066 10.0927C40.8975 10.1302 40.7459 10.1552 40.6447 10.1801C40.7459 10.1552 40.8638 10.1302 41.066 10.0802ZM42.802 9.89297C42.5829 9.89297 42.3132 9.90546 42.0435 9.94291C41.9425 9.70569 41.9593 9.456 42.1279 9.456C42.0773 9.6183 42.5155 9.71818 42.802 9.89297ZM38.1335 5.48579C38.3862 5.34846 38.5042 5.47331 38.5717 5.61064C38.4368 5.63561 38.302 5.68554 38.0997 5.74797C38.0997 5.77295 38.0829 5.8104 38.0829 5.83536C38.0997 5.71052 38.0997 5.58567 38.1335 5.48579Z" fill="#FF6610"/>
<path d="M37.8297 5.6695C37.7959 5.68198 37.7791 5.71943 37.7285 5.73192C37.7959 5.78186 37.8633 5.8318 37.9307 5.86925C37.9476 5.79435 37.9645 5.71943 37.9813 5.64453C37.9307 5.64453 37.8801 5.65702 37.8297 5.6695Z" fill="#FF6610"/>
<path d="M197.683 7.39448L197.65 7.36963C197.667 7.39449 197.7 7.43177 197.7 7.48147C197.683 7.44418 197.683 7.41934 197.683 7.39448Z" fill="#FF6610"/>
<path d="M67.0232 8.30506L67.0062 8.12988L66.8711 8.29255L67.0232 8.30506Z" fill="#FF6610"/>
<path d="M206.707 10.9146C206.707 10.9771 206.723 11.0397 206.79 11.1022C206.808 11.0647 206.757 10.9896 206.707 10.9146Z" fill="#FF6610"/>
<path d="M210.766 11.6636L211.289 12.0007C211.069 11.8259 210.901 11.726 210.766 11.6636Z" fill="#FF6610"/>
<path d="M213.82 12.4995C213.887 12.3872 213.921 12.2998 213.954 12.2124L213.82 12.4995Z" fill="#FF6610"/>
<path d="M163.25 7.80518C163.201 7.80518 163.167 7.80518 163.116 7.83015C162.829 7.93002 163.032 7.89257 163.25 7.80518Z" fill="#FF6610"/>
<path d="M178.593 7.45605C178.409 7.56842 178.239 7.68078 178.055 7.74321C178.308 7.81811 178.51 7.85557 178.593 7.45605Z" fill="#FF6610"/>
<path d="M177.35 7.66662C177.602 7.82892 177.821 7.81644 178.058 7.74154C177.839 7.67911 177.586 7.57923 177.35 7.66662Z" fill="#FF6610"/>
<path d="M227.338 14.9342L227.474 14.9842C227.49 14.9342 227.508 14.9092 227.524 14.8716L227.338 14.9342Z" fill="#FF6610"/>
<path d="M227.531 14.8838L227.718 14.8337C227.649 14.8212 227.582 14.8086 227.531 14.8838Z" fill="#FF6610"/>
<path d="M228.126 14.7095L227.723 14.8218C227.84 14.8467 227.992 14.8967 228.126 14.7095Z" fill="#FF6610"/>
<path d="M223.27 13.9717L223.152 14.2089C223.203 14.1715 223.236 14.084 223.27 13.9717Z" fill="#FF6610"/>
<path d="M221.988 13.8494C222.275 13.9493 222.595 14.4987 223.05 14.4112L223.152 14.224C222.848 14.5486 222.393 13.475 221.988 13.8494Z" fill="#FF6610"/>
<path d="M217.578 9.93888L218.588 10.3009C218.471 10.0013 218.337 9.61427 218.841 9.62676C217.712 8.62795 218.942 10.2635 217.578 9.93888Z" fill="#FF6610"/>
<path d="M214.378 9.04223C214.984 9.00477 214.479 8.65519 214.547 8.50537C214.108 8.69265 214.007 8.74259 214.378 9.04223Z" fill="#FF6610"/>
<path d="M190.255 5.94456L190.44 5.32031C189.985 5.35777 190.389 5.55753 190.255 5.94456Z" fill="#FF6610"/>
<path d="M185.027 8.65456L185.381 9.10402L185.701 8.55469L185.027 8.65456Z" fill="#FF6610"/>
<path d="M183.128 3.9084L183.331 3.8335L182.539 3.99579L183.128 3.9084Z" fill="#FF6610"/>
<path d="M142.055 1.31394L142.138 2.10049C142.459 1.98813 142.577 1.1017 142.055 1.31394Z" fill="#FF6610"/>
<path d="M124.254 1.68725C124.069 1.28772 123.58 1.02554 123.26 1.40008C123.664 1.475 124.052 1.78712 124.254 1.68725Z" fill="#FF6610"/>
<path d="M70.9295 1.72368L71.2666 1.43652L70.6094 1.6987L70.9295 1.72368Z" fill="#FF6610"/>
</svg>
