<svg width="186" height="15" viewBox="0 0 186 15" fill="none" xmlns="http://www.w3.org/2000/svg">
<path d="M185.358 12.5565C185.507 12.4065 185.575 12.0165 185.291 12.0466L184.899 12.6664L185.358 12.5565Z" fill="#FF6610"/>
<path d="M183.962 11.0854C183.557 11.3455 183.018 11.8453 183.045 12.4653C183.544 11.8954 183.544 12.1653 184.097 11.4754C184.38 11.4455 184.489 11.7553 184.38 11.9854C184.529 11.8353 184.745 12.1952 185.015 11.8054C184.826 11.2555 184.395 11.1655 183.813 11.5054C183.76 11.3555 183.909 11.2055 183.962 11.0854Z" fill="#FF6610"/>
<path d="M158.218 6.33594L158.366 6.43592C158.339 6.38592 158.285 6.35593 158.218 6.33594Z" fill="#FF6610"/>
<path d="M142.015 4.25718C142.136 4.25718 142.204 4.1872 142.217 4.13721C142.096 4.1572 141.988 4.1972 142.015 4.25718Z" fill="#FF6610"/>
<path d="M139.326 3.28758C139.381 3.31758 139.435 3.32757 139.488 3.34757C139.435 3.28758 139.367 3.24759 139.326 3.28758Z" fill="#FF6610"/>
<path d="M158.217 6.33612L157.826 6.07617C157.758 6.28613 158.029 6.25614 158.217 6.33612Z" fill="#FF6610"/>
<path d="M179.922 12.0851C180.017 12.0651 180.111 12.015 180.205 11.9551C180.124 11.9751 180.043 11.9851 179.962 11.9851C179.962 12.025 179.949 12.0551 179.922 12.0851Z" fill="#FF6610"/>
<path d="M165.513 6.6672L165.647 6.6772C165.702 6.60722 165.769 6.52722 165.824 6.42725L165.513 6.6672Z" fill="#FF6610"/>
<path d="M171.02 7.35709C170.898 7.31709 170.709 7.85698 170.602 8.09693C170.736 7.87698 170.845 7.787 170.966 7.757C170.992 7.64702 171.005 7.52705 171.02 7.35709Z" fill="#FF6610"/>
<path d="M179.366 9.67695L179.542 9.62695C179.502 9.63695 179.434 9.65695 179.366 9.67695Z" fill="#FF6610"/>
<path d="M161.608 6.06667C161.621 5.98668 161.621 5.90669 161.608 5.8667C161.58 5.93669 161.58 6.00667 161.608 6.06667Z" fill="#FF6610"/>
<path d="M7.93845 12.6454C7.92505 12.6055 7.91165 12.5854 7.91165 12.5454C7.88485 12.6155 7.89825 12.6554 7.93845 12.6454Z" fill="#FF6610"/>
<path d="M0.821113 11.1261L0.902093 11.0761C0.861604 10.9761 0.834611 10.8661 0.807617 10.7661L0.821113 11.1261Z" fill="#FF6610"/>
<path d="M134.306 2.13774C134.32 2.14774 134.32 2.14774 134.333 2.14774C134.468 2.09774 134.387 2.09774 134.306 2.13774Z" fill="#FF6610"/>
<path d="M86.9341 1.00781C87.4739 1.50772 86.0703 1.65768 86.8936 2.20758C86.8127 1.99762 87.6089 1.33775 86.9341 1.00781Z" fill="#FF6610"/>
<path d="M179.819 11.9948C179.738 11.9849 179.671 11.9849 179.59 11.9648C179.684 11.9948 179.752 12.0048 179.819 11.9948Z" fill="#FF6610"/>
<path d="M86.8926 2.21826L86.972 2.2776C86.9324 2.24792 86.919 2.23803 86.8926 2.21826Z" fill="#FF6610"/>
<path d="M122.401 1.73779C122.415 1.83777 122.455 1.91776 122.496 1.98775C122.496 1.92776 122.482 1.85777 122.401 1.73779Z" fill="#FF6610"/>
<path d="M131.129 3.00648L130.927 2.9165C131.008 2.97649 131.076 2.99648 131.129 3.00648Z" fill="#FF6610"/>
<path d="M117.747 2.27789C117.625 2.22789 117.599 2.14791 117.423 2.21789C117.437 2.24789 117.45 2.26789 117.463 2.28789C117.544 2.21789 117.625 2.18791 117.747 2.27789Z" fill="#FF6610"/>
<path d="M112.977 2.04688C113.004 2.08686 113.03 2.12686 113.058 2.16685C113.111 2.15685 113.166 2.14685 113.207 2.13685L112.977 2.04688Z" fill="#FF6610"/>
<path d="M21.8238 10.2267C21.6888 10.0868 21.5809 9.9268 21.4864 9.75684C21.6483 10.1468 21.0141 10.3867 21.8238 10.2267Z" fill="#FF6610"/>
<path d="M180.014 11.7754C179.946 11.9054 179.878 11.9754 179.812 11.9854C179.865 11.9854 179.919 11.9854 179.974 11.9754C180 11.9054 180.027 11.8354 180.014 11.7754Z" fill="#FF6610"/>
<path d="M117.191 6.69712L116.449 6.57715C116.651 6.63714 116.921 6.67714 117.191 6.69712Z" fill="#FF6610"/>
<path d="M55.2931 6.78662L55.1311 6.86661C55.1986 6.86661 55.2526 6.84661 55.2931 6.78662Z" fill="#FF6610"/>
<path d="M114.223 6.53638C114.102 6.32642 113.967 6.20645 113.833 6.12646C113.792 6.16645 113.765 6.20645 113.737 6.26644L114.223 6.53638Z" fill="#FF6610"/>
<path d="M16.9921 12.378C17.6939 12.298 17.1271 11.6181 17.1676 11.1882C17.9504 10.8683 17.6939 11.668 18.0854 11.998C18.5577 11.7281 18.7737 11.0083 19.1786 10.9882C19.2326 11.1083 19.327 11.1382 19.2731 11.2981C19.678 10.6483 20.9062 11.0382 21.3651 10.2184C21.4325 10.2784 21.473 10.3384 21.5 10.3884C21.311 10.0384 21.2031 9.66849 21.1491 9.40854C21.4596 9.34855 21.6215 8.86864 21.8644 9.32856C21.662 9.33856 21.7025 9.53852 21.6485 9.69848L21.9319 9.44853C22.3908 10.0884 21.5405 9.74847 21.662 10.2484C22.2424 9.93843 22.8631 9.26857 23.403 9.38854C23.6595 10.0384 22.3098 9.77847 23.1062 10.2784L22.2829 10.1284C23.1196 11.0982 21.7969 10.1184 22.6068 11.1682C23.6459 11.2181 23.6459 10.6683 24.6852 10.7383C24.8202 10.3384 24.4828 10.1984 24.6178 9.79847C25.9 8.95863 26.1294 11.3482 26.9796 10.3284C27.1551 9.84845 27.0606 8.98862 27.9109 9.34855L27.8029 10.1384C28.7882 10.0984 28.1134 8.97863 29.2471 9.36854C29.1256 9.68849 28.5318 9.70848 28.7072 9.78847C29.5035 10.3084 29.0851 9.29856 29.5845 9.23857L29.841 9.89845C30.8532 9.66849 31.8924 9.03861 33.0261 8.78866C32.9992 8.99862 32.8507 9.22857 33.1611 9.40854C34.5512 8.92863 36.2923 9.17859 37.7635 9.43854L38.1954 8.79866C38.3169 8.78866 38.4788 9.03861 38.3574 9.16859C38.9377 9.33856 38.3169 8.79866 38.5463 8.53871C38.8566 8.46872 39.0187 8.82865 38.8566 9.02861C39.734 8.43873 41.421 7.68887 42.5413 8.20877L42.3658 8.39873C43.2026 8.5587 43.0676 7.10899 43.8909 7.59889L43.7695 7.70887C45.5375 7.82885 47.373 7.13898 48.8172 7.91883C48.9522 7.059 50.5718 8.15878 50.5313 6.97901C51.5976 7.47891 51.3411 7.71887 52.7853 7.99882C53.1632 8.01881 53.2442 7.21896 53.6895 7.069L53.7839 7.67887L54.3238 6.98901L54.7422 7.69887L55.1471 7.50891C54.9717 7.48891 54.7558 7.25896 54.7558 7.079C55.39 6.74906 56.4564 7.40893 56.4969 7.71887L58.0354 7.10899C58.0219 7.35894 57.7655 7.45892 57.5765 7.62889C58.3593 6.95902 57.806 8.26876 58.5213 7.64889C58.3998 7.51891 58.5348 7.27896 58.5348 7.15898C58.9666 7.50891 59.844 7.45892 60.4918 7.26896L60.4108 7.69887C61.5985 7.73887 62.8807 7.35894 64.2034 7.28896C63.704 7.11898 63.7445 6.37913 64.1359 6.28915L64.3518 6.92903C64.5678 6.5091 63.92 6.70907 64.3923 6.18917C64.8917 6.23916 64.7973 6.90903 64.5273 7.13898L65.1077 6.87903C65.1617 7.069 65.0267 7.17898 65.0131 7.42893C65.2291 7.00901 66.1064 8.02881 66.4034 7.29895L66.4573 7.48891C67.78 7.41893 68.3604 7.15898 69.4401 7.09899C69.4131 6.5391 69.845 6.64908 70.1419 6.18917C70.9517 6.34914 71.8695 6.75906 72.8143 6.67907C73.4756 6.37913 72.9762 6.19917 73.2597 5.85924C73.3406 6.36914 74.2989 6.28915 73.8265 6.67907C74.9737 6.5591 75.2842 6.5291 76.7282 6.06919C76.5663 5.86923 76.3774 5.77925 76.4583 5.59928C76.7148 5.5093 77.0657 5.79924 77.0387 6.0392L76.9713 6.09919C78.5774 5.27935 80.8042 7.47891 82.0595 6.36914L81.992 6.42912C82.4374 6.22916 82.8828 6.04919 83.3281 5.85924C83.949 5.94921 82.9637 6.24916 83.4361 6.5591C84.8668 5.69926 85.7306 6.66908 86.9183 6.09919C87.863 7.60889 90.2115 5.97921 91.4666 6.93902L91.3991 6.57909C91.7231 6.22916 91.7905 6.77905 92.0334 6.85903C91.9929 6.57909 91.6826 6.5391 91.885 6.34914C94.6248 5.91922 97.5401 6.80905 100.334 7.23896C101.36 7.35894 100.968 5.40933 102.237 6.28915L101.846 6.93902C103.951 6.19917 106.07 7.069 108.135 6.43912C108 6.58909 107.987 6.78905 107.798 6.77905C108.202 7.26896 109.377 6.83905 109.404 6.44912C109.714 6.4991 109.458 6.80905 109.647 7.00901C110.065 7.29895 110.767 6.41912 110.956 6.90903C110.997 6.98901 110.82 7.059 110.739 7.09899C111.037 6.86903 112.035 7.18898 111.806 6.62908C112.549 6.91903 113.277 6.40912 113.857 6.76905C114.303 6.16917 115.14 7.13898 115.328 6.26915C115.207 7.16898 116.611 7.069 117.123 6.66907C116.935 6.92903 117.515 6.97901 117.299 7.33894C117.853 7.35894 118.366 7.21896 118.311 6.74906C119.23 7.87884 120.417 5.98921 120.862 7.39893C122.536 6.99901 124.075 6.74906 125.572 6.61908C125.424 7.51891 123.94 6.61908 123.899 7.56889C125.33 7.26896 126.22 6.5391 127.57 6.83905C127.907 6.97901 127.327 7.21896 127.179 7.36894C128.61 7.079 129.851 7.56889 131.147 7.19898C131.133 7.27896 130.985 7.35894 130.85 7.41893C131.093 7.40893 131.403 7.59889 131.417 7.18898L131.16 7.27896C130.85 6.64908 132.28 6.12918 132.375 5.81924C131.808 6.94902 133.562 6.21916 132.698 7.63889C132.875 7.57889 133.09 7.39893 133.09 7.11898C133.32 7.21896 133.374 7.38894 133.09 7.67887C133.994 7.52891 133.738 7.069 134.534 7.14898C134.508 7.34894 134.332 7.40893 134.224 7.63889C134.67 7.28896 135.129 6.93902 135.777 7.15898C135.722 7.27896 135.777 7.43892 135.574 7.41893C136.721 7.45892 137.679 6.5591 138.88 7.039C138.381 7.86884 139.259 7.35894 139.218 8.10879L139.933 7.94882L139.717 7.56889C140.311 7.62889 140.918 7.13898 141.391 7.41893L140.905 7.68887L142.038 7.63889L141.458 7.30895C142.119 6.97901 141.553 6.36914 142.308 6.63908C142.133 6.69907 142.902 6.69907 143.132 7.15898C143.469 6.94902 143.807 6.72907 144.211 6.94902C144.279 7.19898 143.982 7.75886 144.023 7.92882C144.413 7.33894 145.439 7.87884 145.925 7.24896C145.777 7.38893 145.696 7.77886 145.723 7.86884L146.061 7.38893C146.304 7.56889 146.33 7.65889 146.236 7.95882C147.046 8.11879 146.142 6.99901 147.046 7.48891C146.965 7.51891 146.978 7.59889 146.816 7.65888C147.761 7.93882 148.774 7.50891 149.624 7.87884C149.746 8.65868 148.8 7.96882 148.989 8.62869C150.312 8.64868 151.838 8.0588 153.066 8.37874L152.849 8.26877C153.241 7.23896 153.672 8.89864 154.415 8.47872C154.239 8.53871 154.091 9.03861 154.158 8.92863C154.981 9.19858 155.967 8.87864 157.344 8.70868L157.128 8.95863C157.587 9.25857 158.437 9.25857 158.95 9.44853C159.166 9.19858 159.476 9.27856 159.368 8.86864C160.704 10.5983 162.783 8.43873 163.971 9.88845C163.796 9.86845 163.485 10.0684 163.634 10.0884L164.969 9.98843C164.982 9.51852 164.875 9.68849 164.686 9.30856C164.915 9.05861 165.321 8.88864 165.645 8.92863C164.997 9.15859 165.468 9.65849 165.658 9.93843C165.645 9.79847 165.779 9.64849 165.792 9.50852C166.251 10.3983 166.131 8.5987 166.913 9.26857L166.805 9.49852C167.169 9.42854 167.56 9.15859 167.912 9.28856C167.925 9.83845 167.493 9.47852 167.358 9.90844C167.871 9.95843 168.626 9.06861 168.95 9.66849C168.694 9.77847 168.384 9.73847 168.127 9.84845C168.479 10.5483 168.573 10.3983 168.924 10.5483L168.897 10.5283L169.693 10.9382L169.517 10.7383C170.517 9.46852 170.88 10.6883 171.987 9.92843C170.921 10.6483 171.718 10.3984 171.488 10.9782C171.664 11.1782 171.947 11.4181 171.812 11.5682C172.352 11.1482 172.392 12.048 173.148 11.4381C173.121 11.6381 173.58 11.5281 173.351 11.988C173.918 11.9181 173.324 11.6381 173.432 11.4081C174.43 10.8882 175.119 12.4979 176.55 11.7881C177.669 11.5781 178.034 10.9682 179.073 10.7883C179.303 11.1382 178.614 11.4381 178.614 11.4381C179.047 11.7981 179.437 11.8081 179.991 11.668C179.842 11.8181 179.897 11.978 179.991 12.208C180.396 12.218 180.463 11.5582 180.882 11.9181C180.733 12.118 180.518 12.4379 180.261 12.6179C180.774 12.5179 181.327 12.2279 181.853 12.128C181.881 12.478 181.422 12.588 181.179 12.7778C181.759 12.7079 182.636 12.6879 182.974 12.188L182.691 11.948C182.893 11.958 182.65 12.4179 182.475 12.488C181.894 12.8279 181.881 12.208 181.908 12.0081L182.286 11.9381C182.286 10.7683 180.882 11.9081 180.22 11.7381L180.747 10.9682L179.857 11.5381C179.776 11.3081 179.802 10.8383 180.18 10.7683C179.816 10.2884 179.667 10.9882 179.384 10.4783C179.356 10.3984 179.397 10.3684 179.437 10.3384L178.885 10.5083C179.032 10.3484 178.979 9.91844 179.235 10.0884C178.52 9.48852 177.684 10.4783 177.535 9.81845L177.562 9.73847C176.293 9.82845 177.279 10.3184 176.185 10.8783L176.01 9.30856L175.726 9.88845C175.605 9.84845 175.375 9.76847 175.497 9.52852C174.93 9.86845 175.497 9.79847 175.132 10.1484C174.701 9.50852 173.445 10.1484 173.567 9.17859C173.229 9.5985 174.04 9.6185 173.324 9.83845C173.418 8.78866 172.554 9.89845 172.136 9.34855C172.447 8.84865 172.878 9.20858 172.473 8.64868C171.907 9.48852 171.475 8.28875 170.976 8.38874C170.76 9.09859 169.909 8.52871 169.086 8.64868C169.193 8.41873 167.75 8.02881 167.102 7.66888L167.156 7.54891C166.832 8.25877 166.131 8.02881 165.564 8.11879C165.685 7.68887 165.833 7.52891 166.17 7.36894L165.658 7.30895C165.483 7.52891 165.293 7.62889 164.943 7.66888L165.199 7.14898C164.51 7.09899 163.687 7.61889 162.905 7.15898C162.743 7.65888 163.255 8.64868 162.27 8.86864C162.297 8.5887 162.378 8.11879 162.634 8.0388C162.553 8.0688 162.297 8.22877 162.176 8.0988L162.648 7.67887C162.297 7.42893 162.351 8.0388 162.054 7.95882C162.148 7.56889 161.892 7.64889 162 7.34894C162.095 7.31895 162.243 7.53891 162.391 7.40893C162.054 7.29895 161.676 7.01901 161.609 6.69907C161.595 6.92903 161.487 7.21896 161.218 7.23896C160.542 7.18898 161.096 6.73906 160.745 6.4991C160.515 6.74906 160.152 6.41912 160.016 6.99901C159.813 6.96902 159.841 6.69907 159.8 6.5291C159.395 6.73906 158.154 6.40912 158.41 7.079L158.491 7.12898C158.478 7.13898 158.45 7.13898 158.423 7.14898C157.154 7.58889 156.129 6.5391 154.941 6.64908L154.981 6.44912C154.267 6.58909 153.457 6.39913 152.889 6.75906C152.687 6.73906 152.484 6.34914 152.62 6.11919C152.081 6.20917 151.972 6.41912 151.284 6.00921C151.864 5.72926 151.162 5.68926 151.864 5.81924C151.23 5.56929 151.135 5.23935 150.312 5.68926C150.65 5.21936 149.921 4.9994 149.584 5.10938L149.988 5.5193C149.61 5.54929 149.313 5.46931 149.002 5.38933L149.3 4.74945C148.058 3.78964 146.56 5.88923 145.737 4.44951C145.291 4.87942 146.439 4.83943 146.006 5.34933C145.386 5.20936 144.886 4.19956 144.684 4.17956C143.874 3.73965 143.699 5.06939 142.835 4.74945C142.916 4.9994 142.916 5.62928 142.2 5.79924C141.579 5.65928 141.579 4.73945 142.012 4.58949C142.174 4.57949 142.227 4.65947 142.214 4.73945C142.43 4.66947 142.727 4.58949 142.511 4.31954L142.389 4.54949C142.106 4.27954 141.229 4.22956 141.498 3.85963C140.986 4.03959 141.229 4.22956 141.566 4.37952C140.797 3.96961 140.284 4.25954 139.488 3.95961C139.596 4.09958 139.677 4.38952 139.555 4.37952C138.368 3.9796 138.948 4.77945 138.097 4.80944C137.679 4.40952 138.394 3.96961 137.504 4.19956C137.031 3.90961 137.49 3.55968 137.72 3.38972C136.883 3.77964 136.329 2.9698 135.897 2.84982L136.329 2.68986C136.073 2.77984 135.871 2.75984 135.668 2.73984L135.83 3.22975C135.6 3.12977 135.398 3.10977 135.438 2.90981C135.155 3.19975 135.519 3.70965 134.967 4.08958C134.683 3.81963 133.967 4.26954 133.941 3.62967C134.912 3.92961 133.913 2.98979 134.777 2.9598C134.602 3.01979 134.4 2.99979 134.184 2.89981C134.156 2.82982 134.237 2.76984 134.305 2.73984C133.427 2.09997 133.765 3.40971 132.779 3.30973C132.956 2.9698 132.645 2.61987 132.47 2.67986C132.86 2.71984 132.577 3.28973 132.186 3.52968C131.592 3.19975 131.47 3.67966 131.147 3.61967L131.511 3.77964C131.336 4.12957 131.026 4.03959 130.58 4.12957C130.58 3.84963 130.998 3.96961 130.864 3.82963C130.297 4.41952 129.838 3.12977 129.095 3.5097C128.812 3.24975 129.149 2.83982 128.879 2.66986C128.056 3.08977 128.096 2.13996 127.246 2.47989C127.422 2.9698 127.476 2.84982 126.855 3.28973L128.218 3.02979L127.286 3.67966C127.691 3.70965 128.164 3.42971 128.393 3.5197C127.948 3.88961 128.002 3.76964 128.137 4.16956C127.678 3.42971 127.003 4.52949 126.423 4.00959L126.572 2.82982C125.667 2.24994 124.817 3.33973 123.602 2.9798L123.98 3.20975C123.764 3.66966 123.211 3.22975 122.793 3.39972C122.874 3.00979 122.631 2.84982 122.482 2.59987C122.469 2.88982 121.578 2.51989 121.388 3.30973L120.889 2.75984C119.904 2.48989 119.648 3.81963 118.703 3.63967C119.027 3.22975 118.622 2.91981 119.283 2.64986C118.959 2.62986 118.676 2.53988 118.648 2.80983C118.486 2.54988 117.718 3.28974 117.448 2.89981C117.3 3.06978 117.219 3.4797 116.867 3.41971C116.84 3.33973 116.88 3.22975 116.88 3.22975C116.867 3.41971 116.3 3.4597 116.571 3.91961C115.68 2.64986 113.817 3.83963 113.034 2.77984C112.319 2.89981 111.468 2.99979 110.835 3.01979C110.888 2.89981 110.848 2.81982 110.969 2.86982C110.119 2.47989 110.362 3.9896 109.39 3.55968C108.918 2.90981 109.943 3.22975 109.633 2.9798C109.566 1.68005 108.418 3.12977 107.784 2.34992L107.946 2.27993C107.447 1.83002 106.664 2.73984 105.827 2.62986C105.827 2.62986 105.867 2.51989 105.841 2.42991C105.233 3.07977 104.14 3.26974 103.33 3.4397C103.6 2.9398 103.708 3.17975 103.573 2.65986C103.209 2.71984 103.654 3.4897 102.925 3.61967C102.696 3.33973 102.183 3.07977 102.142 2.52989L102.831 2.51989C102.507 1.80003 101.954 2.51989 101.589 2.38991L101.643 2.07998C100.59 2.15996 100.563 2.9398 99.4431 2.85982L99.551 3.09977C98.9168 3.85963 99.0518 2.64986 98.4309 3.20975L98.2554 2.41991C97.8505 2.58987 96.8248 3.15977 96.0959 3.31973C96.5143 2.73984 97.3647 2.41991 97.9044 2.08997C97.4996 2.05998 96.5414 2.13996 96.3254 2.52989C96.4874 2.4499 96.6898 2.25994 96.8518 2.37991C96.3524 2.99979 95.7045 3.30973 94.9082 3.29973C95.0837 1.77003 92.8567 2.92981 92.2764 1.74004C90.8593 2.30993 89.4691 1.51008 87.809 1.61006C88.4163 2.79984 87.3232 1.65006 87.4446 2.86982C87.0667 2.9498 86.9183 2.92981 86.8778 2.84982L85.7035 2.11996C85.4201 1.77003 86.0679 1.85002 86.0274 1.57007C85.1772 1.49009 85.663 1.06017 85.0962 0.740234C85.2177 1.18015 84.8128 1.37011 84.3269 1.20014L85.0152 1.76003C83.868 2.41991 83.9759 0.740234 82.8018 1.39011L83.1662 1.00018C82.5589 1.22014 80.9123 1.03018 80.3589 2.02998C80.2509 1.89001 80.089 1.56007 80.3589 1.47009C78.8877 1.37011 77.1737 2.60987 76.013 2.03998L76.1075 1.74004C75.8375 1.83002 75.662 2.31993 75.3111 2.02998C75.3247 1.91 75.4056 1.73004 75.2842 1.71004C75.1492 1.82002 74.5958 2.25994 74.2178 2.08997L74.5014 1.74004C73.0572 1.39011 72.3689 2.62986 71.2082 2.86982C71.1542 1.98999 70.0205 1.74004 69.4401 1.61006L69.4535 1.48009C67.7935 1.4101 66.7002 2.31993 65.2022 2.74984C64.1764 1.85002 61.963 2.52989 60.3838 2.07998C60.6268 2.22994 60.4108 2.76984 60.1544 2.86982C59.7765 2.72984 59.2231 3.54968 59.1962 2.73984L59.3311 2.74984C58.9802 1.98 58.2649 2.22994 57.6845 2.23994L57.7115 3.29973C56.038 1.84002 53.8515 4.07958 52.8662 2.78984C52.5423 3.07977 52.0968 3.10977 51.7729 3.39972L51.719 2.83982C50.6933 2.76984 50.1939 2.73984 48.9657 2.9798L49.1682 2.55988C48.4663 2.57987 48.5202 4.24954 47.886 4.33953L47.5756 3.5097C46.3608 3.61967 45.0112 2.9798 43.9314 3.82963C43.9314 3.70965 43.9314 3.4597 44.1203 3.40971C43.5401 3.42971 41.8125 3.01979 42.2038 4.15956C42.0689 3.40971 40.9352 4.20956 40.3413 4.60947V4.04959C39.9094 4.80944 39.923 5.0094 39.1941 5.27935C39.0052 5.22936 38.9511 4.84943 39.2211 4.9694C38.5598 4.73945 38.8432 5.5393 38.0469 5.31933L38.2628 4.93942C37.6285 4.9594 37.7094 5.13937 37.4395 5.58928C37.0886 5.84924 36.2248 5.56929 36.0359 5.07938C36.0089 5.38933 35.7389 5.82924 35.3476 5.72926C35.2666 5.54929 35.3745 5.41932 35.4286 5.34933C34.3083 5.07938 33.9979 6.14917 33.1746 5.67927C33.1206 5.49931 33.0532 5.40933 32.9856 5.35933C33.8224 5.28935 34.4972 5.24935 34.4433 5.29935C34.3488 4.78944 33.647 4.76945 34.0519 4.00959C33.5795 4.44951 32.8237 5.36933 32.1218 5.19936C32.0813 5.14937 32.0409 5.10938 32.0004 5.0294L32.0544 4.9694C31.8924 4.92942 31.771 4.9994 31.6629 5.09938C31.4335 5.0394 31.2985 4.9994 31.0961 5.0094C30.9341 4.59947 30.2728 4.87942 29.9354 4.89942C30.0839 5.44931 29.625 5.41932 30.1244 5.82924C30.0568 5.79924 30.1784 5.75926 30.3943 5.70926C30.4348 5.68926 30.5023 5.66927 30.5293 5.63928L30.5157 5.68926C30.7317 5.64928 31.0151 5.59928 31.339 5.54929C31.1366 5.85923 30.9072 6.13917 30.4752 5.86923C30.3673 6.22916 30.2594 6.61908 30.1918 6.80905C29.571 6.08919 28.5992 5.77924 28.3697 5.31933C27.4116 5.75926 26.0079 5.81924 25.603 6.93902C25.3465 7.10899 25.1981 6.67907 25.0496 6.5291C25.1981 6.40912 25.4006 6.39912 25.4545 6.23916C24.9417 6.57909 23.7674 6.5491 23.7945 7.29895C22.9847 7.059 24.0509 6.57909 23.0657 6.81905L23.1466 6.57909C20.8926 5.67926 20.4203 8.87864 17.8559 7.68887C18.0314 7.75886 18.1124 7.78886 18.1798 7.90884C15.521 7.58889 13.2535 9.26857 10.5137 8.62869C9.78492 8.51871 9.85241 8.99862 9.54198 9.40854L9.20456 8.84865L8.69169 9.64849C7.84141 10.3184 6.46475 8.51871 5.46599 9.68849L5.76292 10.0484C5.27704 10.0584 4.37276 10.5483 4.30529 10.0784C4.27829 10.1584 4.29179 10.5183 4.03535 10.3484L3.91388 10.0384L2.95562 10.7783C2.01086 10.7383 2.67219 9.54851 1.34952 9.73847C0.904131 9.94843 0.296782 10.9082 0.566714 11.0782C0.769164 11.0482 1.13357 11.1682 1.26854 11.4682L0.890633 11.7181C1.16057 12.6279 1.22805 13.6077 2.45624 14.0276C2.6182 13.7976 2.79366 13.5677 2.96912 13.3377L3.36051 13.7277L2.76667 13.8777C3.26604 14.2176 3.34702 13.8177 3.50898 13.5177C3.64395 13.7377 3.80591 13.8777 3.98136 13.9377L4.38626 12.9379C4.58872 13.2778 4.30529 13.6977 4.85865 13.7976C5.0476 13.3377 4.2648 13.0678 4.72368 12.6979C5.20956 13.0379 5.22305 13.3878 5.51998 12.9678C5.65494 13.1878 5.61446 13.3578 5.49299 13.4878C5.76292 13.1478 6.42425 13.1978 6.45125 12.6879C6.99112 13.1278 7.65245 12.3379 7.8954 13.1978C7.94937 12.9678 8.32729 12.4079 8.65121 12.3179C8.35428 13.4577 9.93338 12.158 10.1088 13.2878C10.2843 12.288 11.634 12.6079 12.2954 11.968C12.2683 12.048 12.2278 12.208 12.1468 12.178C12.6327 12.178 12.8487 12.4379 13.1861 12.5679C13.0241 11.7881 13.6855 11.5081 13.9418 10.9682C14.7112 11.6181 13.8609 11.9281 14.2388 12.6079C14.0364 11.988 15.0351 11.8281 14.6977 11.3482C15.2511 11.7381 15.1295 11.5081 15.5345 12.108C15.3455 11.1382 15.8854 11.878 16.0878 11.2382C16.8437 11.6281 16.4927 12.118 17.1001 11.7281C17.505 11.958 16.9921 12.378 16.9921 12.378ZM32.9856 8.5987C32.9856 8.6087 32.9856 8.6087 32.9856 8.6087C32.8507 8.63869 32.7293 8.65868 32.6483 8.67868C32.7293 8.65868 32.8237 8.63869 32.9856 8.5987ZM34.3759 8.44873C34.2004 8.44873 33.9844 8.45873 33.7684 8.48872C33.6875 8.29875 33.701 8.0988 33.836 8.0988C33.7955 8.22877 34.1464 8.30875 34.3759 8.44873ZM30.6372 4.91942C30.8396 4.80944 30.9341 4.90942 30.9882 5.0194C30.8801 5.0394 30.7722 5.07938 30.6102 5.12938C30.6102 5.14937 30.5967 5.17937 30.5967 5.19936C30.6102 5.09938 30.6102 4.9994 30.6372 4.91942Z" fill="#FF6610"/>
<path d="M30.3935 5.06687C30.3665 5.07686 30.353 5.10686 30.3125 5.11686C30.3665 5.15685 30.4204 5.19684 30.4744 5.22683C30.488 5.16685 30.5014 5.10686 30.5149 5.04688C30.4744 5.04688 30.4339 5.05687 30.3935 5.06687Z" fill="#FF6610"/>
<path d="M158.406 6.44703L158.38 6.42725C158.393 6.44703 158.42 6.4767 158.42 6.51625C158.406 6.48658 158.406 6.46681 158.406 6.44703Z" fill="#FF6610"/>
<path d="M53.7729 7.17562L53.7593 7.03564L53.6514 7.16562L53.7729 7.17562Z" fill="#FF6610"/>
<path d="M165.633 9.26611C165.633 9.3161 165.646 9.36609 165.699 9.41609C165.713 9.38609 165.673 9.3261 165.633 9.26611Z" fill="#FF6610"/>
<path d="M168.882 9.8667L169.301 10.1366C169.125 9.99667 168.99 9.91668 168.882 9.8667Z" fill="#FF6610"/>
<path d="M171.328 10.5351C171.382 10.4451 171.409 10.3752 171.435 10.3052L171.328 10.5351Z" fill="#FF6610"/>
<path d="M130.831 6.77637C130.792 6.77637 130.764 6.77637 130.724 6.79636C130.494 6.87635 130.656 6.84635 130.831 6.77637Z" fill="#FF6610"/>
<path d="M143.119 6.49707C142.971 6.58705 142.835 6.67703 142.688 6.72702C142.89 6.78701 143.052 6.817 143.119 6.49707Z" fill="#FF6610"/>
<path d="M142.122 6.66662C142.325 6.7966 142.5 6.7866 142.689 6.72662C142.514 6.67662 142.311 6.59664 142.122 6.66662Z" fill="#FF6610"/>
<path d="M182.154 12.4861L182.262 12.526C182.276 12.4861 182.29 12.4661 182.303 12.436L182.154 12.4861Z" fill="#FF6610"/>
<path d="M182.309 12.4456L182.458 12.4055C182.403 12.3955 182.349 12.3855 182.309 12.4456Z" fill="#FF6610"/>
<path d="M182.786 12.3062L182.463 12.3961C182.557 12.416 182.678 12.4561 182.786 12.3062Z" fill="#FF6610"/>
<path d="M178.897 11.7158L178.803 11.9058C178.843 11.8759 178.87 11.8058 178.897 11.7158Z" fill="#FF6610"/>
<path d="M177.87 11.6166C178.1 11.6966 178.356 12.1366 178.721 12.0665L178.802 11.9166C178.559 12.1765 178.194 11.3167 177.87 11.6166Z" fill="#FF6610"/>
<path d="M174.338 8.4858L175.147 8.77574C175.053 8.53579 174.946 8.22585 175.35 8.23585C174.445 7.436 175.431 8.74574 174.338 8.4858Z" fill="#FF6610"/>
<path d="M171.775 7.76684C172.261 7.73684 171.856 7.45689 171.91 7.33691C171.559 7.48689 171.478 7.52688 171.775 7.76684Z" fill="#FF6610"/>
<path d="M152.458 5.2875L152.606 4.7876C152.241 4.81759 152.565 4.97757 152.458 5.2875Z" fill="#FF6610"/>
<path d="M148.271 7.45693L148.554 7.81686L148.81 7.37695L148.271 7.45693Z" fill="#FF6610"/>
<path d="M146.751 3.65666L146.913 3.59668L146.279 3.72665L146.751 3.65666Z" fill="#FF6610"/>
<path d="M113.858 1.57842L113.925 2.2083C114.182 2.11832 114.277 1.40846 113.858 1.57842Z" fill="#FF6610"/>
<path d="M99.6029 1.87723C99.4545 1.55728 99.063 1.34733 98.8066 1.64726C99.1306 1.70726 99.441 1.95721 99.6029 1.87723Z" fill="#FF6610"/>
<path d="M56.9009 1.90769L57.1708 1.67773L56.6445 1.88769L56.9009 1.90769Z" fill="#FF6610"/>
</svg>
