<svg width="196" height="16" viewBox="0 0 196 16" fill="none" xmlns="http://www.w3.org/2000/svg">
<path d="M195.851 13.0636C196.009 12.8941 196.081 12.4535 195.78 12.4875L195.365 13.1877L195.851 13.0636Z" fill="#FF6610"/>
<path d="M194.373 11.4015C193.944 11.6953 193.372 12.26 193.401 12.9603C193.93 12.3165 193.93 12.6215 194.516 11.842C194.816 11.8082 194.931 12.1583 194.816 12.4181C194.974 12.2486 195.203 12.6553 195.489 12.2148C195.288 11.5936 194.831 11.492 194.216 11.876C194.159 11.7066 194.317 11.5371 194.373 11.4015Z" fill="#FF6610"/>
<path d="M167.096 6.03577L167.253 6.14872C167.224 6.09224 167.168 6.05835 167.096 6.03577Z" fill="#FF6610"/>
<path d="M149.93 3.68779C150.059 3.68779 150.131 3.60873 150.145 3.55225C150.016 3.57484 149.902 3.62002 149.93 3.68779Z" fill="#FF6610"/>
<path d="M147.082 2.59241C147.14 2.6263 147.197 2.63758 147.254 2.66017C147.197 2.59241 147.125 2.54722 147.082 2.59241Z" fill="#FF6610"/>
<path d="M167.097 6.03647L166.683 5.7428C166.611 5.97999 166.898 5.94612 167.097 6.03647Z" fill="#FF6610"/>
<path d="M190.092 12.531C190.193 12.5084 190.292 12.4519 190.392 12.3842C190.306 12.4068 190.221 12.4181 190.135 12.4181C190.135 12.4632 190.121 12.4971 190.092 12.531Z" fill="#FF6610"/>
<path d="M174.824 6.41049L174.967 6.42179C175.025 6.34272 175.096 6.25235 175.154 6.1394L174.824 6.41049Z" fill="#FF6610"/>
<path d="M180.66 7.18976C180.531 7.14457 180.33 7.75451 180.217 8.02559C180.359 7.7771 180.474 7.67545 180.603 7.64156C180.631 7.51731 180.645 7.38177 180.66 7.18976Z" fill="#FF6610"/>
<path d="M189.504 9.81063L189.691 9.75415C189.648 9.76545 189.576 9.78804 189.504 9.81063Z" fill="#FF6610"/>
<path d="M170.688 5.73201C170.701 5.64165 170.701 5.55129 170.688 5.5061C170.659 5.58518 170.659 5.66424 170.688 5.73201Z" fill="#FF6610"/>
<path d="M7.88106 13.1641C7.86686 13.119 7.85266 13.0964 7.85266 13.0511C7.82427 13.1303 7.83847 13.1754 7.88106 13.1641Z" fill="#FF6610"/>
<path d="M0.340471 11.4476L0.426266 11.3911C0.383369 11.2781 0.35477 11.1539 0.326172 11.0409L0.340471 11.4476Z" fill="#FF6610"/>
<path d="M141.762 1.29297C141.777 1.30427 141.777 1.30427 141.791 1.30427C141.933 1.24779 141.848 1.24779 141.762 1.29297Z" fill="#FF6610"/>
<path d="M91.5743 0.0163574C92.1463 0.58112 90.6592 0.75054 91.5314 1.37178C91.4457 1.13459 92.2893 0.389097 91.5743 0.0163574Z" fill="#FF6610"/>
<path d="M189.983 12.4292C189.897 12.418 189.826 12.418 189.74 12.3954C189.84 12.4292 189.912 12.4405 189.983 12.4292Z" fill="#FF6610"/>
<path d="M91.5312 1.38428L91.6163 1.45204C91.5739 1.41815 91.5596 1.40686 91.5312 1.38428Z" fill="#FF6610"/>
<path d="M129.15 0.841187C129.165 0.954137 129.208 1.04451 129.251 1.12357C129.251 1.0558 129.236 0.976729 129.15 0.841187Z" fill="#FF6610"/>
<path d="M138.398 2.27475L138.184 2.1731C138.269 2.24086 138.341 2.26345 138.398 2.27475Z" fill="#FF6610"/>
<path d="M124.22 1.45159C124.092 1.39511 124.064 1.30475 123.877 1.38381C123.892 1.4177 123.906 1.44029 123.92 1.46288C124.006 1.38381 124.092 1.34993 124.22 1.45159Z" fill="#FF6610"/>
<path d="M119.166 1.19043C119.195 1.2356 119.223 1.28079 119.252 1.32597C119.309 1.31468 119.367 1.30338 119.41 1.29208L119.166 1.19043Z" fill="#FF6610"/>
<path d="M22.5918 10.4315C22.4488 10.2734 22.3344 10.0926 22.2344 9.90063C22.4059 10.3411 21.7339 10.6122 22.5918 10.4315Z" fill="#FF6610"/>
<path d="M190.189 12.1813C190.117 12.3282 190.045 12.4072 189.975 12.4185C190.031 12.4185 190.088 12.4185 190.146 12.4072C190.174 12.3282 190.203 12.2491 190.189 12.1813Z" fill="#FF6610"/>
<path d="M123.63 6.44401L122.844 6.30847C123.058 6.37625 123.344 6.42143 123.63 6.44401Z" fill="#FF6610"/>
<path d="M58.0505 6.54504L57.8789 6.63541C57.9505 6.63541 58.0076 6.61282 58.0505 6.54504Z" fill="#FF6610"/>
<path d="M120.488 6.26217C120.359 6.02497 120.216 5.88943 120.074 5.79907C120.031 5.84425 120.002 5.88943 119.973 5.95721L120.488 6.26217Z" fill="#FF6610"/>
<path d="M46.5513 14.386C47.1705 14.3078 46.6704 13.6426 46.7061 13.222C47.3968 12.9089 47.1705 13.6914 47.5159 14.0143C47.9326 13.7502 48.1232 13.0459 48.4804 13.0263C48.5281 13.1438 48.6114 13.173 48.5638 13.3295C48.9211 12.6937 50.0047 13.0752 50.4096 12.2731C50.4691 12.3318 50.5049 12.3905 50.5286 12.4394C50.3619 12.0971 50.2667 11.7351 50.2191 11.4808C50.493 11.4221 50.6358 10.9526 50.8501 11.4026C50.6716 11.4123 50.7073 11.608 50.6597 11.7645L50.9097 11.5199C51.3146 12.146 50.5643 11.8134 50.6716 12.3025C51.1836 11.9992 51.7314 11.3439 52.2077 11.4612C52.434 12.0971 51.2431 11.8427 51.9458 12.3318L51.2194 12.1851C51.9577 13.134 50.7906 12.1753 51.5052 13.2024C52.422 13.2513 52.422 12.7133 53.339 12.7818C53.4581 12.3905 53.1604 12.2536 53.2795 11.8623C54.4108 11.0406 54.6132 13.3785 55.3634 12.3807C55.5182 11.9112 55.4349 11.07 56.1851 11.4221L56.0898 12.1949C56.9592 12.1557 56.3637 11.0602 57.3641 11.4417C57.2569 11.7547 56.7329 11.7743 56.8877 11.8525C57.5903 12.3612 57.2211 11.3732 57.6617 11.3145L57.888 11.9601C58.7811 11.7351 59.698 11.1189 60.6983 10.8743C60.6746 11.0797 60.5435 11.3047 60.8174 11.4808C62.044 11.0113 63.5801 11.2558 64.8782 11.5102L65.2592 10.8841C65.3664 10.8743 65.5093 11.1189 65.4022 11.246C65.9142 11.4123 65.3664 10.8841 65.5689 10.6298C65.8427 10.5613 65.9856 10.9135 65.8427 11.1091C66.6168 10.532 68.1053 9.79834 69.0937 10.307L68.9389 10.4928C69.6772 10.6494 69.5581 9.23099 70.2845 9.7103L70.1774 9.8179C71.7373 9.93528 73.3569 9.26034 74.6311 10.0233C74.7502 9.18209 76.1791 10.2581 76.1434 9.10383C77.0842 9.59292 76.8579 9.82768 78.1322 10.1016C78.4656 10.1211 78.537 9.33859 78.93 9.19187L79.0133 9.78855L79.4897 9.11361L79.8588 9.80812L80.2161 9.62227C80.0612 9.6027 79.8708 9.37772 79.8708 9.20165C80.4304 8.87885 81.3712 9.52445 81.407 9.82768L82.7644 9.23099C82.7526 9.47554 82.5263 9.57335 82.3596 9.73965C83.0502 9.08427 82.562 10.3657 83.1932 9.75921C83.086 9.63205 83.2051 9.39729 83.2051 9.27991C83.5861 9.62227 84.3602 9.57335 84.9318 9.38751L84.8603 9.80812C85.9083 9.84725 87.0395 9.47554 88.2066 9.40707C87.766 9.24078 87.8017 8.51692 88.147 8.42889L88.3375 9.05493C88.5281 8.64409 87.9565 8.83973 88.3733 8.33107C88.8139 8.37998 88.7305 9.03536 88.4924 9.26034L89.0045 9.00601C89.0521 9.19187 88.933 9.29947 88.921 9.54402C89.1116 9.13318 89.8856 10.1309 90.1476 9.41685L90.1952 9.6027C91.3623 9.53423 91.8744 9.27991 92.827 9.22121C92.8032 8.67343 93.1842 8.78103 93.4462 8.33107C94.1607 8.48758 94.9705 8.88863 95.8041 8.81038C96.3875 8.51692 95.9469 8.34085 96.1971 8.00827C96.2684 8.50715 97.1139 8.42889 96.6972 8.81038C97.7094 8.693 97.9833 8.66365 99.2574 8.21369C99.1146 8.01806 98.9479 7.93002 99.0193 7.75395C99.2456 7.66591 99.5552 7.94958 99.5314 8.18434L99.4719 8.24304C100.889 7.44093 102.854 9.59292 103.961 8.50715L103.902 8.56583C104.295 8.3702 104.688 8.19412 105.081 8.00827C105.628 8.09631 104.759 8.38977 105.176 8.693C106.438 7.85176 107.2 8.8006 108.248 8.24304C109.082 9.72008 111.154 8.12566 112.261 9.06471L112.202 8.71256C112.488 8.3702 112.547 8.9082 112.761 8.98645C112.726 8.71256 112.452 8.67343 112.63 8.48758C115.048 8.06696 117.62 8.93754 120.085 9.35816C120.99 9.47554 120.645 7.5681 121.764 8.42889L121.419 9.06471C123.276 8.34085 125.146 9.19187 126.968 8.57562C126.849 8.72235 126.837 8.91798 126.67 8.9082C127.028 9.38751 128.064 8.96689 128.088 8.5854C128.361 8.6343 128.135 8.93754 128.302 9.13318C128.671 9.41685 129.29 8.55605 129.457 9.03536C129.493 9.11361 129.338 9.18209 129.266 9.22121C129.529 8.99623 130.41 9.30925 130.207 8.76147C130.863 9.04514 131.505 8.54627 132.017 8.89841C132.41 8.31151 133.149 9.26034 133.315 8.40932C133.208 9.28969 134.447 9.19187 134.899 8.8006C134.733 9.05493 135.245 9.10383 135.053 9.45597C135.542 9.47554 135.995 9.33859 135.947 8.87885C136.757 9.98419 137.805 8.13544 138.197 9.51467C139.674 9.12339 141.032 8.87885 142.353 8.75168C142.223 9.63205 140.913 8.75168 140.877 9.68095C142.14 9.3875 142.925 8.67343 144.116 8.96689C144.413 9.10383 143.901 9.33859 143.771 9.48532C145.033 9.20165 146.129 9.68095 147.272 9.31904C147.26 9.39729 147.129 9.47554 147.01 9.53423C147.224 9.52445 147.498 9.7103 147.51 9.30925L147.284 9.39729C147.01 8.78103 148.272 8.27239 148.356 7.96914C147.856 9.07449 149.403 8.36042 148.641 9.74943C148.796 9.69074 148.987 9.51467 148.987 9.24078C149.189 9.33859 149.237 9.50489 148.987 9.78855C149.784 9.64183 149.558 9.19187 150.261 9.27012C150.237 9.46576 150.082 9.52445 149.987 9.74943C150.38 9.40707 150.785 9.06471 151.357 9.27991C151.308 9.39729 151.357 9.55379 151.178 9.53423C152.19 9.57335 153.035 8.693 154.095 9.16252C153.655 9.97441 154.429 9.47554 154.393 10.2092L155.024 10.0527L154.834 9.68095C155.357 9.73965 155.893 9.26034 156.311 9.53423L155.882 9.79834L156.881 9.74943L156.369 9.42664C156.953 9.10383 156.454 8.50715 157.12 8.77125C156.965 8.82995 157.643 8.82995 157.846 9.27991C158.144 9.07449 158.442 8.85929 158.799 9.07449C158.858 9.31904 158.597 9.86681 158.632 10.0331C158.977 9.45597 159.882 9.98419 160.311 9.36794C160.181 9.50489 160.109 9.88638 160.132 9.97441L160.431 9.50489C160.645 9.68095 160.668 9.769 160.585 10.0624C161.3 10.219 160.502 9.12339 161.3 9.6027C161.229 9.63205 161.24 9.7103 161.097 9.769C161.931 10.0429 162.824 9.62227 163.575 9.98419C163.682 10.7472 162.847 10.0722 163.014 10.7178C164.181 10.7374 165.528 10.1603 166.611 10.4733L166.42 10.3657C166.766 9.35816 167.146 10.9819 167.802 10.5711C167.647 10.6298 167.516 11.1189 167.575 11.0113C168.301 11.2754 169.171 10.9624 170.386 10.7961L170.196 11.0406C170.6 11.3341 171.351 11.3341 171.803 11.5199C171.994 11.2754 172.267 11.3536 172.172 10.9526C173.351 12.6448 175.185 10.532 176.233 11.9503C176.078 11.9308 175.804 12.1264 175.936 12.146L177.114 12.0481C177.125 11.5884 177.031 11.7547 176.864 11.383C177.067 11.1384 177.424 10.9721 177.71 11.0113C177.138 11.2363 177.554 11.7254 177.721 11.9992C177.71 11.8623 177.829 11.7156 177.84 11.5786C178.245 12.4492 178.139 10.6885 178.829 11.3439L178.734 11.5688C179.055 11.5004 179.4 11.2363 179.71 11.3634C179.722 11.9014 179.341 11.5493 179.221 11.9699C179.674 12.0188 180.341 11.1482 180.627 11.7351C180.401 11.8427 180.127 11.8036 179.9 11.9112C180.21 12.5959 180.293 12.4492 180.603 12.5959L180.579 12.5764L181.281 12.9774L181.127 12.7818C182.009 11.5395 182.329 12.7329 183.306 11.9895C182.365 12.6937 183.068 12.4492 182.865 13.0165C183.021 13.2122 183.27 13.4469 183.151 13.5937C183.627 13.1828 183.663 14.0632 184.331 13.4665C184.306 13.6622 184.711 13.5545 184.509 14.0045C185.01 13.9361 184.485 13.6622 184.581 13.4371C185.462 12.9285 186.069 14.5033 187.331 13.8089C188.32 13.6034 188.641 13.0068 189.558 12.8307C189.761 13.173 189.153 13.4665 189.153 13.4665C189.535 13.8186 189.879 13.8284 190.368 13.6914C190.237 13.8382 190.285 13.9947 190.368 14.2197C190.725 14.2295 190.784 13.5839 191.154 13.9361C191.023 14.1317 190.833 14.4447 190.606 14.6207C191.059 14.5229 191.546 14.2392 192.011 14.1414C192.035 14.4838 191.63 14.5915 191.416 14.7772C191.928 14.7088 192.702 14.6892 193 14.2002L192.75 13.9653C192.929 13.9751 192.714 14.4251 192.56 14.4936C192.047 14.8262 192.035 14.2197 192.059 14.0241L192.392 13.9556C192.392 12.8111 191.154 13.9263 190.57 13.76L191.035 13.0068L190.249 13.5643C190.178 13.3393 190.201 12.8796 190.534 12.8111C190.214 12.3416 190.082 13.0263 189.832 12.5275C189.808 12.4492 189.844 12.4199 189.879 12.3905L189.392 12.5568C189.522 12.4003 189.475 11.9797 189.701 12.146C189.07 11.5591 188.332 12.5275 188.201 11.8819L188.225 11.8036C187.105 11.8916 187.975 12.3709 187.01 12.9187L186.855 11.383L186.605 11.9503C186.498 11.9112 186.295 11.833 186.402 11.5982C185.902 11.9308 186.402 11.8623 186.081 12.2047C185.7 11.5786 184.592 12.2047 184.7 11.2558C184.402 11.6667 185.117 11.6862 184.485 11.9014C184.568 10.8743 183.806 11.9601 183.437 11.4221C183.712 10.933 184.092 11.2852 183.735 10.7374C183.235 11.5591 182.854 10.3852 182.413 10.4831C182.223 11.1776 181.473 10.62 180.746 10.7374C180.841 10.5124 179.567 10.1309 178.995 9.77878L179.044 9.6614C178.758 10.3559 178.139 10.1309 177.638 10.219C177.745 9.79834 177.876 9.64183 178.173 9.48532L177.721 9.42664C177.567 9.64183 177.4 9.73965 177.091 9.77878L177.317 9.27012C176.709 9.22121 175.983 9.72987 175.292 9.27991C175.149 9.769 175.601 10.7374 174.732 10.9526C174.756 10.6787 174.828 10.219 175.054 10.1407C174.982 10.17 174.756 10.3266 174.649 10.1994L175.066 9.78855C174.756 9.54402 174.804 10.1407 174.542 10.0624C174.625 9.68095 174.399 9.75921 174.494 9.46576C174.578 9.43642 174.709 9.65162 174.839 9.52445C174.542 9.41685 174.209 9.14296 174.149 8.82995C174.137 9.05493 174.041 9.33859 173.804 9.35816C173.208 9.30925 173.697 8.86907 173.387 8.6343C173.184 8.87885 172.863 8.55605 172.743 9.12339C172.565 9.09406 172.589 8.82995 172.553 8.66365C172.196 8.86907 171.101 8.54627 171.327 9.20165L171.398 9.25056C171.386 9.26034 171.362 9.26034 171.338 9.27012C170.219 9.70052 169.314 8.67343 168.266 8.78103L168.301 8.5854C167.671 8.72235 166.956 8.53649 166.456 8.88863C166.277 8.86907 166.098 8.48758 166.218 8.2626C165.742 8.35064 165.646 8.55605 165.039 8.155C165.551 7.88111 164.932 7.84198 165.551 7.96914C164.992 7.7246 164.908 7.4018 164.181 7.84198C164.48 7.38224 163.836 7.16704 163.539 7.27464L163.895 7.6757C163.562 7.70503 163.3 7.62678 163.026 7.54853L163.289 6.92249C162.193 5.98344 160.871 8.03762 160.145 6.62904C159.752 7.04966 160.764 7.01053 160.383 7.5094C159.835 7.37245 159.395 6.3845 159.216 6.36493C158.501 5.93454 158.347 7.23552 157.585 6.92249C157.656 7.16704 157.656 7.78329 157.024 7.94958C156.477 7.81264 156.477 6.91271 156.858 6.76599C157.001 6.75621 157.048 6.83446 157.037 6.91271C157.227 6.84424 157.489 6.76599 157.299 6.50188L157.191 6.72686C156.941 6.46275 156.168 6.41385 156.405 6.05192C155.953 6.22799 156.168 6.41385 156.465 6.56057C155.786 6.15952 155.334 6.44318 154.631 6.14974C154.727 6.28668 154.798 6.57035 154.691 6.56057C153.643 6.1693 154.155 6.95184 153.404 6.98119C153.035 6.58991 153.666 6.15952 152.881 6.3845C152.464 6.10082 152.868 5.75846 153.071 5.59218C152.333 5.97366 151.845 5.18134 151.463 5.06395L151.845 4.90745C151.619 4.99549 151.44 4.97592 151.261 4.95636L151.404 5.43566C151.201 5.33785 151.023 5.31828 151.058 5.12265C150.808 5.40632 151.13 5.90519 150.642 6.2769C150.392 6.01279 149.76 6.45297 149.737 5.82694C150.594 6.12039 149.713 5.2009 150.475 5.17155C150.32 5.23025 150.142 5.21068 149.951 5.11287C149.927 5.04439 149.999 4.9857 150.059 4.95636C149.284 4.33033 149.582 5.61173 148.712 5.51391C148.868 5.18134 148.593 4.83897 148.439 4.89767C148.784 4.93679 148.534 5.49435 148.189 5.72911C147.664 5.40632 147.557 5.87584 147.272 5.81716L147.593 5.97366C147.438 6.31602 147.165 6.22799 146.772 6.31602C146.772 6.04214 147.141 6.15952 147.022 6.02257C146.522 6.5997 146.117 5.33785 145.461 5.70956C145.212 5.45523 145.51 5.05417 145.271 4.88789C144.545 5.29872 144.58 4.36945 143.83 4.70203C143.985 5.18134 144.033 5.06395 143.485 5.49435L144.688 5.24003L143.866 5.87584C144.223 5.90519 144.64 5.6313 144.842 5.71934C144.449 6.08126 144.497 5.96388 144.616 6.35515C144.211 5.6313 143.616 6.7073 143.104 6.19864L143.235 5.04439C142.437 4.47705 141.687 5.54326 140.615 5.19112L140.949 5.4161C140.758 5.86606 140.27 5.43566 139.901 5.60196C139.972 5.22047 139.758 5.06395 139.627 4.81941C139.615 5.10308 138.829 4.74116 138.662 5.51391L138.221 4.97592C137.352 4.71181 137.126 6.01279 136.293 5.83672C136.578 5.43566 136.221 5.13243 136.804 4.86832C136.519 4.84876 136.268 4.76072 136.244 5.02483C136.101 4.77051 135.423 5.49436 135.185 5.11287C135.054 5.27915 134.983 5.68021 134.673 5.62151C134.649 5.54326 134.684 5.43566 134.684 5.43566C134.673 5.62151 134.173 5.66064 134.411 6.11061C133.625 4.86832 131.981 6.03235 131.29 4.99549C130.66 5.11287 129.909 5.21068 129.35 5.23025C129.397 5.11287 129.362 5.03461 129.469 5.08352C128.718 4.70203 128.933 6.17908 128.076 5.75846C127.659 5.12265 128.564 5.43566 128.29 5.19112C128.23 3.91949 127.218 5.33785 126.658 4.57486L126.801 4.50639C126.361 4.06622 125.67 4.95636 124.932 4.84876C124.932 4.84876 124.967 4.74116 124.944 4.65312C124.408 5.28893 123.443 5.47479 122.729 5.64108C122.967 5.15199 123.062 5.38675 122.943 4.8781C122.622 4.93679 123.015 5.68999 122.371 5.81716C122.169 5.54326 121.717 5.28893 121.681 4.75094L122.288 4.74116C122.002 4.03687 121.514 4.74116 121.193 4.61399L121.24 4.31076C120.311 4.38901 120.288 5.15199 119.299 5.07374L119.394 5.3085C118.835 6.05192 118.954 4.86832 118.406 5.4161L118.251 4.64334C117.894 4.80963 116.989 5.3672 116.346 5.5237C116.715 4.95636 117.465 4.64334 117.942 4.32054C117.584 4.2912 116.739 4.36945 116.548 4.75094C116.691 4.67269 116.87 4.48683 117.013 4.60421C116.572 5.21068 116 5.51392 115.298 5.50413C115.453 4.00752 113.488 5.14222 112.976 3.97818C111.725 4.53574 110.499 3.7532 109.034 3.85102C109.57 5.01505 108.606 3.89014 108.713 5.08352C108.379 5.16177 108.248 5.14222 108.213 5.06395L107.176 4.34988C106.926 4.00752 107.498 4.08578 107.462 3.81189C106.712 3.73363 107.141 3.31302 106.641 3C106.748 3.4304 106.391 3.61625 105.962 3.44996L106.569 3.99774C105.557 4.64334 105.652 3 104.616 3.63582L104.938 3.25433C104.402 3.46953 102.949 3.28367 102.461 4.26185C102.366 4.1249 102.223 3.80211 102.461 3.71407C101.163 3.61625 99.6504 4.82919 98.6264 4.27163L98.7097 3.97818C98.4715 4.06622 98.3167 4.54552 98.0071 4.26185C98.019 4.14447 98.0904 3.9684 97.9833 3.94883C97.8642 4.05643 97.376 4.48683 97.0425 4.32054L97.2926 3.97818C96.0184 3.63582 95.4111 4.84876 94.387 5.08352C94.3394 4.22272 93.3391 3.97818 92.827 3.85102L92.8388 3.72385C91.3741 3.65538 90.4096 4.54552 89.0878 4.96614C88.1827 4.08578 86.2298 4.75094 84.8365 4.31076C85.0509 4.45748 84.8603 4.9857 84.634 5.08352C84.3006 4.94657 83.8124 5.74868 83.7886 4.95636L83.9076 4.96614C83.5981 4.21295 82.9669 4.45748 82.4548 4.46726L82.4786 5.50413C81.0021 4.076 79.0729 6.26712 78.2035 5.00527C77.9178 5.28893 77.5248 5.31828 77.239 5.60196L77.1913 5.05417C76.2864 4.9857 75.8457 4.95636 74.7621 5.19112L74.9407 4.78029C74.3214 4.79984 74.3691 6.4334 73.8094 6.52145L73.5355 5.70956C72.4637 5.81716 71.273 5.19112 70.3202 6.02257C70.3202 5.90519 70.3202 5.66064 70.4869 5.61173C69.975 5.6313 68.4507 5.23025 68.796 6.34537C68.677 5.61173 67.6766 6.39428 67.1527 6.78555V6.23777C66.7716 6.98119 66.7835 7.17682 66.1405 7.44093C65.9738 7.39202 65.9261 7.02031 66.1642 7.13769C65.5808 6.91271 65.8308 7.69526 65.1283 7.48005L65.3187 7.10835C64.7591 7.12791 64.8305 7.30399 64.5923 7.74416C64.2828 7.99849 63.5206 7.7246 63.3539 7.24529C63.3301 7.54853 63.0919 7.97893 62.7466 7.88111C62.6751 7.70503 62.7704 7.57788 62.8181 7.5094C61.8296 7.24529 61.5557 8.29194 60.8293 7.8322C60.7817 7.65613 60.7222 7.5681 60.6626 7.51918C61.4009 7.45072 61.9963 7.41158 61.9487 7.4605C61.8654 6.96162 61.2462 6.94206 61.6034 6.19864C61.1866 6.62904 60.5198 7.52897 59.9005 7.36267C59.8647 7.31377 59.8291 7.27464 59.7933 7.19639L59.841 7.13769C59.698 7.09857 59.5909 7.16704 59.4956 7.26486C59.2931 7.20617 59.174 7.16704 58.9955 7.17682C58.8525 6.77576 58.2691 7.04966 57.9714 7.06922C58.1024 7.60722 57.6975 7.57788 58.1381 7.97893C58.0785 7.94958 58.1857 7.91046 58.3763 7.86155C58.412 7.84198 58.4715 7.82241 58.4954 7.79308L58.4834 7.84198C58.6739 7.80286 58.924 7.75395 59.2098 7.70503C59.0312 8.00827 58.8288 8.28216 58.4476 8.01806C58.3524 8.3702 58.2572 8.75168 58.1976 8.93754C57.6499 8.23325 56.7924 7.93001 56.5899 7.48005C55.7445 7.91046 54.506 7.96914 54.1488 9.06471C53.9225 9.23099 53.7915 8.81038 53.6605 8.66365C53.7915 8.54627 53.9702 8.53649 54.0178 8.37998C53.5653 8.71256 52.5293 8.68322 52.5531 9.41685C51.8386 9.18209 52.7793 8.71256 51.9101 8.94733L51.9814 8.71256C49.9928 7.8322 49.576 10.9624 47.3134 9.79834C47.4682 9.86681 47.5397 9.89616 47.5992 10.0135C45.2533 9.70052 43.2526 11.3439 40.8353 10.7178C40.1922 10.6102 40.2518 11.0797 39.9779 11.4808L39.6802 10.933L39.2277 11.7156C38.4774 12.3709 37.2628 10.6102 36.3816 11.7547L36.6436 12.1068C36.2149 12.1166 35.417 12.5959 35.3575 12.1362C35.3337 12.2144 35.3456 12.5666 35.1193 12.4003L35.0121 12.0971L34.1666 12.8209C33.3331 12.7818 33.9166 11.6178 32.7495 11.8036C32.3566 12.009 31.8207 12.9481 32.0589 13.1144C32.2375 13.085 32.559 13.2024 32.6781 13.4959L32.3447 13.7404C32.5828 14.6305 32.6424 15.5891 33.726 16C33.8689 15.775 34.0237 15.55 34.1785 15.325L34.5239 15.7065L33.9999 15.8533C34.4405 16.1859 34.512 15.7946 34.6549 15.5011C34.774 15.7163 34.9169 15.8533 35.0717 15.912L35.4289 14.9338C35.6075 15.2664 35.3575 15.6771 35.8457 15.775C36.0124 15.325 35.3217 15.0609 35.7266 14.699C36.1553 15.0316 36.1672 15.374 36.4292 14.9631C36.5483 15.1783 36.5126 15.3446 36.4054 15.4718C36.6436 15.1391 37.2271 15.1881 37.2509 14.6892C37.7272 15.1197 38.3107 14.3468 38.5251 15.1881C38.5727 14.9631 38.9061 14.4153 39.1919 14.3273C38.93 15.4424 40.3232 14.1708 40.478 15.2761C40.6328 14.298 41.8237 14.6109 42.4072 13.9849C42.3834 14.0632 42.3476 14.2197 42.2762 14.1904C42.7049 14.1904 42.8955 14.4447 43.1931 14.5719C43.0502 13.8089 43.6338 13.535 43.86 13.0068C44.5387 13.6426 43.7886 13.9458 44.122 14.6109C43.9434 14.0045 44.8245 13.848 44.5269 13.3785C45.0151 13.76 44.9079 13.535 45.2652 14.1219C45.0985 13.173 45.5748 13.8969 45.7534 13.2709C46.4203 13.6524 46.1107 14.1317 46.6465 13.7502C47.0038 13.9751 46.5513 14.386 46.5513 14.386ZM60.6626 10.6885C60.6626 10.6983 60.6626 10.6983 60.6626 10.6983C60.5435 10.7276 60.4364 10.7472 60.3649 10.7667C60.4364 10.7472 60.5198 10.7276 60.6626 10.6885ZM61.8892 10.5418C61.7344 10.5418 61.5438 10.5515 61.3533 10.5809C61.2819 10.395 61.2938 10.1994 61.4129 10.1994C61.3771 10.3266 61.6868 10.4048 61.8892 10.5418ZM58.5906 7.08879C58.7692 6.98119 58.8525 7.07901 58.9002 7.1866C58.8049 7.20617 58.7097 7.24529 58.5667 7.2942C58.5667 7.31377 58.5548 7.34312 58.5548 7.36267C58.5667 7.26485 58.5667 7.16704 58.5906 7.08879Z" fill="#FF6610"/>
<path d="M31.6718 4.60255C31.6431 4.61383 31.6288 4.64772 31.5859 4.65902C31.6431 4.7042 31.7003 4.74938 31.7575 4.78326C31.7718 4.7155 31.7861 4.64772 31.8004 4.57996C31.7575 4.57996 31.7146 4.59125 31.6718 4.60255Z" fill="#FF6610"/>
<path d="M167.297 6.162L167.27 6.1394C167.283 6.162 167.312 6.19589 167.312 6.24106C167.297 6.20717 167.297 6.18459 167.297 6.162Z" fill="#FF6610"/>
<path d="M56.4412 6.98492L56.4269 6.82678L56.3125 6.97362L56.4412 6.98492Z" fill="#FF6610"/>
<path d="M174.953 9.34631C174.953 9.40278 174.967 9.45926 175.023 9.51574C175.038 9.48186 174.996 9.41408 174.953 9.34631Z" fill="#FF6610"/>
<path d="M178.395 10.0247L178.839 10.3296C178.652 10.1715 178.509 10.0811 178.395 10.0247Z" fill="#FF6610"/>
<path d="M180.986 10.7801C181.043 10.6785 181.072 10.5994 181.1 10.5204L180.986 10.7801Z" fill="#FF6610"/>
<path d="M138.082 6.53381C138.04 6.53381 138.011 6.53381 137.968 6.55641C137.724 6.64676 137.896 6.61288 138.082 6.53381Z" fill="#FF6610"/>
<path d="M151.1 6.21826C150.943 6.31992 150.799 6.42157 150.643 6.47805C150.857 6.54582 151.029 6.5797 151.1 6.21826Z" fill="#FF6610"/>
<path d="M150.045 6.40932C150.259 6.55616 150.445 6.54487 150.646 6.4771C150.46 6.42062 150.246 6.33026 150.045 6.40932Z" fill="#FF6610"/>
<path d="M192.457 12.9838L192.572 13.0289C192.586 12.9838 192.601 12.9612 192.615 12.9272L192.457 12.9838Z" fill="#FF6610"/>
<path d="M192.621 12.9382L192.779 12.8929C192.721 12.8816 192.664 12.8703 192.621 12.9382Z" fill="#FF6610"/>
<path d="M193.125 12.7809L192.783 12.8825C192.883 12.905 193.012 12.9503 193.125 12.7809Z" fill="#FF6610"/>
<path d="M189.006 12.1136L188.906 12.3283C188.949 12.2945 188.977 12.2153 189.006 12.1136Z" fill="#FF6610"/>
<path d="M187.918 12.0017C188.162 12.092 188.433 12.5891 188.819 12.5099L188.905 12.3406C188.647 12.6342 188.261 11.6629 187.918 12.0017Z" fill="#FF6610"/>
<path d="M184.176 8.4646L185.033 8.79216C184.933 8.52107 184.819 8.17093 185.247 8.18222C184.289 7.2786 185.333 8.75827 184.176 8.4646Z" fill="#FF6610"/>
<path d="M181.46 7.65269C181.975 7.6188 181.546 7.30253 181.604 7.16699C181.232 7.33642 181.146 7.38161 181.46 7.65269Z" fill="#FF6610"/>
<path d="M160.996 4.85175L161.152 4.28699C160.766 4.32088 161.109 4.5016 160.996 4.85175Z" fill="#FF6610"/>
<path d="M156.559 7.30252L156.859 7.70914L157.13 7.21216L156.559 7.30252Z" fill="#FF6610"/>
<path d="M154.947 3.00929L155.119 2.94153L154.447 3.08836L154.947 3.00929Z" fill="#FF6610"/>
<path d="M120.1 0.661165L120.17 1.37276C120.443 1.27111 120.543 0.469153 120.1 0.661165Z" fill="#FF6610"/>
<path d="M104.996 0.998607C104.839 0.637153 104.424 0.399957 104.152 0.738807C104.496 0.806584 104.824 1.08896 104.996 0.998607Z" fill="#FF6610"/>
<path d="M59.754 1.03335L60.04 0.77356L59.4824 1.01076L59.754 1.03335Z" fill="#FF6610"/>
</svg>
