<svg width="178" height="13" viewBox="0 0 178 13" fill="none" xmlns="http://www.w3.org/2000/svg">
<path d="M177.376 11.4831C177.518 11.3391 177.584 10.965 177.312 10.9938L176.936 11.5885L177.376 11.4831Z" fill="#FF6610"/>
<path d="M176.037 10.0713C175.649 10.3208 175.131 10.8004 175.157 11.3953C175.636 10.8484 175.636 11.1074 176.167 10.4455C176.439 10.4167 176.543 10.7141 176.439 10.9348C176.582 10.7908 176.788 11.1362 177.048 10.7621C176.866 10.2345 176.452 10.1481 175.895 10.4743C175.843 10.3304 175.986 10.1864 176.037 10.0713Z" fill="#FF6610"/>
<path d="M151.334 5.51465L151.479 5.61179C151.452 5.56321 151.4 5.53407 151.334 5.51465Z" fill="#FF6610"/>
<path d="M135.788 3.51942C135.905 3.51942 135.97 3.45227 135.982 3.4043C135.866 3.42349 135.763 3.46186 135.788 3.51942Z" fill="#FF6610"/>
<path d="M133.208 2.58888C133.261 2.61803 133.313 2.62773 133.365 2.64716C133.313 2.58888 133.247 2.55003 133.208 2.58888Z" fill="#FF6610"/>
<path d="M151.333 5.51506L150.958 5.26562C150.893 5.46708 151.153 5.43831 151.333 5.51506Z" fill="#FF6610"/>
<path d="M172.16 11.03C172.252 11.0108 172.342 10.9628 172.432 10.9053C172.354 10.9245 172.277 10.9341 172.199 10.9341C172.199 10.9724 172.186 11.0012 172.16 11.03Z" fill="#FF6610"/>
<path d="M158.334 5.8318L158.463 5.8414C158.516 5.77425 158.58 5.69749 158.632 5.60156L158.334 5.8318Z" fill="#FF6610"/>
<path d="M163.618 6.49323C163.501 6.45486 163.32 6.97289 163.217 7.20314C163.346 6.99208 163.45 6.90574 163.567 6.87696C163.592 6.77143 163.604 6.65631 163.618 6.49323Z" fill="#FF6610"/>
<path d="M171.627 8.7185L171.798 8.66992C171.759 8.67964 171.693 8.69907 171.627 8.7185Z" fill="#FF6610"/>
<path d="M154.588 5.25437C154.6 5.17762 154.6 5.10088 154.588 5.0625C154.562 5.12966 154.562 5.19681 154.588 5.25437Z" fill="#FF6610"/>
<path d="M7.13822 11.5679C7.1252 11.5291 7.11218 11.5096 7.11218 11.4707C7.08614 11.5388 7.09916 11.5776 7.13822 11.5679Z" fill="#FF6610"/>
<path d="M0.307872 10.1091L0.385574 10.0611C0.346724 9.96516 0.320823 9.85961 0.294922 9.76367L0.307872 10.1091Z" fill="#FF6610"/>
<path d="M128.39 1.48604C128.403 1.49575 128.403 1.49575 128.416 1.49575C128.547 1.44718 128.468 1.44718 128.39 1.48604Z" fill="#FF6610"/>
<path d="M82.9353 0.401367C83.4534 0.88104 82.1065 1.02493 82.8965 1.55258C82.8189 1.35112 83.5829 0.717948 82.9353 0.401367Z" fill="#FF6610"/>
<path d="M172.06 10.9438C171.983 10.9342 171.919 10.9342 171.841 10.915C171.931 10.9438 171.996 10.9534 172.06 10.9438Z" fill="#FF6610"/>
<path d="M82.8965 1.5625L82.9735 1.62006C82.9351 1.59127 82.9221 1.58168 82.8965 1.5625Z" fill="#FF6610"/>
<path d="M116.968 1.10156C116.981 1.19749 117.02 1.27425 117.059 1.3414C117.059 1.28384 117.046 1.21668 116.968 1.10156Z" fill="#FF6610"/>
<path d="M125.342 2.31876L125.147 2.23242C125.225 2.28998 125.29 2.30917 125.342 2.31876Z" fill="#FF6610"/>
<path d="M112.502 1.62005C112.386 1.57208 112.361 1.49534 112.191 1.56249C112.205 1.59127 112.218 1.61046 112.23 1.62964C112.308 1.56249 112.386 1.53371 112.502 1.62005Z" fill="#FF6610"/>
<path d="M107.925 1.39844C107.951 1.4368 107.976 1.47518 108.003 1.51356C108.054 1.50396 108.107 1.49437 108.145 1.48478L107.925 1.39844Z" fill="#FF6610"/>
<path d="M20.4607 9.24679C20.3312 9.11248 20.2277 8.95898 20.137 8.7959C20.2924 9.17003 19.6838 9.4003 20.4607 9.24679Z" fill="#FF6610"/>
<path d="M172.248 10.7324C172.183 10.8572 172.118 10.9243 172.054 10.9339C172.105 10.9339 172.157 10.9339 172.209 10.9243C172.234 10.8572 172.261 10.79 172.248 10.7324Z" fill="#FF6610"/>
<path d="M111.969 5.86024L111.257 5.74512C111.451 5.80268 111.71 5.84106 111.969 5.86024Z" fill="#FF6610"/>
<path d="M52.5783 5.94629L52.4209 6.02401C52.4865 6.02401 52.539 6.00458 52.5783 5.94629Z" fill="#FF6610"/>
<path d="M109.121 5.70582C109.004 5.50436 108.875 5.38924 108.746 5.3125C108.707 5.35087 108.681 5.38924 108.654 5.44681L109.121 5.70582Z" fill="#FF6610"/>
<path d="M15.8246 11.3113C16.498 11.2345 15.9542 10.5821 15.993 10.1697C16.7441 9.86265 16.498 10.6301 16.8736 10.9467C17.3269 10.6877 17.5341 9.99699 17.9226 9.97778C17.9744 10.0929 18.0651 10.1216 18.0133 10.2751C18.4018 9.65159 19.5803 10.0257 20.0206 9.23907C20.0853 9.29663 20.1242 9.35419 20.15 9.40216C19.9687 9.0664 19.8652 8.71144 19.8134 8.46201C20.1113 8.40444 20.2666 7.94396 20.4997 8.38526C20.3055 8.39486 20.3444 8.58672 20.2926 8.74021L20.5645 8.50039C21.0048 9.11436 20.1889 8.78818 20.3055 9.26786C20.8624 8.97045 21.458 8.3277 21.9761 8.44282C22.2222 9.0664 20.9271 8.81697 21.6912 9.29664L20.9013 9.15273C21.7041 10.0833 20.435 9.14314 21.2121 10.1505C22.2092 10.1984 22.2092 9.67077 23.2064 9.73793C23.3359 9.35419 23.0122 9.21988 23.1417 8.83615C24.372 8.03031 24.5921 10.3231 25.4079 9.3446C25.5763 8.88412 25.4857 8.05908 26.3015 8.40444L26.1979 9.16233C27.1433 9.12395 26.4958 8.0495 27.5837 8.42363C27.4671 8.73063 26.8972 8.74981 27.0656 8.82656C27.8297 9.32541 27.4282 8.35648 27.9074 8.29892L28.1535 8.93209C29.1247 8.71144 30.1219 8.10705 31.2097 7.86722C31.1839 8.06868 31.0413 8.28932 31.3392 8.46201C32.6731 8.00153 34.3437 8.24136 35.7554 8.49079L36.1697 7.87681C36.2863 7.86722 36.4417 8.10705 36.3252 8.23177C36.882 8.39486 36.2863 7.87681 36.5065 7.62738C36.8043 7.56023 36.9597 7.90559 36.8043 8.09746C37.6461 7.53145 39.2648 6.81194 40.3398 7.3108L40.1714 7.49307C40.9743 7.64657 40.8448 6.25552 41.6348 6.7256L41.5183 6.83113C43.2147 6.94625 44.976 6.28431 46.3617 7.03259C46.4912 6.20756 48.0452 7.26283 48.0064 6.13081C49.0295 6.61048 48.7834 6.84072 50.1692 7.10934C50.5317 7.12853 50.6095 6.36105 51.0368 6.21716L51.1274 6.80235L51.6454 6.1404L52.0469 6.82153L52.4354 6.63926C52.2671 6.62007 52.0599 6.39943 52.0599 6.22675C52.6685 5.91016 53.6917 6.54333 53.7305 6.84072L55.2068 6.25552C55.1939 6.49536 54.9478 6.59129 54.7665 6.75438C55.5176 6.11163 54.9866 7.36836 55.6731 6.77357C55.5565 6.64886 55.686 6.41862 55.686 6.30349C56.1003 6.63926 56.9422 6.59129 57.5638 6.40902L57.4861 6.82153C58.6257 6.85991 59.856 6.49536 61.1252 6.42821C60.646 6.26512 60.6849 5.5552 61.0604 5.46887L61.2676 6.08285C61.4748 5.67992 60.8532 5.87179 61.3065 5.37293C61.7856 5.4209 61.695 6.06366 61.436 6.28431L61.9929 6.03488C62.0447 6.21716 61.9152 6.32268 61.9021 6.56252C62.1094 6.15959 62.9511 7.13812 63.2361 6.4378L63.2879 6.62007C64.557 6.55292 65.1139 6.30349 66.1499 6.24593C66.1241 5.7087 66.5384 5.81423 66.8233 5.37293C67.6003 5.52643 68.481 5.91976 69.3875 5.84301C70.0221 5.5552 69.5429 5.38253 69.8149 5.05635C69.8925 5.54562 70.812 5.46887 70.3588 5.84301C71.4596 5.72789 71.7575 5.69911 73.1431 5.25781C72.9877 5.06595 72.8065 4.97961 72.8841 4.80692C73.1302 4.72058 73.4669 4.99879 73.441 5.22903L73.3763 5.2866C74.9174 4.49994 77.0541 6.61048 78.2586 5.54562L78.1938 5.60318C78.6212 5.41131 79.0485 5.23862 79.4758 5.05635C80.0716 5.14269 79.1262 5.4305 79.5795 5.72789C80.9522 4.90286 81.7811 5.83342 82.9207 5.2866C83.8272 6.7352 86.0806 5.17147 87.285 6.09244L87.2201 5.74708C87.5311 5.41131 87.5958 5.93894 87.8288 6.01569C87.79 5.74708 87.4922 5.7087 87.6864 5.52643C90.3154 5.11391 93.1127 5.96773 95.7934 6.38024C96.7776 6.49536 96.402 4.62465 97.6194 5.46887L97.2439 6.09244C99.264 5.38253 101.297 6.21716 103.279 5.61277C103.149 5.75667 103.136 5.94854 102.955 5.93894C103.343 6.40902 104.47 5.99651 104.496 5.62236C104.794 5.67032 104.548 5.96773 104.729 6.15959C105.131 6.4378 105.804 5.59358 105.986 6.06366C106.025 6.1404 105.855 6.20756 105.778 6.24593C106.063 6.02528 107.021 6.33228 106.801 5.79504C107.514 6.07325 108.212 5.58399 108.769 5.92935C109.197 5.35374 110 6.28431 110.181 5.44968C110.064 6.31309 111.412 6.21716 111.903 5.83342C111.723 6.08285 112.279 6.13081 112.071 6.47617C112.603 6.49536 113.096 6.36105 113.043 5.91016C113.924 6.99422 115.064 5.18107 115.49 6.53374C117.096 6.15 118.573 5.91016 120.01 5.78545C119.868 6.64886 118.444 5.78545 118.405 6.69682C119.778 6.40902 120.632 5.7087 121.927 5.99651C122.251 6.13081 121.694 6.36105 121.552 6.50495C122.925 6.22675 124.116 6.69682 125.36 6.34187C125.346 6.41862 125.204 6.49536 125.074 6.55292C125.307 6.54333 125.605 6.7256 125.618 6.33228L125.372 6.41862C125.074 5.81423 126.447 5.31538 126.538 5.01798C125.994 6.10204 127.677 5.40172 126.848 6.76398C127.017 6.70641 127.224 6.53374 127.224 6.26512C127.445 6.36105 127.496 6.52414 127.224 6.80235C128.092 6.65845 127.846 6.21716 128.609 6.2939C128.584 6.48577 128.415 6.54333 128.312 6.76398C128.74 6.42821 129.18 6.09244 129.802 6.30349C129.749 6.41862 129.802 6.5721 129.607 6.55292C130.708 6.59129 131.627 5.72789 132.779 6.18837C132.3 6.98463 133.143 6.49536 133.104 7.21487L133.79 7.06137L133.583 6.69682C134.152 6.75438 134.735 6.28431 135.189 6.55292L134.723 6.81194L135.81 6.76398L135.253 6.4474C135.887 6.13081 135.344 5.54562 136.069 5.80463C135.901 5.8622 136.638 5.8622 136.859 6.30349C137.182 6.10204 137.507 5.89098 137.895 6.10204C137.96 6.34187 137.675 6.8791 137.714 7.04218C138.089 6.47617 139.073 6.99422 139.54 6.38983C139.398 6.52414 139.32 6.89829 139.345 6.98463L139.67 6.52414C139.903 6.69682 139.928 6.78317 139.838 7.07096C140.615 7.22446 139.747 6.15 140.615 6.62007C140.537 6.64886 140.55 6.7256 140.394 6.78317C141.301 7.05178 142.273 6.63926 143.089 6.99422C143.205 7.7425 142.298 7.08056 142.479 7.71372C143.748 7.73291 145.213 7.1669 146.391 7.47389L146.183 7.36837C146.559 6.38024 146.973 7.97274 147.686 7.56982C147.517 7.62738 147.375 8.10705 147.439 8.00153C148.229 8.26055 149.174 7.95355 150.496 7.79047L150.289 8.03031C150.729 8.31811 151.545 8.31811 152.037 8.50039C152.245 8.26055 152.542 8.33729 152.438 7.94396C153.72 9.60362 155.715 7.53145 156.855 8.92249C156.687 8.9033 156.388 9.09517 156.531 9.11436L157.813 9.01843C157.825 8.56754 157.722 8.73063 157.541 8.36608C157.761 8.12624 158.15 7.96315 158.461 8.00153C157.839 8.22217 158.292 8.70184 158.473 8.97045C158.461 8.83615 158.59 8.69225 158.603 8.55794C159.043 9.41176 158.927 7.68495 159.678 8.3277L159.574 8.54835C159.924 8.4812 160.299 8.22217 160.636 8.34689C160.649 8.87452 160.235 8.52916 160.105 8.94168C160.597 8.98964 161.322 8.13584 161.633 8.71144C161.387 8.81697 161.09 8.77859 160.843 8.88412C161.18 9.55565 161.27 9.41176 161.608 9.55565L161.581 9.53646L162.345 9.9298L162.177 9.73793C163.136 8.51956 163.485 9.68996 164.547 8.96086C163.523 9.65159 164.288 9.41176 164.068 9.96818C164.237 10.1601 164.508 10.3903 164.378 10.5342C164.896 10.1312 164.935 10.9946 165.661 10.4095C165.635 10.6014 166.075 10.4958 165.855 10.9371C166.399 10.87 165.829 10.6014 165.933 10.3807C166.891 9.88183 167.552 11.4263 168.924 10.7452C169.999 10.5437 170.349 9.95857 171.346 9.7859C171.566 10.1216 170.905 10.4095 170.905 10.4095C171.32 10.7548 171.695 10.7644 172.227 10.6301C172.084 10.774 172.136 10.9275 172.227 11.1482C172.615 11.1578 172.679 10.5246 173.082 10.87C172.939 11.0619 172.732 11.3688 172.485 11.5415C172.978 11.4455 173.508 11.1673 174.013 11.0714C174.04 11.4072 173.6 11.5128 173.366 11.6949C173.923 11.6278 174.764 11.6086 175.089 11.129L174.817 10.8987C175.011 10.9083 174.778 11.3496 174.61 11.4168C174.052 11.743 174.04 11.1482 174.066 10.9563L174.428 10.8892C174.428 9.76671 173.082 10.8604 172.446 10.6973L172.952 9.95857L172.098 10.5054C172.02 10.2847 172.045 9.83387 172.407 9.76671C172.059 9.30622 171.916 9.97778 171.644 9.4885C171.618 9.41176 171.656 9.38298 171.695 9.35419L171.165 9.51729C171.307 9.36379 171.255 8.95128 171.501 9.11436C170.815 8.53875 170.013 9.4885 169.87 8.85533L169.896 8.77859C168.679 8.86493 169.624 9.33501 168.575 9.87224L168.407 8.36608L168.135 8.92249C168.018 8.88412 167.797 8.80737 167.914 8.57713C167.37 8.9033 167.914 8.83615 167.564 9.17192C167.15 8.55794 165.946 9.17192 166.062 8.24136C165.739 8.64428 166.516 8.66347 165.829 8.87452C165.919 7.86722 165.091 8.93209 164.689 8.40444C164.988 7.92478 165.402 8.27014 165.013 7.73291C164.47 8.53875 164.055 7.38754 163.576 7.48349C163.369 8.16461 162.553 7.61779 161.763 7.73291C161.866 7.51226 160.481 7.13812 159.859 6.79276L159.911 6.67764C159.6 7.35877 158.927 7.13812 158.383 7.22446C158.5 6.81194 158.641 6.65845 158.965 6.50495L158.473 6.4474C158.305 6.65845 158.124 6.75438 157.787 6.79276L158.033 6.2939C157.373 6.24593 156.583 6.74479 155.832 6.30349C155.676 6.78317 156.168 7.73291 155.222 7.94396C155.249 7.67535 155.326 7.22446 155.572 7.14771C155.495 7.17649 155.249 7.32999 155.132 7.20527L155.586 6.80235C155.249 6.56252 155.3 7.14771 155.016 7.07096C155.106 6.69682 154.86 6.77357 154.964 6.48577C155.054 6.45699 155.197 6.66805 155.339 6.54333C155.016 6.4378 154.653 6.16919 154.588 5.8622C154.575 6.08285 154.471 6.36105 154.213 6.38024C153.565 6.33228 154.096 5.90057 153.759 5.67032C153.539 5.91016 153.19 5.59358 153.06 6.15C152.865 6.12122 152.892 5.8622 152.853 5.69911C152.464 5.90057 151.273 5.58399 151.519 6.22675L151.597 6.27471C151.584 6.28431 151.558 6.28431 151.531 6.2939C150.314 6.71601 149.33 5.7087 148.19 5.81423L148.229 5.62236C147.543 5.75667 146.766 5.57439 146.222 5.91976C146.028 5.90057 145.833 5.52643 145.964 5.30578C145.446 5.39212 145.342 5.59358 144.681 5.20026C145.238 4.93164 144.564 4.89326 145.238 5.01798C144.63 4.77814 144.538 4.46156 143.748 4.89326C144.073 4.44237 143.373 4.23132 143.05 4.33685L143.437 4.73018C143.075 4.75895 142.79 4.68221 142.492 4.60546L142.778 3.99148C141.586 3.07052 140.149 5.08514 139.359 3.70368C138.931 4.1162 140.032 4.07782 139.617 4.56709C139.022 4.43278 138.543 3.46385 138.348 3.44466C137.571 3.02255 137.403 4.29848 136.574 3.99148C136.652 4.23132 136.652 4.83571 135.965 4.99879C135.37 4.86449 135.37 3.98189 135.784 3.83799C135.94 3.8284 135.991 3.90514 135.979 3.98189C136.186 3.91474 136.47 3.83799 136.263 3.57897L136.147 3.79962C135.875 3.54059 135.033 3.49263 135.292 3.13767C134.8 3.31035 135.033 3.49263 135.357 3.63653C134.619 3.2432 134.127 3.5214 133.362 3.23361C133.466 3.36792 133.544 3.64612 133.427 3.63653C132.288 3.2528 132.845 4.02027 132.028 4.04905C131.627 3.66531 132.313 3.2432 131.459 3.46385C131.005 3.18564 131.445 2.84987 131.666 2.68679C130.864 3.06092 130.332 2.28386 129.917 2.16874L130.332 2.01525C130.086 2.10159 129.892 2.0824 129.698 2.06321L129.853 2.53329C129.632 2.43736 129.438 2.41817 129.477 2.2263C129.205 2.5045 129.555 2.99377 129.024 3.35832C128.752 3.0993 128.065 3.531 128.04 2.91703C128.972 3.20482 128.014 2.30305 128.843 2.27426C128.675 2.33183 128.48 2.31264 128.273 2.21671C128.247 2.14955 128.325 2.09199 128.39 2.06321C127.548 1.44924 127.871 2.70596 126.926 2.61003C127.095 2.28386 126.797 1.94809 126.628 2.00565C127.003 2.04402 126.731 2.59084 126.356 2.82108C125.786 2.5045 125.669 2.96499 125.36 2.90743L125.708 3.06092C125.54 3.39669 125.243 3.31035 124.816 3.39669C124.816 3.12808 125.217 3.2432 125.088 3.10889C124.543 3.6749 124.103 2.43736 123.39 2.80191C123.119 2.55248 123.443 2.15914 123.183 1.99606C122.393 2.39898 122.432 1.48761 121.616 1.81378C121.785 2.28386 121.837 2.16874 121.241 2.59084L122.549 2.34142L121.655 2.96499C122.044 2.99377 122.497 2.72515 122.717 2.8115C122.289 3.16645 122.342 3.05133 122.471 3.43507C122.031 2.72515 121.383 3.78043 120.826 3.28157L120.969 2.14955C120.102 1.59313 119.285 2.63881 118.119 2.29345L118.483 2.5141C118.275 2.95539 117.745 2.53329 117.343 2.69638C117.421 2.32223 117.188 2.16874 117.045 1.9289C117.032 2.20711 116.177 1.85216 115.996 2.61003L115.517 2.0824C114.571 1.82337 114.326 3.0993 113.419 2.92662C113.73 2.53329 113.341 2.2359 113.976 1.97687C113.665 1.95768 113.393 1.87134 113.367 2.13037C113.211 1.88094 112.474 2.59085 112.214 2.21671C112.073 2.37979 111.995 2.77312 111.658 2.71556C111.631 2.63881 111.67 2.53329 111.67 2.53329C111.658 2.71556 111.114 2.75394 111.373 3.19523C110.518 1.97687 108.73 3.11849 107.979 2.10159C107.293 2.21671 106.477 2.31264 105.869 2.33183C105.921 2.21671 105.882 2.13995 105.998 2.18792C105.182 1.81378 105.415 3.26239 104.483 2.84987C104.03 2.2263 105.014 2.53329 104.716 2.29345C104.651 1.04631 103.551 2.43736 102.942 1.68906L103.097 1.62191C102.618 1.19021 101.867 2.06321 101.064 1.95768C101.064 1.95768 101.103 1.85216 101.077 1.76582C100.494 2.38938 99.4454 2.57166 98.6684 2.73475C98.9274 2.25507 99.0309 2.48532 98.9014 1.98647C98.5518 2.04402 98.9792 2.78272 98.2798 2.90743C98.0597 2.63881 97.5676 2.38938 97.5287 1.86175L98.1892 1.85216C97.8784 1.16143 97.3474 1.85216 96.9978 1.72744L97.0495 1.43005C96.0394 1.50679 96.0136 2.25507 94.9386 2.17833L95.0422 2.40857C94.4336 3.13767 94.5631 1.97687 93.9674 2.5141L93.799 1.75622C93.4105 1.91931 92.4263 2.46614 91.7269 2.61963C92.1284 2.06321 92.9443 1.75622 93.4622 1.43964C93.0738 1.41086 92.1543 1.48761 91.9471 1.86175C92.1025 1.78501 92.2968 1.60273 92.4522 1.71785C91.973 2.31264 91.3513 2.61003 90.5873 2.60044C90.7557 1.13265 88.6188 2.24549 88.062 1.10387C86.7022 1.6507 85.3683 0.883223 83.7754 0.979157C84.3581 2.12078 83.3092 1.01753 83.4257 2.18792C83.0631 2.26467 82.9207 2.24549 82.8818 2.16874L81.7551 1.46842C81.4832 1.13265 82.1048 1.2094 82.0659 0.940783C81.2501 0.864036 81.7163 0.45152 81.1724 0.144531C81.289 0.566641 80.9004 0.748915 80.4342 0.585827L81.0946 1.12306C79.9939 1.75622 80.0974 0.144531 78.9708 0.768102L79.3205 0.39396C78.7377 0.605015 77.1578 0.42274 76.6268 1.38208C76.5232 1.24777 76.3678 0.93119 76.6268 0.844849C75.2151 0.748916 73.5705 1.93849 72.4568 1.39167L72.5474 1.10387C72.2884 1.19021 72.12 1.66029 71.7833 1.38208C71.7963 1.26696 71.8739 1.09428 71.7575 1.07509C71.628 1.18062 71.097 1.60273 70.7343 1.43964L71.0063 1.10387C69.6206 0.768102 68.9601 1.95768 67.8464 2.18792C67.7947 1.3437 66.7068 1.10387 66.1499 0.979157L66.1628 0.854443C64.5699 0.787289 63.5209 1.66029 62.0835 2.0728C61.0992 1.2094 58.9754 1.86175 57.4601 1.43005C57.6933 1.57394 57.4861 2.09199 57.24 2.18792C56.8774 2.05362 56.3464 2.84027 56.3206 2.06321L56.45 2.0728C56.1134 1.33412 55.427 1.57394 54.8701 1.58354L54.896 2.60044C53.2902 1.19981 51.1922 3.34873 50.2468 2.11118C49.936 2.38938 49.5086 2.41817 49.1978 2.69638L49.146 2.15914C48.1618 2.09199 47.6826 2.06321 46.5041 2.29345L46.6985 1.89053C46.025 1.90971 46.0767 3.51181 45.4682 3.59816L45.1703 2.80191C44.0047 2.90743 42.7097 2.29345 41.6736 3.10889C41.6736 2.99377 41.6736 2.75394 41.8549 2.70596C41.2981 2.72515 39.6404 2.33183 40.0159 3.42547C39.8865 2.70596 38.7987 3.47344 38.2289 3.85717V3.31995C37.8144 4.04905 37.8274 4.24091 37.1281 4.49994C36.9468 4.45197 36.8949 4.08741 37.1539 4.20254C36.5194 3.98189 36.7913 4.74937 36.0273 4.5383L36.2344 4.17376C35.6259 4.19294 35.7035 4.36563 35.4445 4.79733C35.1078 5.04676 34.279 4.77814 34.0977 4.30806C34.0717 4.60546 33.8127 5.02757 33.4372 4.93164C33.3595 4.75895 33.4631 4.63425 33.5149 4.56709C32.44 4.30806 32.1421 5.33456 31.3521 4.88367C31.3004 4.71099 31.2357 4.62465 31.1709 4.57668C31.9737 4.50953 32.6213 4.47115 32.5695 4.51913C32.4789 4.02986 31.8055 4.01067 32.194 3.28157C31.7407 3.70369 31.0155 4.58628 30.342 4.42318C30.3031 4.37522 30.2644 4.33685 30.2255 4.2601L30.2773 4.20254C30.1219 4.16417 30.0054 4.23132 29.9017 4.32725C29.6815 4.2697 29.552 4.23132 29.3578 4.24091C29.2024 3.84758 28.5678 4.1162 28.2441 4.13539C28.3866 4.66302 27.9462 4.63425 28.4254 5.02757C28.3606 4.99879 28.4772 4.96042 28.6844 4.91245C28.7233 4.89326 28.788 4.87407 28.8139 4.8453L28.8009 4.89326C29.0082 4.85489 29.2801 4.80692 29.5909 4.75895C29.3967 5.05635 29.1765 5.32496 28.7621 5.06595C28.6585 5.41131 28.5549 5.78545 28.4901 5.96773C27.8945 5.277 26.9619 4.9796 26.7418 4.5383C25.8224 4.96042 24.4755 5.01798 24.087 6.09244C23.8409 6.25552 23.6985 5.84301 23.556 5.69911C23.6985 5.58399 23.8928 5.57439 23.9446 5.4209C23.4525 5.74708 22.3258 5.7183 22.3517 6.4378C21.5746 6.20756 22.5977 5.74708 21.6524 5.97732L21.73 5.74708C19.5673 4.88367 19.1141 7.95355 16.6535 6.81194C16.8219 6.8791 16.8996 6.90788 16.9643 7.023C14.4131 6.71601 12.2373 8.3277 9.60846 7.71372C8.90914 7.60819 8.97389 8.06868 8.67603 8.46201L8.35227 7.92478L7.86015 8.69225C7.04428 9.33501 5.72334 7.60819 4.76501 8.73063L5.04992 9.07599C4.5837 9.08559 3.71602 9.55565 3.65128 9.10476C3.62538 9.18152 3.63833 9.52688 3.39227 9.36379L3.27571 9.0664L2.35623 9.7763C1.44971 9.73793 2.08427 8.59632 0.815137 8.77859C0.387774 8.98005 -0.194994 9.90102 0.064014 10.0641C0.25827 10.0353 0.60793 10.1505 0.737435 10.4383L0.374823 10.6781C0.633831 11.5511 0.698584 12.4912 1.87707 12.8942C2.03247 12.6735 2.20083 12.4529 2.36919 12.2322L2.74474 12.6063L2.17493 12.7503C2.6541 13.0764 2.73179 12.6927 2.8872 12.4049C3.0167 12.6159 3.17211 12.7503 3.34047 12.8078L3.72897 11.8485C3.92324 12.1747 3.65128 12.5775 4.18225 12.6735C4.36355 12.2322 3.61242 11.9732 4.05274 11.6182C4.51895 11.9444 4.5319 12.2802 4.81681 11.8772C4.94631 12.0883 4.90747 12.2514 4.79091 12.3761C5.04992 12.0499 5.68448 12.0979 5.71039 11.6086C6.2284 12.0308 6.86297 11.2729 7.09609 12.0979C7.14788 11.8772 7.5105 11.34 7.82131 11.2536C7.5364 12.3473 9.05159 11.1002 9.21995 12.1843C9.3883 11.2249 10.6833 11.5319 11.318 10.9179C11.292 10.9946 11.2532 11.1482 11.1754 11.1194C11.6417 11.1194 11.8489 11.3688 12.1726 11.4935C12.0172 10.7452 12.6518 10.4766 12.8978 9.95857C13.636 10.5821 12.8202 10.8796 13.1828 11.5319C12.9886 10.9371 13.9468 10.7836 13.6231 10.3231C14.154 10.6973 14.0375 10.4766 14.426 11.0523C14.2447 10.1216 14.7627 10.8316 14.9569 10.2176C15.6822 10.5918 15.3455 11.0619 15.9282 10.6877C16.3167 10.9083 15.8246 11.3113 15.8246 11.3113ZM31.1709 7.68495C31.1709 7.69454 31.1709 7.69454 31.1709 7.69454C31.0413 7.72331 30.9249 7.7425 30.8471 7.76169C30.9249 7.7425 31.0155 7.72331 31.1709 7.68495ZM32.5048 7.54104C32.3364 7.54104 32.1292 7.55064 31.922 7.57942C31.8443 7.39714 31.8573 7.20527 31.9868 7.20527C31.9479 7.32999 32.2847 7.40673 32.5048 7.54104ZM28.9175 4.15457C29.1117 4.04905 29.2024 4.14498 29.2543 4.25051C29.1506 4.2697 29.047 4.30806 28.8916 4.35603C28.8916 4.37522 28.8786 4.404 28.8786 4.42318C28.8916 4.32725 28.8916 4.23132 28.9175 4.15457Z" fill="#FF6610"/>
<path d="M28.6832 4.29653C28.6573 4.30612 28.6443 4.3349 28.6055 4.34449C28.6573 4.38287 28.709 4.42124 28.7608 4.45002C28.7738 4.39246 28.7868 4.3349 28.7997 4.27734C28.7608 4.27734 28.722 4.28694 28.6832 4.29653Z" fill="#FF6610"/>
<path d="M151.516 5.62075L151.491 5.60156C151.504 5.62075 151.53 5.64953 151.53 5.6879C151.516 5.65912 151.516 5.63994 151.516 5.62075Z" fill="#FF6610"/>
<path d="M51.1181 6.32252L51.1049 6.18652L51 6.31281L51.1181 6.32252Z" fill="#FF6610"/>
<path d="M158.449 8.32617C158.449 8.37474 158.462 8.42331 158.514 8.47188C158.527 8.44274 158.488 8.38445 158.449 8.32617Z" fill="#FF6610"/>
<path d="M161.567 8.90137L161.97 9.16038C161.801 9.02608 161.671 8.94933 161.567 8.90137Z" fill="#FF6610"/>
<path d="M163.914 9.54386C163.966 9.45752 163.992 9.39039 164.017 9.32324L163.914 9.54386Z" fill="#FF6610"/>
<path d="M125.057 5.9375C125.019 5.9375 124.993 5.9375 124.954 5.95669C124.733 6.03343 124.889 6.00465 125.057 5.9375Z" fill="#FF6610"/>
<path d="M136.846 5.66895C136.705 5.75528 136.574 5.84162 136.433 5.88959C136.627 5.94715 136.782 5.97593 136.846 5.66895Z" fill="#FF6610"/>
<path d="M135.891 5.83104C136.085 5.95576 136.253 5.94616 136.435 5.88861C136.267 5.84063 136.072 5.76389 135.891 5.83104Z" fill="#FF6610"/>
<path d="M174.303 11.4148L174.408 11.4536C174.421 11.4148 174.435 11.3954 174.447 11.3662L174.303 11.4148Z" fill="#FF6610"/>
<path d="M174.45 11.3763L174.595 11.3374C174.542 11.3277 174.49 11.318 174.45 11.3763Z" fill="#FF6610"/>
<path d="M174.908 11.2412L174.598 11.3275C174.688 11.3467 174.805 11.3851 174.908 11.2412Z" fill="#FF6610"/>
<path d="M171.177 10.6748L171.087 10.8571C171.126 10.8284 171.151 10.7611 171.177 10.6748Z" fill="#FF6610"/>
<path d="M170.191 10.5803C170.412 10.6571 170.658 11.0792 171.008 11.012L171.085 10.8681C170.852 11.1176 170.502 10.2926 170.191 10.5803Z" fill="#FF6610"/>
<path d="M166.802 7.5764L167.578 7.8546C167.488 7.62436 167.385 7.32697 167.772 7.33657C166.905 6.56909 167.85 7.82582 166.802 7.5764Z" fill="#FF6610"/>
<path d="M164.343 6.88713C164.81 6.85835 164.421 6.58973 164.474 6.47461C164.137 6.61851 164.059 6.65689 164.343 6.88713Z" fill="#FF6610"/>
<path d="M145.807 4.50702L145.949 4.02734C145.599 4.05613 145.91 4.20962 145.807 4.50702Z" fill="#FF6610"/>
<path d="M141.79 6.58944L142.062 6.9348L142.308 6.5127L141.79 6.58944Z" fill="#FF6610"/>
<path d="M140.333 2.94134L140.488 2.88379L139.88 3.00849L140.333 2.94134Z" fill="#FF6610"/>
<path d="M108.771 0.948945L108.835 1.55333C109.081 1.46699 109.172 0.785863 108.771 0.948945Z" fill="#FF6610"/>
<path d="M95.0922 1.2356C94.9497 0.9286 94.5741 0.727141 94.3281 1.01494C94.6389 1.0725 94.9368 1.31234 95.0922 1.2356Z" fill="#FF6610"/>
<path d="M54.1181 1.26362L54.3771 1.04297L53.8721 1.24443L54.1181 1.26362Z" fill="#FF6610"/>
</svg>
