<svg width="16" height="12" viewBox="0 0 16 12" fill="none" xmlns="http://www.w3.org/2000/svg">
<g clip-path="url(#clip0_30_5677)">
<path d="M12.125 5.25002H11.75V3.78518C11.75 1.7133 10.0836 0.00705317 8.01172 2.19235e-05C5.9375 -0.00700933 4.25 1.67815 4.25 3.75002V5.25002H3.875C3.25391 5.25002 2.75 5.75393 2.75 6.37502V10.875C2.75 11.4961 3.25391 12 3.875 12H12.125C12.7461 12 13.25 11.4961 13.25 10.875V6.37502C13.25 5.75393 12.7461 5.25002 12.125 5.25002ZM5 3.75002C5 2.09533 6.34531 0.750022 8 0.750022C9.65469 0.750022 11 2.09533 11 3.75002V5.25002H5V3.75002ZM12.125 11.25H3.875C3.66875 11.25 3.5 11.0813 3.5 10.875V6.37502C3.5 6.16877 3.66875 6.00002 3.875 6.00002H12.125C12.3313 6.00002 12.5 6.16877 12.5 6.37502V10.875C12.5 11.0813 12.3313 11.25 12.125 11.25Z" fill="black" fill-opacity="0.58"/>
</g>
<defs>
<clipPath id="clip0_30_5677">
<rect width="16" height="12" fill="white"/>
</clipPath>
</defs>
</svg>
