<svg width="25" height="25" viewBox="0 0 25 25" fill="none" xmlns="http://www.w3.org/2000/svg">
<g clip-path="url(#clip0_37_7414)">
<path d="M12.8242 16.7436C12.076 16.7436 11.4694 17.3502 11.4694 18.0984C11.4694 18.8467 12.076 19.4533 12.8242 19.4533C13.5725 19.4533 14.1791 18.8467 14.1791 18.0984C14.1791 17.3502 13.5725 16.7436 12.8242 16.7436ZM13.1953 15.5823H12.4212C12.1005 15.5823 11.8405 15.3223 11.8405 15.0017V14.9832C11.8405 11.5795 15.5876 11.9049 15.5876 9.78606C15.5876 8.81754 14.7282 7.84037 12.8083 7.84037C11.3981 7.84037 10.6664 8.30725 9.9432 9.22869C9.75411 9.46966 9.40833 9.51877 9.15701 9.34366L8.52149 8.90092C8.24932 8.71129 8.18956 8.33135 8.39351 8.06977C9.42057 6.75234 10.6392 5.90488 12.8083 5.90488C15.3399 5.90488 17.5231 7.34445 17.5231 9.78606C17.5231 13.048 13.776 12.8755 13.776 14.9832V15.0017C13.776 15.3223 13.516 15.5823 13.1953 15.5823ZM12.8242 2.22746C18.5639 2.22746 23.2758 6.87625 23.2758 12.6791C23.2758 18.4512 18.6012 23.1307 12.8242 23.1307C7.05435 23.1307 2.37261 18.4583 2.37261 12.6791C2.37261 6.91119 7.0469 2.22746 12.8242 2.22746ZM12.8242 0.679077C6.19727 0.679077 0.824219 6.05406 0.824219 12.6791C0.824219 19.308 6.19727 24.6791 12.8242 24.6791C19.4512 24.6791 24.8242 19.308 24.8242 12.6791C24.8242 6.05406 19.4512 0.679077 12.8242 0.679077Z" fill="black" fill-opacity="0.8"/>
</g>
<defs>
<clipPath id="clip0_37_7414">
<rect width="24" height="24" fill="white" transform="translate(0.824219 0.679077)"/>
</clipPath>
</defs>
</svg>
