<svg width="30" height="30" viewBox="0 0 30 30" fill="none" xmlns="http://www.w3.org/2000/svg">
<path d="M15.3816 30C14.9598 29.8123 14.8152 29.4922 14.8031 29.0727C14.7911 28.6973 14.7429 28.3109 14.7188 27.9356C14.6826 27.483 14.9477 27.1628 15.3695 27.1076C15.8275 27.0524 16.1769 27.3174 16.2372 27.781C16.2975 28.2668 16.3216 28.7525 16.3577 29.2383C16.3939 29.6136 16.1408 29.8234 15.8275 30C15.6828 30 15.5262 30 15.3816 30Z" fill="#FBFBFB"/>
<path d="M11.0914 2.85368C10.3442 2.3017 9.62112 1.78284 8.9101 1.26398C8.64498 1.06527 8.52447 0.822398 8.59677 0.51329C8.65703 0.237301 8.84984 0.0275488 9.13907 0.00546969C9.36804 -0.0166095 9.64522 0.0275492 9.81394 0.148985C11.0191 0.999032 12.2121 1.87116 13.4052 2.75432C13.8149 3.05239 13.839 3.4719 13.4895 3.8362C12.4772 4.87392 11.4649 5.9006 10.4406 6.92729C10.1152 7.25847 9.65727 7.26951 9.33189 7.00456C9.01856 6.73961 9.00652 6.30907 9.31985 5.97788C9.72958 5.55838 10.1514 5.13887 10.5611 4.71937C10.6334 4.64209 10.7178 4.56482 10.7539 4.43234C10.6214 4.46546 10.4767 4.49858 10.3442 4.54274C5.46348 6.13244 2.4989 9.2456 1.69147 13.9374C0.715329 19.6118 4.61989 25.0984 10.6455 26.6881C10.7539 26.7212 10.8744 26.7544 10.9829 26.7875C11.4047 26.931 11.6096 27.2732 11.5011 27.6375C11.3926 28.0129 11.0191 28.2226 10.5852 28.1233C10.1393 28.0239 9.70548 27.9025 9.27164 27.7479C4.34272 25.9485 1.29379 22.6697 0.257387 17.9117C-1.10439 11.6081 3.0653 5.22719 9.74163 3.25111C10.1514 3.10759 10.5973 2.98616 11.0914 2.85368Z" fill="#FBFBFB"/>
<path d="M15.6587 14.2796C15.8154 14.2796 15.9359 14.2796 16.0444 14.2796C17.8038 14.2796 19.5633 14.2796 21.3228 14.2796C21.9374 14.2796 22.311 14.7654 22.0941 15.2511C21.9615 15.5271 21.7205 15.6817 21.3951 15.6817C19.2138 15.6817 17.0446 15.6927 14.8634 15.6817C14.4657 15.6817 14.1885 15.4278 14.1282 15.0635C14.1162 14.9751 14.1162 14.8868 14.1162 14.7985C14.1162 12.701 14.1162 10.5924 14.1162 8.49491C14.1162 7.92085 14.4295 7.61174 14.9477 7.63382C15.3093 7.6559 15.5864 7.88773 15.6346 8.21892C15.6467 8.32931 15.6467 8.45075 15.6467 8.57218C15.6467 10.3385 15.6467 12.1048 15.6467 13.8822C15.6587 14.0037 15.6587 14.114 15.6587 14.2796Z" fill="#FBFBFB"/>
<path d="M29.2042 11.2106C29.1922 11.4646 29.0355 11.7074 28.7101 11.8178C28.1437 11.9944 27.5773 12.16 27.0109 12.3036C26.6614 12.3919 26.2879 12.1932 26.1553 11.8841C26.0107 11.5639 26.1312 11.1444 26.4807 11.023C27.1073 10.8022 27.746 10.6145 28.3968 10.471C28.8186 10.3937 29.2042 10.758 29.2042 11.2106Z" fill="#FBFBFB"/>
<path d="M15.0682 3.26214C15.1526 2.7764 15.2249 2.2465 15.3213 1.7166C15.3936 1.3523 15.7672 1.13151 16.189 1.1867C16.5746 1.2419 16.8759 1.56205 16.8277 1.9374C16.7675 2.45626 16.6831 2.97512 16.5867 3.49398C16.5144 3.86932 16.1408 4.10115 15.7431 4.05699C15.3334 4.02388 15.0441 3.70373 15.0682 3.26214Z" fill="#FBFBFB"/>
<path d="M21.7325 27.8583C21.7325 28.2006 21.5156 28.4545 21.1902 28.5428C20.8769 28.6311 20.5033 28.5428 20.3466 28.2778C20.0454 27.77 19.7802 27.2511 19.5272 26.7212C19.3825 26.4121 19.5633 26.0589 19.8887 25.9043C20.202 25.7498 20.6479 25.7939 20.8166 26.0699C21.1541 26.6109 21.4192 27.1849 21.7084 27.7479C21.7325 27.781 21.7205 27.8362 21.7325 27.8583Z" fill="#FBFBFB"/>
<path d="M26.5289 6.76169C26.4084 6.93832 26.312 7.13704 26.1553 7.26951C25.7696 7.58966 25.3599 7.88773 24.9381 8.17476C24.5525 8.45075 24.1066 8.40659 23.8294 8.08644C23.5643 7.77733 23.6125 7.36887 23.962 7.09288C24.3717 6.77273 24.8056 6.46362 25.2273 6.15451C25.4804 5.96684 25.7817 5.94476 26.0709 6.08828C26.3361 6.23179 26.4686 6.44154 26.5289 6.76169Z" fill="#FBFBFB"/>
<path d="M21.3228 2.71017C21.9253 2.76536 22.323 3.28422 22.0699 3.74789C21.8048 4.23363 21.5035 4.70833 21.1902 5.17199C20.9733 5.49214 20.5274 5.55838 20.1779 5.3707C19.8525 5.18303 19.7079 4.79665 19.8887 4.4765C20.1538 4.0018 20.443 3.5271 20.7684 3.08551C20.8769 2.91992 21.13 2.8316 21.3228 2.71017Z" fill="#FBFBFB"/>
<path d="M28.4209 14.6219C28.6981 14.6219 28.9753 14.6108 29.2524 14.6219C29.6742 14.6329 29.9755 14.9089 29.9996 15.2842C30.0117 15.6596 29.7465 15.9908 29.3247 16.0018C28.7222 16.0349 28.1076 16.0349 27.505 16.0018C27.0832 15.9797 26.8302 15.6486 26.8422 15.2732C26.8663 14.9089 27.1676 14.6329 27.5894 14.6219C27.6135 14.6219 27.6376 14.6219 27.6496 14.6219C27.9027 14.6219 28.1558 14.6219 28.4209 14.6219Z" fill="#FBFBFB"/>
<path d="M26.1553 24.6568C26.1553 25.0212 26.0227 25.2309 25.7576 25.3634C25.4925 25.4959 25.2032 25.4959 24.9743 25.3192C24.5043 24.9549 24.0463 24.5685 23.6125 24.1711C23.3353 23.9172 23.3715 23.4977 23.6366 23.2438C23.9017 22.9899 24.3235 22.9347 24.6248 23.1665C25.0948 23.5308 25.5407 23.9172 25.9866 24.3257C26.095 24.425 26.1312 24.5906 26.1553 24.6568Z" fill="#FBFBFB"/>
<path d="M26.8302 19.1371C26.8784 19.1481 26.9748 19.1591 27.0591 19.1812C27.5412 19.3468 28.0353 19.5234 28.5173 19.7001C28.9632 19.8767 29.156 20.2521 28.9994 20.6274C28.8427 20.9917 28.4089 21.1573 27.963 21.0138C27.4689 20.8482 26.9627 20.6716 26.4807 20.4728C26.1191 20.3293 25.9384 19.9871 26.0348 19.6559C26.1071 19.3358 26.4204 19.126 26.8302 19.1371Z" fill="#FBFBFB"/>
</svg>
