<svg width="17" height="12" viewBox="0 0 17 12" fill="none" xmlns="http://www.w3.org/2000/svg">
<path d="M10.6 6.75C9.92734 6.75 9.60391 7.125 8.5 7.125C7.39609 7.125 7.075 6.75 6.4 6.75C4.66094 6.75 3.25 8.16094 3.25 9.9V10.875C3.25 11.4961 3.75391 12 4.375 12H12.625C13.2461 12 13.75 11.4961 13.75 10.875V9.9C13.75 8.16094 12.3391 6.75 10.6 6.75ZM13 10.875C13 11.0813 12.8313 11.25 12.625 11.25H4.375C4.16875 11.25 4 11.0813 4 10.875V9.9C4 8.57578 5.07578 7.5 6.4 7.5C6.85937 7.5 7.31641 7.875 8.5 7.875C9.68125 7.875 10.1406 7.5 10.6 7.5C11.9242 7.5 13 8.57578 13 9.9V10.875ZM8.5 6C10.157 6 11.5 4.65703 11.5 3C11.5 1.34297 10.157 0 8.5 0C6.84297 0 5.5 1.34297 5.5 3C5.5 4.65703 6.84297 6 8.5 6ZM8.5 0.75C9.73984 0.75 10.75 1.76016 10.75 3C10.75 4.23984 9.73984 5.25 8.5 5.25C7.26016 5.25 6.25 4.23984 6.25 3C6.25 1.76016 7.26016 0.75 8.5 0.75Z" fill="black" fill-opacity="0.58"/>
</svg>
