<svg width="74" height="73" viewBox="0 0 74 73" fill="none" xmlns="http://www.w3.org/2000/svg">
<path d="M74 36.7686C74 16.8863 57.4392 0.768555 37.0105 0.768555C16.5818 0.768555 0.0209961 16.8863 0.0209961 36.7686C0.0209961 56.6508 16.5818 72.7686 37.0105 72.7686C57.4392 72.7686 74 56.6508 74 36.7686Z" fill="black"/>
<path d="M43.2998 38.4707C45.3188 36.6256 46.4285 34.1281 46.4285 31.4355C46.4285 25.3304 40.6874 20.6953 34.3606 21.9853C30.4613 22.7803 27.3866 25.8929 26.7084 29.733C26.1228 33.0705 27.2941 36.2356 29.6059 38.4032C31.0855 39.7907 31.9717 41.8308 31.9717 43.8633V46.5034C31.5171 46.5484 31.1626 46.9234 31.1626 47.3809C31.1626 47.8684 31.5633 48.2584 32.0642 48.2584C32.488 50.2535 34.3144 51.7685 36.4952 51.7685C38.6761 51.7685 40.5024 50.2535 40.9186 48.2509H41.1035C41.6044 48.2509 42.0051 47.8609 42.0051 47.3734C42.0051 46.8859 41.6044 46.4959 41.1035 46.4959H41.011V43.8558C41.0496 43.6683 40.6257 40.9157 43.2998 38.4707ZM30.862 37.1281C28.8816 35.2831 28.0185 32.6955 28.4885 30.0255C29.0434 26.8904 31.5479 24.3478 34.7305 23.7028C39.9168 22.6453 44.6175 26.4329 44.6175 31.4355C44.6175 33.6331 43.7082 35.6806 42.0591 37.1881C40.3329 38.7707 39.308 40.8632 39.2078 42.9783H37.3968V36.9781L40.8569 31.923C41.1343 31.518 41.0187 30.9705 40.6026 30.7005C40.1865 30.4305 39.6239 30.543 39.3465 30.948L38.8841 31.623L36.8882 30.648C36.6339 30.528 36.3334 30.528 36.0791 30.648L34.0832 31.623L33.6208 30.948C33.3434 30.543 32.7809 30.438 32.3647 30.7005C31.9486 30.9705 31.8407 31.518 32.1104 31.923L35.5705 36.9781V42.9783H33.721C33.5207 40.7732 32.4803 38.6357 30.862 37.1281ZM36.4952 35.1256L35.1081 33.093L36.4952 32.418L37.8823 33.093L36.4952 35.1256ZM36.4952 50.0135C35.3162 50.0135 34.3144 49.2784 33.9445 48.2584H39.0537C38.6761 49.2784 37.6743 50.0135 36.4952 50.0135ZM33.7904 46.4959V44.7408H39.2078V46.4959H33.7904Z" fill="white"/>
<path d="M25.0984 36.8278L23.534 37.7053C23.1025 37.9453 22.9561 38.4853 23.2027 38.9054C23.457 39.3254 24.0041 39.4679 24.4357 39.2279L26 38.3503C26.4316 38.1103 26.578 37.5703 26.3314 37.1503C26.0771 36.7303 25.5299 36.5803 25.0984 36.8278Z" fill="white"/>
<path d="M47.8995 26.0429L49.4638 25.1654C49.8954 24.9254 50.0418 24.3853 49.7952 23.9653C49.5486 23.5453 48.9937 23.4028 48.5622 23.6428L46.9979 24.5203C46.5663 24.7604 46.4199 25.3004 46.6665 25.7204C46.9131 26.1404 47.4679 26.2829 47.8995 26.0429Z" fill="white"/>
<path d="M26 24.5203L24.4357 23.6428C24.0041 23.4028 23.4493 23.5453 23.2027 23.9653C22.9561 24.3853 23.1025 24.9254 23.534 25.1654L25.0984 26.0429C25.5299 26.2829 26.0848 26.1404 26.3314 25.7204C26.578 25.3004 26.4316 24.7604 26 24.5203Z" fill="white"/>
<path d="M46.9897 38.3508L48.554 39.2283C48.9856 39.4683 49.5404 39.3258 49.787 38.9058C50.0336 38.4858 49.8872 37.9458 49.4556 37.7058L47.8913 36.8283C47.4597 36.5883 46.9049 36.7308 46.6583 37.1508C46.4117 37.5708 46.5581 38.1033 46.9897 38.3508Z" fill="white"/>
<path d="M21.0843 31.4351C21.0843 31.9226 21.485 32.3126 21.9859 32.3126H23.8508C24.3517 32.3126 24.7524 31.9226 24.7524 31.4351C24.7524 30.9476 24.3517 30.5576 23.8508 30.5576H21.9859C21.485 30.5576 21.0843 30.9476 21.0843 31.4351Z" fill="white"/>
<path d="M51.0068 30.5576H49.1419C48.641 30.5576 48.2403 30.9476 48.2403 31.4351C48.2403 31.9226 48.641 32.3126 49.1419 32.3126H51.0068C51.5077 32.3126 51.9084 31.9226 51.9084 31.4351C51.9084 30.9476 51.5077 30.5576 51.0068 30.5576Z" fill="white"/>
</svg>
