<svg width="355" height="221" viewBox="0 0 355 221" fill="none" xmlns="http://www.w3.org/2000/svg">
<g clip-path="url(#clip0_37_7658)">
<path d="M290.946 211.149L287.255 210.285L289.487 193.284L294.934 194.56L290.946 211.149Z" fill="#FFB6B6"/>
<path d="M276.374 215.534C276.213 216.153 276.523 216.769 277.065 216.91L284.346 218.798C284.346 218.798 285.81 216.106 289.053 215.625L288.186 219.794L291.942 220.768L293.206 214.03C293.206 214.03 295.131 210.748 293.514 208.397C291.897 206.045 293.522 206.735 293.522 206.735L293.765 202.425L287.916 201.62L286.204 208.041L281.792 213.711L277.234 214.658C276.828 214.742 276.49 215.086 276.374 215.534Z" fill="#222222"/>
<path d="M326.327 207.138L322.961 208.881L313.591 194.517L318.559 191.945L326.327 207.138Z" fill="#FFB6B6"/>
<path d="M318.113 219.941C318.394 220.516 319.03 220.783 319.534 220.537L326.293 217.238C326.293 217.238 325.652 214.241 327.803 211.768L329.857 215.499L333.344 213.797L329.919 207.857C329.919 207.857 329.245 204.113 326.486 203.378C323.728 202.643 325.411 202.111 325.411 202.111L322.79 198.679L317.824 201.87L320.703 207.86L321.042 215.035L318.196 218.717C317.943 219.045 317.91 219.526 318.113 219.941Z" fill="#222222"/>
<path d="M128.916 143.994H226.744C227.976 143.994 228.974 142.996 228.974 141.766V3.41435C228.974 2.18342 227.976 1.18555 226.744 1.18555H128.916C127.684 1.18555 126.686 2.18342 126.686 3.41435V141.766C126.686 142.996 127.684 143.994 128.916 143.994Z" fill="white"/>
<path d="M229.392 144.411H126.269V0.768555H229.392V144.411ZM127.103 143.577H228.557V1.60235H127.103V143.577Z" fill="#DCE3E0"/>
<path d="M206.217 23.7793C206.613 23.7793 206.935 24.1009 206.935 24.4976V25.9342C206.935 26.3309 206.613 26.6525 206.217 26.6525H149.444C149.047 26.6525 148.725 26.3309 148.725 25.9342V24.4976C148.725 24.1009 149.047 23.7793 149.444 23.7793H206.217Z" fill="#DCE3E0"/>
<path d="M206.217 30.6025C206.613 30.6025 206.935 30.9241 206.935 31.3208V32.7575C206.935 33.1542 206.613 33.4758 206.217 33.4758H149.444C149.047 33.4758 148.725 33.1542 148.725 32.7575V31.3208C148.725 30.9241 149.047 30.6025 149.444 30.6025H206.217Z" fill="#DCE3E0"/>
<path d="M206.217 37.4258C206.613 37.4258 206.935 37.7474 206.935 38.1441V39.5807C206.935 39.9774 206.613 40.299 206.217 40.299H149.444C149.047 40.299 148.725 39.9774 148.725 39.5807V38.1445C148.725 37.7478 149.047 37.4262 149.444 37.4262L206.217 37.4258Z" fill="white"/>
<path d="M310.713 55.3262H329.572C329.544 54.4407 329.732 53.5617 330.12 52.7651C330.131 53.6491 330.326 54.5212 330.691 55.3262H331.548C332.858 55.3249 333.92 54.2637 333.921 52.9543V40.7068C333.92 34.7102 328.79 25.7208 323.216 29.4824C323.036 29.4731 320.21 28.2222 320.03 28.2222C315.126 28.2261 313.44 32.6491 311.959 37.3215C310.271 36.5443 309.109 39.7884 308.268 45.4984C308.022 47.1647 307.804 49.0409 307.608 51.0886C307.068 52.8066 308.023 54.6374 309.742 55.1777C310.057 55.2766 310.385 55.3272 310.714 55.3279L310.713 55.3262Z" fill="#222222"/>
<path d="M273.707 125.346C272.772 127.561 273.158 129.838 274.568 130.433C275.979 131.028 277.88 129.714 278.814 127.498C279.2 126.618 279.369 125.659 279.308 124.7L283.151 115.264L278.683 113.556L275.367 123.04C274.637 123.665 274.067 124.455 273.706 125.345L273.707 125.346Z" fill="#FFB6B6"/>
<path d="M315.027 51.1812L324.041 53.0656L322.658 57.2107L325.423 88.9153L320.815 99.1239L292.703 96.8208L299.616 83.0024C299.616 83.0024 296.85 71.4878 300.537 69.1839C304.224 66.88 310.215 55.3654 310.215 55.3654L315.027 51.1812Z" fill="white"/>
<path d="M323.43 54.899L331.415 58.1302L328.65 98.662L334.641 133.667L315.285 136.891C315.285 136.891 317.59 59.5121 318.972 58.1302C320.354 56.7484 323.43 54.897 323.43 54.897V54.899Z" fill="#222222"/>
<path d="M307.79 59.954C307.79 59.954 302.594 56.6685 299.787 59.1012C296.98 61.534 275.367 120.339 275.367 120.339L281.196 122.87L294.566 94.8544L307.79 59.954Z" fill="#222222"/>
<path d="M292.905 159.033L287.634 199.532L295.008 199.993C295.008 199.993 298.842 189.537 303.216 177.221C304.147 174.61 305.101 171.915 306.046 169.217C307.069 166.287 308.087 163.358 309.055 160.53C311.447 153.557 313.544 147.21 314.742 143.065C314.949 142.337 315.133 141.679 315.285 141.098C318.509 128.717 320.354 96.3626 320.354 96.3626L293.625 94.0596L293.339 94.4142L287.634 101.539L287.901 103.046L295.008 142.882L292.907 159.035L292.905 159.033Z" fill="#222222"/>
<path d="M295.007 142.882L292.906 159.035L302.358 175.666L303.214 177.222L316.229 200.86L322.658 197.216C322.658 197.216 314.294 178.005 309.053 160.53C308.473 158.61 307.933 156.707 307.45 154.856C306.025 149.434 308.357 139.541 307.445 136.814C304.362 127.612 294.315 109.202 289.651 100.862L287.9 103.045L295.007 142.882Z" fill="#222222"/>
<path d="M310.332 55.0181L301 58.5925L276.574 129.984L291.322 132.287L298.235 90.834L310.332 55.0181Z" fill="#222222"/>
<path d="M333.669 132.079C333.907 134.472 335.334 136.289 336.857 136.137C338.381 135.986 339.423 133.924 339.185 131.531C339.103 130.574 338.793 129.65 338.281 128.837L337.147 118.713L332.405 119.346L334.026 129.259C333.683 130.157 333.561 131.124 333.669 132.079Z" fill="#FFB6B6"/>
<path d="M328.188 58.1322C328.188 58.1322 334.179 56.7504 336.023 59.9747C337.866 63.199 338.788 125.839 338.788 125.839L332.449 126.3L329.11 95.4413L328.188 58.1335L328.188 58.1322Z" fill="#222222"/>
<path d="M320.542 50.0636C325.833 50.0636 330.122 45.7771 330.122 40.4893C330.122 35.2016 325.833 30.915 320.542 30.915C315.251 30.915 310.962 35.2016 310.962 40.4893C310.962 45.7771 315.251 50.0636 320.542 50.0636Z" fill="#FFB6B6"/>
<path d="M324.388 55.3261H329.119C329.359 55.3261 329.564 55.1408 329.575 54.9009L329.576 54.8744C329.602 54.3742 330.304 54.29 330.467 54.7637C330.533 54.9542 330.608 55.1419 330.691 55.3261H331.157V40.5655C331.157 38.0338 329.103 35.9814 326.57 35.9814C324.407 35.9814 322.538 37.4914 322.085 39.605C322.085 39.605 318.87 43.5462 320.765 45.762C322.66 47.9779 319.903 49.7815 319.903 49.7815C319.291 52.6351 321.468 55.3261 324.388 55.3261Z" fill="#222222"/>
<path d="M167.527 72.5198C168.589 71.8355 168.813 70.3711 168.07 69.3498L164.591 64.5658C163.779 63.4473 162.213 63.1988 161.094 64.0108C160.995 64.0827 160.901 64.1619 160.813 64.2475C154.923 67.3948 151.752 71.9909 155.277 77.424C155.277 78.3314 155.344 79.2375 155.476 80.1351C155.533 80.5246 155.664 80.9056 155.886 81.2306C156.547 82.1956 157.712 82.5498 158.737 82.2158L164.426 80.3683C165.635 79.9758 166.289 78.6569 165.843 77.4676C165.266 75.9307 165.504 73.8242 167.527 72.5198Z" fill="#0C2328"/>
<path d="M181.031 86.6315C179.394 86.4699 177.997 87.8181 177.997 89.4621V94.3672C177.997 94.4943 178.006 94.6212 178.026 94.7468C178.236 96.1137 179.515 97.0513 180.883 96.8411C188.856 97.8231 194.305 94.3578 194.633 86.7548C194.685 86.6481 194.73 86.5378 194.766 86.4248C195.191 85.111 194.47 83.7017 193.156 83.277L188.392 81.7301C186.749 81.1965 185.041 82.2628 184.753 83.9657C184.493 85.5039 183.478 86.8729 181.031 86.6315Z" fill="#DCE3E0"/>
<path d="M151.58 91.4281C153.234 101.236 161.845 104.957 170.826 105.545C171.001 105.572 171.179 105.586 171.357 105.586C173.294 105.587 174.865 104.019 174.866 102.083V93.8807C174.866 91.5865 172.985 89.7997 170.689 89.7766C168.47 89.7543 167.024 88.7047 166.43 86.7778C165.751 84.5768 163.331 83.4162 161.139 84.128L153.648 86.5608C152.678 86.8757 151.893 87.5968 151.497 88.5365C151.103 89.4667 151.133 90.5221 151.58 91.4281Z" fill="#3F3D56"/>
<path d="M197.73 57.5129C196.347 56.1595 194.129 56.1825 192.775 57.5641C192.654 57.6871 192.543 57.8188 192.442 57.9581L185.785 67.1144C184.934 68.2852 185.421 69.9163 186.751 70.4879C189.867 71.827 189.54 74.8328 188.525 76.6724C188.028 77.5738 188.438 78.702 189.418 79.0201L200.634 82.6625C202.479 83.258 204.458 82.2456 205.054 80.4014C205.114 80.2157 205.158 80.0253 205.187 79.8322C205.38 78.5488 205.476 77.2529 205.476 75.9551C207.374 68.8839 204.748 62.218 197.73 57.5129Z" fill="white"/>
<path d="M178.467 68.1296C179.71 68.8289 181.278 68.4906 182.117 67.3375L184.347 64.2704C184.779 63.6756 184.93 62.9211 184.758 62.206C184.592 61.504 184.126 60.9102 183.483 60.5814C178.236 55.843 172.025 55.5522 166.759 60.5572C166.097 60.891 165.615 61.4986 165.441 62.219C165.269 62.9291 165.418 63.6787 165.848 64.2694L168.454 67.8539C169.349 69.085 171.083 69.4071 172.316 68.5147C174.108 67.2181 176.712 67.1418 178.467 68.1296Z" fill="#DCE3E0"/>
<path d="M355 220.04H0V220.742H355V220.04Z" fill="#DCE3E0"/>
<path d="M149.09 129.92C149.29 129.073 150.23 128.794 150.999 128.826C151.485 128.859 151.966 128.935 152.438 129.054C152.932 129.164 153.422 129.295 153.908 129.434C154.801 129.688 155.684 129.996 156.591 130.194C157.352 130.403 158.154 130.414 158.921 130.229C159.659 130.026 160.239 129.457 160.456 128.724C160.676 128.023 160.359 127.266 159.705 126.931C159.1 126.598 158.339 126.818 158.005 127.423C158 127.432 157.995 127.441 157.991 127.45C157.71 128.196 157.93 129.037 158.54 129.551C158.852 129.844 159.195 130.104 159.561 130.327C159.934 130.58 160.348 130.765 160.785 130.874C161.528 131.071 162.313 130.764 162.726 130.116C162.808 129.961 162.857 129.791 162.871 129.616C162.893 129.378 162.521 129.379 162.499 129.616C162.436 130.298 161.637 130.617 161.039 130.543C160.636 130.476 160.25 130.326 159.908 130.104C159.577 129.911 159.263 129.69 158.97 129.443C158.464 129.004 157.988 128.283 158.329 127.599C158.594 127.159 159.165 127.017 159.605 127.282C159.664 127.318 159.718 127.359 159.768 127.407C160.3 127.842 160.205 128.631 159.854 129.148C159.433 129.688 158.782 129.998 158.097 129.986C157.375 129.987 156.657 129.874 155.969 129.652C155.112 129.409 154.264 129.137 153.403 128.907C152.914 128.777 152.421 128.66 151.924 128.569C151.453 128.465 150.97 128.432 150.489 128.47C149.678 128.508 148.976 129.046 148.73 129.82C148.676 130.053 149.035 130.153 149.09 129.92Z" fill="#3F3D56"/>
<path d="M163.822 120.226C163.934 120.226 164.025 120.548 164.025 120.944V122.381C164.025 122.777 163.934 123.099 163.822 123.099H147.775C147.663 123.099 147.572 122.778 147.572 122.381V120.944C147.572 120.547 147.663 120.226 147.775 120.226H163.822Z" fill="#DCE3E0"/>
<path d="M206.732 120.226C206.844 120.226 206.935 120.548 206.935 120.944V122.381C206.935 122.777 206.844 123.099 206.732 123.099H190.686C190.573 123.099 190.482 122.778 190.482 122.381V120.944C190.482 120.547 190.573 120.226 190.686 120.226H206.732Z" fill="#DCE3E0"/>
<path d="M199.588 128.318L196.402 129.371L194.81 129.897C194.32 130.105 193.791 130.203 193.26 130.181C192.867 130.155 192.522 129.911 192.368 129.55C192.3 129.188 192.456 128.82 192.763 128.616C193.523 128.039 194.484 128.627 195.023 129.225C195.682 129.957 196.055 130.902 196.673 131.669C197.222 132.356 197.92 132.912 198.713 133.294C200.299 134.08 202.19 133.919 203.619 132.875C205.298 131.581 205.469 129.337 205.478 127.38C205.471 127.192 205.314 127.045 205.125 127.051C204.947 127.058 204.803 127.201 204.797 127.38C204.789 129.154 204.688 131.328 203.069 132.439C201.519 133.502 199.482 133.22 198.054 132.087C197.318 131.432 196.706 130.651 196.247 129.78C195.737 128.946 195.105 128.141 194.145 127.817C193.297 127.509 192.349 127.84 191.877 128.609C191.471 129.293 191.696 130.177 192.38 130.583C192.433 130.615 192.488 130.643 192.545 130.667C193.657 131.197 194.93 130.576 196.001 130.222L199.77 128.977C200.184 128.841 200.007 128.183 199.589 128.321L199.588 128.318Z" fill="white"/>
<path d="M58.0438 207.549C58.0023 207.512 57.9703 207.493 57.9486 207.494C57.429 207.498 56.9659 207.771 56.7108 208.222L51.1154 218.607C50.9875 218.833 50.9247 219.08 50.9268 219.327C50.929 219.574 50.9961 219.82 51.128 220.043C51.3917 220.491 63.7489 220.652 63.7489 220.652C64.2685 220.647 65.6948 214.258 58.0438 207.549Z" fill="#DCE3E0"/>
<path d="M36.658 218.135L40.905 218.098L42.7823 201.708L36.5142 201.764L36.658 218.135Z" fill="#FFB6B6"/>
<path d="M51.2079 217.912C51.3421 218.134 51.4182 218.851 51.4204 219.11C51.4274 219.906 50.7877 220.557 49.9916 220.563L36.8393 220.678C36.2962 220.683 35.8521 220.247 35.8473 219.704L35.8426 219.157C35.8426 219.157 35.1776 217.518 36.4994 215.479C36.4994 215.479 38.1781 217.052 40.6441 214.544L41.3662 213.209L46.7104 217.044L49.657 217.381C50.3016 217.454 50.8718 217.358 51.2079 217.912Z" fill="#222222"/>
<path d="M52.8154 203.986L56.8507 205.309L63.8812 190.384L57.9256 188.43L52.8154 203.986Z" fill="#FFB6B6"/>
<path d="M66.6701 208.431C66.7263 208.684 66.5683 209.388 66.4875 209.634C66.2391 210.39 65.4246 210.801 64.6682 210.553L52.172 206.452C51.656 206.283 51.375 205.727 51.5445 205.212L51.7153 204.692C51.7153 204.692 51.6106 202.926 53.5162 201.418C53.5162 201.418 54.6025 203.445 57.7423 201.858L58.854 200.825L62.6877 206.169L65.3713 207.431C65.9584 207.707 66.5295 207.798 66.6701 208.431Z" fill="#222222"/>
<path d="M58.5131 108.956L66.9981 136.146L76.9454 160.583L61.8677 195.746L53.4783 192.479L60.9868 162.046L48.1516 139.322L42.0859 207.536L34.707 206.654L25.1128 124.942L26.6175 107.173L58.5131 108.956Z" fill="#222222"/>
<path d="M49.8316 47.0461L40.6637 44.8345L38.1345 50.8378C38.1345 50.8378 25.7459 52.9294 25.1127 62.4079C25.1127 62.4079 22.6436 74.8501 24.2242 78.3258C25.8047 81.8014 29.7012 94.092 29.7012 94.092C29.7012 94.092 23.5317 109.405 25.1127 110.351C26.6937 111.297 60.5696 114.748 60.5696 112.852C60.5696 110.957 60.9563 88.4347 60.9563 88.4347L59.6298 54.3118L51.0963 51.1538L49.8316 47.0461Z" fill="#DCE3E0"/>
<path d="M48.2801 45.5196C53.3824 45.5196 57.5186 41.3857 57.5186 36.2864C57.5186 31.1871 53.3824 27.0532 48.2801 27.0532C43.1778 27.0532 39.0415 31.1871 39.0415 36.2864C39.0415 41.3857 43.1778 45.5196 48.2801 45.5196Z" fill="#FFB6B6"/>
<path d="M42.1623 37.6587C42.8997 38.0618 42.2009 39.9878 42.6617 40.1541C43.1944 40.3464 45.1354 38.1366 45.1586 35.6623C45.1656 34.9134 44.9931 34.5539 45.1586 33.6659C45.3751 32.5044 46.0405 31.1343 46.6568 31.1705C47.0221 31.1919 47.3791 31.708 47.4058 32.1687C47.4434 32.8143 46.816 33.0687 46.9065 33.4164C47.0789 34.0788 49.7141 34.5352 50.6518 33.4164C51.387 32.5393 50.8224 30.9999 51.1512 30.921C51.3936 30.8628 51.6541 31.7103 52.6494 32.6678C53.0243 33.0285 53.582 33.565 53.8978 33.4164C54.3541 33.2017 54.022 31.6897 54.1475 31.6696C54.2514 31.653 54.317 32.7158 54.8966 33.666C55.6412 34.8867 57.1767 35.8273 57.8929 35.4128C58.3317 35.1588 58.3661 34.4522 58.3923 33.9155C58.4474 32.7849 60.0905 30.1836 59.6648 28.9743C58.7982 26.5128 57.3155 28.2486 56.6444 27.4273C55.7359 26.3155 54.9212 26.9137 53.3984 25.6805C51.9108 24.4758 51.8974 23.2644 50.9015 23.1851C50.0046 23.1136 49.686 24.0698 48.6543 23.9337C47.7803 23.8184 47.5899 23.0769 46.9065 23.1851C46.2808 23.2841 46.2397 23.9374 45.4083 24.1832C44.8775 24.3402 44.7608 24.1133 44.1599 24.1832C42.9094 24.3287 42.0699 25.4672 41.9126 25.6805C41.3064 26.5027 41.5419 26.8493 40.9139 27.6769C40.3723 28.3906 39.1717 28.088 38.7204 28.4445C37.2458 29.6095 36.6128 31.7572 36.6008 34.2048C36.5925 35.9167 36.8161 36.7816 37.3152 38.9422C37.6942 40.5829 39.4478 42.7026 40.4145 43.6477C40.674 43.9015 41.4014 44.6127 41.9126 44.3964C42.3971 44.1914 42.4114 43.2703 42.412 43.1487C42.4141 42.7304 42.3024 42.2128 41.4133 40.9028C40.4793 39.5266 40.1084 39.3696 40.1648 38.9064C40.2646 38.0875 41.5746 37.3374 42.1623 37.6587Z" fill="#222222"/>
<path d="M16.0368 129.755C15.7151 132.439 16.8401 134.782 18.5497 134.986C20.2592 135.191 21.9059 133.18 22.2276 130.496C22.3684 129.32 22.232 128.211 21.8907 127.317L23.1112 115.924L17.7492 115.465L17.1151 126.746C16.5724 127.533 16.1777 128.579 16.0368 129.755Z" fill="#FFB6B6"/>
<path d="M31.4764 54.0903C31.4764 54.0903 28.6983 54.1289 26.8577 57.7185C25.8796 59.626 19.5219 93.8153 19.5219 93.8153L17.7358 104.628L18.6537 106.417C17.1945 108.647 16.7928 111.407 17.5556 113.961L15.8105 124.525L24.0164 124.57L30.4202 96.894L35.8048 80.8433L31.4764 54.0903Z" fill="#DCE3E0"/>
<path d="M73.3995 129.338C73.7213 132.023 72.5962 134.365 70.8867 134.569C69.1772 134.774 67.5305 132.763 67.2088 130.079C67.0679 128.903 67.2044 127.794 67.5456 126.9L66.3252 115.507L71.6872 115.048L72.3212 126.329C72.8639 127.116 73.2587 128.162 73.3995 129.338Z" fill="#FFB6B6"/>
<path d="M57.9603 53.6733C57.9603 53.6733 60.7383 53.7119 62.5789 57.3015C63.557 59.209 69.9147 93.3983 69.9147 93.3983L71.7008 104.211L70.7829 106C72.2421 108.23 72.6438 110.99 71.881 113.544L73.6261 124.108L65.4202 124.153L59.0164 96.477L53.6318 80.4263L57.9603 53.6733Z" fill="#DCE3E0"/>
<path d="M309.027 39.0677C309.368 39.6252 311.176 37.5854 313.952 37.3605C314.66 37.3018 316.253 40.0067 318.081 40.0458C319.292 40.0702 320.038 40.0605 321.53 40.0458C323.293 40.0262 323.776 39.9871 324.117 39.5567C324.776 38.7204 324.233 37.2337 324.548 37.1114C324.811 37.0087 325.492 37.9281 325.841 39.0677C326.574 41.4592 323.944 44.7898 323.686 47.8709C323.41 51.1916 326.126 44.8289 325.841 47.8709C325.522 51.2944 324.38 51.0351 324.393 52.2725C324.397 52.4583 324.444 52.6197 324.548 52.7616C324.638 52.8887 324.729 52.9376 326.272 53.2506C328.117 53.6272 329.044 53.813 329.29 53.7397C329.924 53.5538 330.566 52.5219 331.015 51.7834C331.756 50.5754 331.23 51.7932 331.015 50.3162C330.808 48.8881 330.161 48.7023 330.152 47.3818C330.144 45.719 331.165 45.2152 331.877 43.4693C333.192 40.2414 331.907 36.505 331.446 35.1551C331.224 34.5078 330.822 33.6885 330.118 32.3349C329.553 31.2482 328.802 30.2909 327.887 29.5736C326.515 28.4986 324.922 27.762 323.2 27.4702C322.256 27.3103 321.294 27.3942 320.367 27.6471L317.964 28.302C316.954 28.5773 316.002 29.0762 315.162 29.7701C314.38 29.7731 313.701 30.3468 313.433 31.1806C313.405 31.2678 313.38 31.3187 313.359 31.3112C309.027 29.7754 309.03 34.3243 309.078 37.1659C309.083 37.4568 309.073 37.7142 309.04 37.9232V37.9379C308.954 38.5003 308.933 38.9112 309.027 39.0677Z" fill="#222222"/>
<path d="M252.726 64.1899H207.13V65.0237H252.726V64.1899Z" fill="#3F3D56"/>
<path d="M261.903 70.0144C258.683 70.0144 256.063 67.3962 256.063 64.1778C256.063 60.9595 258.683 58.3413 261.903 58.3413C265.124 58.3413 267.743 60.9595 267.743 64.1778C267.743 67.3962 265.124 70.0144 261.903 70.0144ZM261.903 59.1751C259.143 59.1751 256.898 61.4194 256.898 64.1778C256.898 66.9363 259.143 69.1806 261.903 69.1806C264.664 69.1806 266.909 66.9363 266.909 64.1778C266.909 61.4194 264.664 59.1751 261.903 59.1751Z" fill="#3F3D56"/>
<path d="M261.903 67.0958C263.516 67.0958 264.823 65.7893 264.823 64.1775C264.823 62.5658 263.516 61.2593 261.903 61.2593C260.291 61.2593 258.983 62.5658 258.983 64.1775C258.983 65.7893 260.291 67.0958 261.903 67.0958Z" fill="white"/>
<path d="M148.569 95.04H102.973V95.8738H148.569V95.04Z" fill="#3F3D56"/>
<path d="M87.9561 95.0279C87.9561 91.8096 90.5758 89.1914 93.796 89.1914C97.0162 89.1914 99.636 91.8096 99.636 95.0279C99.636 98.2463 97.0162 100.864 93.796 100.864C90.5758 100.864 87.9561 98.2463 87.9561 95.0279ZM88.7903 95.0279C88.7903 97.7864 91.0359 100.031 93.796 100.031C96.5561 100.031 98.8017 97.7864 98.8017 95.0279C98.8017 92.2695 96.5561 90.0252 93.796 90.0252C91.0359 90.0252 88.7903 92.2695 88.7903 95.0279Z" fill="#3F3D56"/>
<path d="M93.796 97.9464C95.4086 97.9464 96.7159 96.6398 96.7159 95.0281C96.7159 93.4164 95.4086 92.1099 93.796 92.1099C92.1833 92.1099 90.876 93.4164 90.876 95.0281C90.876 96.6398 92.1833 97.9464 93.796 97.9464Z" fill="white"/>
</g>
<defs>
<clipPath id="clip0_37_7658">
<rect width="355" height="220" fill="white" transform="translate(0 0.768555)"/>
</clipPath>
</defs>
</svg>
