<svg width="20" height="13" viewBox="0 0 20 13" fill="none" xmlns="http://www.w3.org/2000/svg">
<g clip-path="url(#clip0_36_1735)">
<path d="M9.66358 0.478837L9.34791 0.669019C9.13872 0.795071 9.13872 0.999456 9.34791 1.12554L17.3164 5.92699H0.535715C0.239866 5.92699 0 6.07152 0 6.24979V6.51879C0 6.69705 0.239866 6.84158 0.535715 6.84158H17.3164L9.34791 11.643C9.13872 11.7691 9.13872 11.9735 9.34791 12.0996L9.66358 12.2897C9.87278 12.4158 10.212 12.4158 10.4212 12.2897L19.8431 6.61253C20.0523 6.48648 20.0523 6.2821 19.8431 6.15602L10.4212 0.478837C10.212 0.352757 9.87278 0.352757 9.66358 0.478837Z" fill="#222222"/>
</g>
<defs>
<clipPath id="clip0_36_1735">
<rect width="20" height="12" fill="white" transform="translate(0 0.384277)"/>
</clipPath>
</defs>
</svg>
