<svg width="21" height="31" viewBox="0 0 21 31" fill="none" xmlns="http://www.w3.org/2000/svg">
<path d="M17.2998 17.4707C19.3188 15.6256 20.4285 13.1281 20.4285 10.4355C20.4285 4.33043 14.6874 -0.304671 8.36063 0.985329C4.46132 1.78033 1.38657 4.89293 0.708425 8.73303C0.122758 12.0705 1.29409 15.2356 3.60594 17.4032C5.08552 18.7907 5.97172 20.8308 5.97172 22.8633V25.5034C5.51706 25.5484 5.16258 25.9234 5.16258 26.3809C5.16258 26.8684 5.5633 27.2584 6.0642 27.2584C6.48804 29.2535 8.31439 30.7685 10.4952 30.7685C12.6761 30.7685 14.5024 29.2535 14.9186 27.2509H15.1035C15.6044 27.2509 16.0051 26.8609 16.0051 26.3734C16.0051 25.8859 15.6044 25.4959 15.1035 25.4959H15.011V22.8558C15.0496 22.6683 14.6257 19.9157 17.2998 17.4707ZM4.86204 16.1281C2.88156 14.2831 2.01847 11.6955 2.48854 9.02553C3.04339 5.89043 5.54788 3.34783 8.73052 2.70283C13.9168 1.64533 18.6175 5.43293 18.6175 10.4355C18.6175 12.6331 17.7082 14.6806 16.0591 16.1881C14.3329 17.7707 13.308 19.8632 13.2078 21.9783H11.3968V15.9781L14.8569 10.923C15.1343 10.518 15.0187 9.97053 14.6026 9.70053C14.1865 9.43053 13.6239 9.54303 13.3465 9.94803L12.8841 10.623L10.8882 9.64803C10.6339 9.52803 10.3334 9.52803 10.0791 9.64803L8.08321 10.623L7.62084 9.94803C7.34342 9.54303 6.78087 9.43803 6.36474 9.70053C5.94861 9.97053 5.84072 10.518 6.11044 10.923L9.57049 15.9781V21.9783H7.72102C7.52066 19.7732 6.48033 17.6357 4.86204 16.1281ZM10.4952 14.1256L9.10812 12.093L10.4952 11.418L11.8823 12.093L10.4952 14.1256ZM10.4952 29.0135C9.31619 29.0135 8.31439 28.2784 7.9445 27.2584H13.0537C12.6761 28.2784 11.6743 29.0135 10.4952 29.0135ZM7.79038 25.4959V23.7408H13.2078V25.4959H7.79038Z" fill="white"/>
</svg>
