<svg width="39" height="37" viewBox="0 0 39 37" fill="none" xmlns="http://www.w3.org/2000/svg">
<rect x="0.25" y="0.109375" width="38" height="36" rx="18" fill="black" fill-opacity="0.58"/>
<g clip-path="url(#clip0_30_5633)">
<path d="M27.2812 13.7875C27.3969 13.3969 27.2812 13.1094 26.725 13.1094H24.8844C24.4156 13.1094 24.2 13.3562 24.0844 13.6312C24.0844 13.6312 23.1469 15.9156 21.8219 17.3969C21.3937 17.825 21.1969 17.9625 20.9625 17.9625C20.8469 17.9625 20.6687 17.825 20.6687 17.4344V13.7875C20.6687 13.3187 20.5375 13.1094 20.15 13.1094H17.2562C16.9625 13.1094 16.7875 13.3281 16.7875 13.5312C16.7875 13.975 17.45 14.0781 17.5187 15.3281V18.0406C17.5187 18.6344 17.4125 18.7437 17.1781 18.7437C16.5531 18.7437 15.0344 16.45 14.1344 13.825C13.9531 13.3156 13.775 13.1094 13.3031 13.1094H11.4625C10.9375 13.1094 10.8312 13.3562 10.8312 13.6312C10.8312 14.1187 11.4562 16.5406 13.7406 19.7406C15.2625 21.925 17.4062 23.1094 19.3562 23.1094C20.5281 23.1094 20.6719 22.8469 20.6719 22.3938C20.6719 20.3063 20.5656 20.1094 21.1531 20.1094C21.425 20.1094 21.8937 20.2469 22.9875 21.3C24.2375 22.55 24.4437 23.1094 25.1437 23.1094H26.9844C27.5094 23.1094 27.775 22.8469 27.6219 22.3281C27.2719 21.2375 24.9062 18.9938 24.8 18.8438C24.5281 18.4938 24.6062 18.3375 24.8 18.025C24.8031 18.0219 27.05 14.8594 27.2812 13.7875Z" fill="white"/>
</g>
<defs>
<clipPath id="clip0_30_5633">
<rect width="18" height="16" fill="white" transform="translate(10.25 10.1094)"/>
</clipPath>
</defs>
</svg>
